<?xml version="1.0" encoding="utf-8"?>
<!-- Generator: Adobe Illustrator 27.0.0, SVG Export Plug-In . SVG Version: 6.00 Build 0)  -->
<svg version="1.1" id="Layer_1" xmlns="http://www.w3.org/2000/svg" xmlns:xlink="http://www.w3.org/1999/xlink" x="0px" y="0px"
	 viewBox="0 0 85.5 96.7" style="enable-background:new 0 0 85.5 96.7;" xml:space="preserve">
<style type="text/css">
	.st0{fill:#199DF1;}
	.st1{fill:#2F3F4F;}
	.st2{fill:#768BA3;}
	.st3{fill:#7F94AA;}
	.st4{fill:#8EA2B5;}
	.st5{fill:#768BA4;}
	.st6{fill:#8196AC;}
	.st7{fill:#91A5BA;}
	.st8{fill:#7A8FA6;}
	.st9{fill:#788EA7;}
	.st10{fill:#8095AC;}
	.st11{fill:#7C92A9;}
	.st12{fill:#849AB1;}
	.st13{fill:#94A8BA;}
	.st14{fill:#95A9BD;}
	.st15{fill:#99ADC0;}
	.st16{fill:#96ADC3;}
	.st17{fill:#8096AE;}
	.st18{fill:#90A6BE;}
	.st19{fill:#8196AE;}
	.st20{fill:#8BA2BA;}
	.st21{fill:#99B0C9;}
	.st22{fill:#91A8BF;}
	.st23{fill:#91A6BC;}
	.st24{fill:#8499B0;}
	.st25{fill:#8EA3B8;}
	.st26{fill:#95ABC4;}
	.st27{fill:#9AB2C9;}
	.st28{fill:#90A3B6;}
	.st29{fill:#91A7BE;}
	.st30{fill:#9AB1CA;}
	.st31{fill:#99B1C9;}
	.st32{fill:#94AAC1;}
	.st33{fill:#91A5B9;}
	.st34{fill:#92A7BC;}
	.st35{fill:#93A9C0;}
	.st36{fill:#95ACC4;}
	.st37{fill:#93A8BE;}
	.st38{fill:#92A8BE;}
	.st39{fill:#91A7C0;}
	.st40{fill:#279FEE;}
	.st41{fill:#DBECF3;}
	.st42{fill:#544F4E;}
	.st43{fill:#96BDDB;}
	.st44{fill:#EFF4F5;}
	.st45{fill:#7F5B3F;}
	.st46{fill:#7E5B3F;}
	.st47{fill:#CD9B53;}
	.st48{fill:#BF6439;}
	.st49{fill:#BD4C26;}
	.st50{fill:#27A1EE;}
	.st51{fill:#EEF3F4;}
	.st52{fill:#95BCD9;}
	.st53{fill:#EEF3F3;}
	.st54{fill:#EDF2F3;}
	.st55{fill:#94BBD9;}
	.st56{fill:#E48E4B;}
	.st57{fill:#27A1F0;}
	.st58{fill:#269CE9;}
	.st59{fill:#27A0EF;}
	.st60{fill:#030303;}
	.st61{fill:#D9EAF1;}
	.st62{fill:#F1F6F7;}
	.st63{fill:#269BE8;}
	.st64{fill:#27A0F0;}
	.st65{fill:#010000;}
	.st66{fill:#010101;}
	.st67{fill:#020202;}
	.st68{fill:#BD4D27;}
	.st69{fill:#E58F4C;}
	.st70{fill:#E48D4B;}
</style>
<g>
	<path class="st0" d="M42.3,4.9c5.3,0,10.4,0.9,15.3,2.7c1.6,0.6,3.1,1.3,4.6,2c2.6,1.3,5,2.9,7.3,4.8c1.4,1.1,2.7,2.3,4,3.6
		c1.5,1.5,2.8,3.2,4,4.9c1.3,1.8,2.5,3.7,3.4,5.8c1.3,2.7,2.3,5.4,3,8.3c0.3,1.4,0.6,2.9,0.9,4.3c0.2,1,0.3,2.1,0.3,3.1
		c0.1,1.2,0.1,2.4,0.1,3.6c0,1.3-0.1,2.6-0.3,3.9c-0.4,3.4-1.2,6.6-2.3,9.8c-0.6,1.7-1.3,3.4-2.2,5c-1.2,2.4-2.7,4.6-4.3,6.6
		c-1.3,1.6-2.7,3.2-4.2,4.6c-1.6,1.5-3.3,2.9-5.1,4.1c-1.8,1.3-3.7,2.4-5.8,3.3c-2.8,1.3-5.7,2.3-8.7,3c-1,0.2-2,0.5-3.1,0.6
		c-0.7,0.1-1.3,0.2-2,0.3c-0.5,0.1-1.1,0.1-1.6,0.2c-0.8,0-1.6,0.1-2.4,0.1c-0.8,0-1.6,0-2.4,0c-0.5,0-0.9-0.1-1.4-0.1
		c-0.5,0-1-0.1-1.5-0.1c-0.5,0-0.9-0.1-1.4-0.2c-0.7-0.1-1.4-0.3-2.1-0.4c-1-0.2-2-0.4-3-0.7c-0.9-0.2-1.8-0.5-2.6-0.8
		c-1.4-0.5-2.8-1.1-4.1-1.7c-1.5-0.6-2.9-1.4-4.2-2.3c-0.9-0.6-1.7-1.1-2.6-1.7c-0.7-0.5-1.3-1-1.9-1.5c-0.6-0.4-1.1-0.9-1.6-1.4
		c-0.5-0.4-1-0.9-1.5-1.3c-0.5-0.5-1-1.1-1.5-1.7c-0.4-0.5-0.9-1-1.3-1.5c-0.5-0.6-1-1.3-1.5-1.9c-0.7-0.9-1.3-1.9-1.9-2.8
		c-1-1.5-1.8-3.1-2.5-4.8c-0.4-0.8-0.8-1.7-1.1-2.6c-0.5-1.5-0.9-3-1.3-4.5c-0.3-1-0.5-2.1-0.7-3.2c-0.1-0.7-0.2-1.4-0.3-2.1
		c-0.1-0.7-0.2-1.4-0.2-2.1c-0.1-0.8-0.1-1.6-0.1-2.4c0-0.8,0-1.6,0-2.5c0-0.5,0.1-0.9,0.1-1.4c0-0.5,0.1-1,0.1-1.5
		c0-0.5,0.1-0.9,0.2-1.4c0.1-0.7,0.3-1.4,0.4-2.1c0.2-1,0.4-2,0.7-3c0.2-0.9,0.5-1.8,0.8-2.8c1.5-4.2,3.6-8.1,6.3-11.7
		c2-2.6,4.2-5,6.7-7c5.1-4.1,10.8-7.1,17.2-8.5c2.1-0.5,4.2-0.9,6.4-1.1C40.4,5,41.4,5,42.3,4.9z M82.8,48.7c0-0.6,0-1.2,0-1.8
		c0,0,0-0.1-0.1-0.1c0-0.8,0-1.7-0.1-2.5c-0.1-1-0.2-2-0.4-2.9c-0.2-1-0.4-2.1-0.6-3.1c-0.4-1.7-0.9-3.3-1.5-4.9
		c-0.8-2.1-1.7-4-2.8-5.9c-0.9-1.6-1.9-3.1-3-4.5c-0.9-1.1-1.8-2.2-2.8-3.2c-0.6-0.7-1.3-1.3-2-1.9c-0.7-0.6-1.4-1.3-2.2-1.9
		c-1.3-1-2.6-1.9-4-2.7c-1.5-1-3.1-1.7-4.7-2.4c-1.8-0.8-3.7-1.5-5.6-2c-1.3-0.3-2.7-0.6-4.1-0.9c-0.8-0.2-1.7-0.3-2.5-0.4
		c-0.9-0.1-1.9-0.2-2.8-0.2c-1.3,0-2.5,0-3.8,0.1c-1,0.1-2,0.2-3,0.3c-1.2,0.2-2.5,0.4-3.7,0.7c-1.4,0.3-2.7,0.8-4,1.2
		c-0.9,0.3-1.7,0.6-2.5,1c-0.9,0.4-1.7,0.8-2.6,1.3c-0.9,0.5-1.8,0.9-2.6,1.5c-1.1,0.7-2.1,1.4-3.1,2.2c-1.4,1-2.6,2.1-3.8,3.3
		c-0.8,0.7-1.5,1.6-2.2,2.4c-0.5,0.6-1,1.2-1.5,1.8c-0.8,1.1-1.5,2.2-2.3,3.3c-0.8,1.2-1.5,2.6-2.1,3.9c-0.6,1.3-1.2,2.7-1.6,4
		c-0.3,1-0.6,1.9-0.9,2.9C3.9,38.1,3.7,39,3.5,40c-0.2,1-0.3,2-0.4,3C3,43.5,3,44.1,3,44.7c0,0.6-0.1,1.1-0.1,1.7c0,0.7,0,1.5,0,2.2
		c0,0.3,0.1,0.6,0.1,1c0,0.1,0,0.2,0,0.3c0,0.2,0,0.5,0.1,0.7c0.1,0.5,0.1,1,0.2,1.6c0,0.3,0.1,0.7,0.1,1c0.1,0.6,0.2,1.3,0.4,1.9
		c0,0.1,0,0.2,0,0.2c0.4,1.6,0.8,3.2,1.3,4.7c0.3,1,0.7,1.9,1.1,2.8c0,0.1,0,0.2,0.1,0.3c0.7,1.4,1.3,2.8,2.1,4.1
		c0.5,0.8,1,1.6,1.5,2.4c0.3,0.5,0.7,1,1,1.5c0.7,0.8,1.3,1.6,2,2.5c0,0.1,0.1,0.1,0.1,0.2c0.6,0.6,1.1,1.2,1.7,1.8
		c1.6,1.6,3.3,3,5.1,4.3c0.6,0.4,1.3,0.8,1.9,1.2c0.8,0.4,1.5,0.9,2.3,1.3c2.5,1.3,5.1,2.4,7.8,3.2c3.2,0.9,6.5,1.5,9.8,1.6
		c1.4,0,2.8,0,4.2-0.1c1.4-0.1,2.9-0.3,4.3-0.5c2.5-0.4,4.9-1.1,7.3-2.1c2-0.8,4-1.7,5.8-2.9c1.3-0.8,2.6-1.7,3.8-2.6
		c0.1,0,0.2-0.1,0.2-0.1c1-0.9,2.1-1.7,3.1-2.7c0.7-0.6,1.3-1.3,2-2c0.4-0.4,0.8-0.9,1.2-1.4c0,0,0,0,0,0c0.9-1.2,1.8-2.4,2.6-3.6
		c0.5-0.8,1-1.6,1.5-2.4c0,0,0.1-0.1,0.1-0.1c0.5-1,1-1.9,1.5-2.9c0.2-0.4,0.3-0.7,0.5-1.1c0-0.1,0.1-0.1,0.1-0.2
		c0.4-1.2,0.9-2.3,1.3-3.5c0.1-0.4,0.2-0.8,0.3-1.2c0-0.1,0-0.2,0-0.3c0.1-0.3,0.2-0.7,0.3-1c0-0.1,0.1-0.1,0.1-0.2
		c0.1-0.5,0.2-1,0.3-1.4c0.1-0.8,0.3-1.6,0.4-2.4c0.1-1,0.2-2,0.3-3.1C82.7,49.3,82.7,49,82.8,48.7z"/>
	<path class="st1" d="M3,49.6c0-0.3-0.1-0.6-0.1-1c0-0.7,0-1.5,0-2.2c0-0.6,0.1-1.1,0.1-1.7C3,44.1,3,43.5,3.1,43c0.1-1,0.2-2,0.4-3
		c0.2-0.9,0.4-1.9,0.6-2.8c0.3-1,0.6-1.9,0.9-2.9c0.5-1.4,1-2.7,1.6-4c0.6-1.4,1.3-2.7,2.1-3.9c0.7-1.1,1.5-2.2,2.3-3.3
		c0.5-0.6,1-1.2,1.5-1.8c0.7-0.8,1.4-1.6,2.2-2.4c1.2-1.2,2.4-2.3,3.8-3.3c1-0.7,2-1.5,3.1-2.2c0.8-0.5,1.7-1,2.6-1.5
		c0.8-0.4,1.7-0.9,2.6-1.3c0.8-0.4,1.7-0.7,2.5-1c1.3-0.4,2.7-0.9,4-1.2c1.2-0.3,2.5-0.5,3.7-0.7c1-0.2,2-0.2,3-0.3
		c1.3-0.1,2.5-0.1,3.8-0.1c0.9,0,1.9,0.1,2.8,0.2c0.8,0.1,1.7,0.2,2.5,0.4c1.4,0.3,2.7,0.5,4.1,0.9c1.9,0.5,3.8,1.2,5.6,2
		c1.6,0.7,3.2,1.5,4.7,2.4c1.4,0.9,2.7,1.8,4,2.7c0.8,0.6,1.5,1.2,2.2,1.9c0.7,0.6,1.4,1.3,2,1.9c1,1.1,1.9,2.1,2.8,3.2
		c1.1,1.4,2.1,2.9,3,4.5c1.1,1.9,2,3.9,2.8,5.9c0.6,1.6,1.1,3.2,1.5,4.9c0.2,1,0.4,2.1,0.6,3.1c0.2,1,0.3,2,0.4,2.9
		c0.1,0.8,0,1.6,0.1,2.5c0,0.1-0.1,0.2-0.1,0.3c0,0.7-0.1,1.5-0.1,2.2c0,0.2,0,0.4,0,0.6c-0.1,0.9-0.2,1.8-0.3,2.7
		c-0.1,0.3-0.1,0.5-0.2,0.8c-0.2,1.5-0.5,2.9-0.9,4.3c-0.1,0.4-0.2,0.8-0.3,1.2c0,0.1,0,0.2-0.1,0.3c0,0-0.1,0.1-0.1,0.1
		c-0.3,0.9-0.6,1.7-0.9,2.6c0,0.1,0,0.2-0.1,0.3c-0.1,0.3-0.3,0.7-0.4,1c-0.2,0.3-0.3,0.7-0.5,1c-0.3,0.5-0.5,1-0.8,1.5
		c-0.6,1-1.1,1.9-1.7,2.9c-0.1,0.2-0.3,0.4-0.4,0.6c-0.3,0.4-0.6,0.9-0.8,1.3c-0.4,0.5-0.7,0.9-1.1,1.4c-0.2,0.3-0.4,0.6-0.6,0.9
		c-0.1,0.1-0.1,0.2-0.2,0.2c-0.1,0.1-0.2,0.3-0.4,0.4c-0.2,0.2-0.4,0.4-0.6,0.6c-0.2,0.2-0.4,0.3-0.5,0.5c-0.9,0.9-1.8,1.8-2.8,2.7
		c-0.1,0-0.1,0-0.2,0.1c-0.7,0.6-1.4,1.1-2.1,1.7c-0.3,0.2-0.5,0.4-0.8,0.7c-0.3,0.2-0.5,0.4-0.8,0.5c-0.5,0.3-0.9,0.6-1.4,0.8
		c0,0-0.1,0.1-0.1,0.2c0,0-0.1,0.1-0.1,0.1c-0.1,0.1-0.2,0.1-0.3,0.2c-0.6,0.3-1.2,0.6-1.8,1c-0.1,0-0.2,0-0.2,0.1
		c-0.8,0.4-1.5,0.7-2.3,1.1c-0.1,0-0.1,0.1-0.2,0.2c0,0,0,0-0.1,0.1c0,0,0,0,0,0c0,0-0.1,0-0.1,0.1c0,0,0,0-0.1,0c0,0-0.1,0-0.1,0.1
		l0,0c0,0-0.1,0-0.1,0.1c0,0,0,0,0,0c-0.1,0-0.1,0-0.2,0.1c0,0,0,0,0,0c0,0-0.1,0-0.1,0.1l0,0c0,0-0.1,0-0.1,0.1
		c-0.2,0.1-0.4,0.2-0.6,0.2c-0.2,0-0.4,0-0.5,0.1c-1.3,0.4-2.6,0.8-3.9,1.2c-0.4,0.1-0.7,0.2-1.1,0.3c-0.1,0-0.2,0-0.3,0.1
		c-0.6,0.1-1.2,0.2-1.8,0.4c-0.3,0-0.7,0.1-1,0.1c-0.3,0-0.6,0-0.8,0.1c-0.9,0.1-1.8,0.2-2.7,0.2c-0.1,0-0.3,0-0.4,0.1
		c-0.2,0-0.5,0.1-0.7,0.1c-0.9,0-1.8,0-2.6-0.1c-1,0-2.1-0.1-3.1-0.2c0,0-0.1,0-0.1-0.1c-0.4,0-0.9-0.1-1.3-0.1
		c-1.1-0.2-2.2-0.4-3.3-0.6c-0.8-0.2-1.5-0.4-2.3-0.6c-0.2-0.1-0.4-0.1-0.6-0.2c-0.1,0-0.2-0.1-0.3-0.1c-0.5-0.2-0.9-0.3-1.4-0.5
		c-0.8-0.3-1.5-0.6-2.3-0.9c-0.2-0.1-0.5-0.2-0.7-0.3c-0.1-0.1-0.1-0.1-0.2-0.2c-0.7-0.4-1.4-0.7-2.1-1.1c-0.1,0-0.2,0-0.3-0.1
		c-0.5-0.3-1.1-0.6-1.6-1c0,0,0-0.1,0-0.1c-0.5-0.3-1-0.6-1.4-0.9c-0.5-0.4-1-0.8-1.5-1.2c-0.7-0.6-1.4-1.2-2.2-1.8
		c-1-1-2-1.9-2.9-2.9c-0.5-0.6-1-1.1-1.5-1.7c-0.1-0.2-0.3-0.3-0.5-0.4c-0.2-0.3-0.4-0.5-0.6-0.8c0-0.1,0-0.2-0.1-0.2
		c-0.4-0.5-0.8-1-1.2-1.5c-0.4-0.6-0.8-1.1-1.1-1.7c-0.3-0.6-0.6-1.1-1-1.7c-0.1-0.2-0.2-0.5-0.3-0.7c-0.4-0.9-0.9-1.9-1.3-2.8
		C6,62.4,5.9,62.2,5.9,62c-0.5-1.4-1-2.7-1.4-4.1c-0.2-0.7-0.4-1.4-0.5-2.1c-0.1-0.3-0.1-0.5-0.2-0.8c-0.1-0.6-0.2-1.3-0.4-1.9
		c0-0.1,0-0.1,0-0.2c-0.1-0.8-0.2-1.6-0.3-2.4C3,50.2,3,49.9,3,49.6z M73.6,38.4c0.3-0.5,0.5-1,0.7-1.5c0.4-1.2,0.6-2.3-0.1-3.4
		c0-0.1,0-0.2,0-0.2c0.1-0.2,0.2-0.3,0.1-0.5c-0.2-0.8-0.6-1.4-1.3-1.8c-0.2-0.1-0.4-0.2-0.5-0.3c-0.8-0.9-1.6-1.8-2.6-2.6
		c-0.6-0.4-1.1-0.9-1.9-1c-0.5-0.1-1.1-0.3-1.6-0.4c-0.1,0-0.2-0.1-0.2-0.2c-0.1-0.2,0-0.4-0.1-0.5c-0.1-0.9-0.3-1.7-0.8-2.4
		c-0.6-0.9-1.5-1.6-2.5-2.1c-0.3-0.2-0.7-0.2-0.8-0.6c0,0-0.1-0.1-0.1-0.1c-0.2-0.3-0.3-0.5-0.4-0.8c-0.3-0.7-0.6-1.4-1.2-1.9
		c-0.8-0.8-1.9-1.3-3-1.5c-1.2-0.3-2.4-0.5-3.7-0.4c-0.9,0.1-1.7,0.2-2.6,0.2c-0.6,0-1.1,0.1-1.7,0c-0.8-0.1-1.6-0.3-2.4-0.4
		c-1.3-0.3-2.6-0.7-3.9-0.7c-0.9,0-1.7,0-2.6,0c-0.6,0-1.3,0.1-1.9,0.1c-1,0-2.1-0.1-3.1,0c-1.3,0-2.5,0.4-3.7,1
		c-1.6,0.8-3,1.9-4.2,3.2c-1,1.1-1.8,2.3-2.4,3.7c-0.2,0.4-0.3,0.8-0.4,1.2c-0.3,0.9-0.9,1.7-1.6,2.3c-0.9,0.8-1.7,1.7-2.2,2.8
		c-0.1,0.1-0.2,0.3-0.3,0.3c-0.8,0.4-1.5,0.9-2,1.6c-0.8,1-1.3,2.1-0.9,3.4c0.2,0.4,0,0.8-0.4,1.1c-0.4,0.3-0.6,0.6-0.8,1.1
		c0,0.1-0.1,0.2-0.1,0.2c-0.6,0.6-1.1,1.3-1.4,2.1c-0.4,1.1-0.4,2.2-0.2,3.4c0.2,1.1,0.6,2.1,1.5,2.7c0.7,0.5,1.5,0.9,2.4,0.8
		c0.5,0,0.4,0,0.4,0.4c0,0.9,0,1.8,0.1,2.7c0.1,1.2,0.3,2.3,1.1,3.3c0.1,0.1,0.1,0.2,0,0.3c-0.4,0.4-0.6,0.9-0.8,1.5
		c0,0.1-0.1,0.2,0,0.3c0.1,0.2,0,0.2-0.2,0.3c-0.3,0.1-0.7,0.1-1,0.3c-0.6,0.2-1.1,0.5-1.5,0.9c-0.7,0.7-1,1.6-1.2,2.5
		c-0.3,1.2-0.5,2.5-0.7,3.7c-0.2,1.2-0.3,2.5-0.4,3.7c-0.1,0.7-0.2,1.4-0.2,2.1c-0.1,1,0.1,1.9,1,2.5c1.2,0.8,2.5,1.6,3.9,2.2
		c1,0.4,2,0.8,3,1.1c1.9,0.7,3.9,1.2,5.9,1.5c2.4,0.4,4.8,0.7,7.2,0.9c1.1,0.1,2.3,0.1,3.4,0.1c1.2,0,2.4,0,3.6,0
		c1.5-0.1,3.1-0.1,4.6-0.2c1.3-0.1,2.6-0.3,3.9-0.4c0.2,0,0.4,0,0.6,0c0.4-0.1,0.8-0.2,1.2-0.3c2.5-0.5,5.1-1.1,7.5-2
		c1.3-0.5,2.6-1.1,3.8-1.7c0.5-0.2,0.9-0.7,1.1-1.2c0.5-1.2,0.5-2.5,0.3-3.8c-0.2-1.2-0.4-2.4-0.6-3.6c-0.2-1.2-0.5-2.5-0.9-3.7
		c-0.3-1-0.9-1.9-1.7-2.6c-0.5-0.5-1-1.1-1.5-1.6c-0.3-0.3-0.6-0.7-0.7-1.2c-0.1-0.2,0-0.3,0.2-0.4c0.6-0.4,1.2-0.9,1.7-1.4
		c0.7-0.7,1.3-1.5,1.9-2.4c0.2-0.3,0.3-0.5,0.5-0.8c0.1,0.1,0.1,0.2,0.1,0.2c0.5,0.7,1,1.4,1.5,2.1c0.4,0.5,0.9,0.9,1.2,1.5
		c0.1,0.2,0.3,0.2,0.5,0.2c0.2-0.1,0.4,0,0.6-0.1c0.2,0,0.4,0,0.5-0.1c0.2,0,0.3-0.1,0.5-0.2c0.3-0.1,0.6-0.2,0.8-0.5
		c0.1-0.1,0.3-0.2,0.5-0.3c0.3-0.1,0.5-0.2,0.6-0.5c0-0.1,0.1-0.3,0.1-0.4c0.2-0.4,0.1-0.7-0.1-1c-0.1-0.1-0.2-0.2-0.2-0.3
		c-0.2-0.3-0.4-0.6-0.6-0.9c-0.5-0.5-0.9-1.1-1.4-1.6c-0.2-0.2-0.2-0.3,0-0.5c0.2-0.2,0.3-0.4,0.4-0.7c0.1-0.3,0.2-0.3,0.5-0.3
		c0.6,0.1,1.2,0,1.6-0.4c0.7-0.6,0.8-1.3,0.3-2.1c-0.1-0.1-0.2-0.3-0.2-0.4c0-0.3-0.2-0.4-0.5-0.6c-0.2-0.1-0.3-0.2-0.5-0.3
		c0.1,0,0.1-0.1,0.1-0.1c1-0.2,1.8-0.7,2.4-1.4C74.2,39.7,74.2,38.9,73.6,38.4z"/>
	<path class="st2" d="M67,79.2c-1.3,0.9-2.5,1.8-3.8,2.6c-1.8,1.2-3.8,2.1-5.8,2.9c-2.4,0.9-4.8,1.6-7.3,2.1
		c-1.4,0.2-2.9,0.4-4.3,0.5c-1.4,0.1-2.8,0.2-4.2,0.1c-3.3-0.1-6.6-0.6-9.8-1.6c-2.7-0.8-5.3-1.8-7.8-3.2c-0.8-0.4-1.5-0.9-2.3-1.3
		c0,0,0.1,0,0.1,0c0.1,0.1,0.1,0.1,0.2,0.2c1.9,1.2,4,2.2,6.1,3c1.4,0.5,2.8,1,4.2,1.4c0.5,0.2,1.1,0.3,1.7,0.4c0,0,0,0,0,0
		c1.9,0.4,3.8,0.7,5.8,0.9c0.9,0.1,1.8,0.1,2.6,0.1c0.4,0,0.8,0,1.2-0.1c0.5,0,1,0,1.5-0.1c1-0.1,2.1-0.2,3.1-0.3
		c1.3-0.2,2.5-0.4,3.8-0.7c1.4-0.3,2.7-0.7,4-1.2c1.3-0.4,2.5-1,3.7-1.5c0.9-0.4,1.8-0.9,2.7-1.4c0.4-0.2,0.7-0.5,1.1-0.7
		c0.1,0,0.1,0,0.2-0.1c0.6-0.4,1.1-0.7,1.7-1.1c0.3-0.2,0.5-0.4,0.7-0.6c0.2-0.1,0.4-0.3,0.7-0.4C66.9,79.1,66.9,79.1,67,79.2z"/>
	<path class="st3" d="M34,86.2c-0.6-0.1-1.1-0.2-1.7-0.4c-1.4-0.4-2.8-0.9-4.2-1.4c-2.1-0.8-4.2-1.8-6.1-3c-0.1,0-0.1-0.1-0.2-0.2
		c-0.6-0.4-1.2-0.8-1.8-1.3c-1.6-1.1-3.1-2.3-4.5-3.6c-0.8-0.7-1.5-1.5-2.2-2.3c-0.1-0.1-0.3-0.3-0.5-0.4c-0.7-0.8-1.4-1.6-2-2.5
		c-0.4-0.5-0.7-1-1-1.5c0.2,0.2,0.3,0.4,0.5,0.5c0.2,0.3,0.4,0.5,0.6,0.8c0.1,0.1,0.2,0.1,0.3,0.2c0.2,0.3,0.4,0.5,0.6,0.8
		c0.2,0.3,0.5,0.6,0.7,0.9c0.4,0.4,0.8,0.8,1.1,1.2c0.1,0.1,0.1,0.2,0.2,0.3c0.9,0.8,1.7,1.7,2.6,2.5c0,0,0.1,0.1,0.2,0.1
		c0.1,0.1,0.1,0.2,0.2,0.2c0.8,0.7,1.6,1.3,2.4,2c0.4,0.3,0.8,0.5,1.2,0.8c0.2,0.1,0.4,0.3,0.5,0.4c0.3,0.2,0.6,0.3,0.9,0.5
		c0.5,0.3,1.1,0.6,1.6,1c0.1,0.1,0.1,0.1,0.2,0.2c0.7,0.4,1.4,0.7,2.2,1.1c0.1,0,0.1,0,0.2,0c0.2,0.1,0.5,0.2,0.7,0.3
		c0.1,0.1,0.3,0.2,0.4,0.3c0.9,0.4,1.8,0.7,2.7,1.1c0.3,0.1,0.6,0.1,0.9,0.2c0.2,0.1,0.4,0.1,0.6,0.2c0.1,0.1,0.1,0.1,0.2,0.2
		c0.4,0.1,0.7,0.2,1.1,0.3C33,85.8,33.5,86,34,86.2C34,86.1,34,86.1,34,86.2z"/>
	<path class="st4" d="M3.9,55.8c0.2,0.7,0.3,1.4,0.5,2.1c0.4,1.4,0.9,2.7,1.4,4.1c0.1,0.2,0.2,0.4,0.2,0.6c0.1,0.2,0.1,0.4,0.2,0.7
		C6.2,63.1,6.1,63,6,62.9c-0.4-0.9-0.8-1.9-1.1-2.8c-0.5-1.6-0.9-3.2-1.3-4.7c0-0.1,0-0.2,0-0.2c0,0.1,0.1,0.3,0.1,0.4
		C3.8,55.6,3.9,55.7,3.9,55.8z"/>
	<path class="st5" d="M67,79.2c0,0-0.1,0-0.1-0.1c0,0,0.1-0.1,0.1-0.1c1.2-1,2.4-2,3.5-3c0.7-0.6,1.4-1.4,2-2.1
		c0.2-0.2,0.2-0.4,0.4-0.6c0.1-0.1,0.2-0.3,0.4-0.4c0.1,0,0.2,0,0.2,0.1c-0.4,0.5-0.8,0.9-1.2,1.4c-0.6,0.7-1.3,1.4-2,2
		c-1,0.9-2,1.8-3.1,2.7C67.1,79.1,67.1,79.1,67,79.2z"/>
	<path class="st6" d="M6,62.9c0.1,0.1,0.2,0.2,0.3,0.4c0.4,0.9,0.9,1.8,1.3,2.6c0,0.1,0.1,0.1,0.2,0.2c0.3,0.6,0.6,1.2,1,1.7
		c0.3,0.6,0.7,1.1,1.1,1.7c0,0.1,0.1,0.2,0.1,0.3c0.1,0.2,0.2,0.4,0.3,0.5c-0.2-0.2-0.3-0.4-0.5-0.5c-0.5-0.8-1.1-1.6-1.5-2.4
		c-0.7-1.4-1.4-2.8-2.1-4.1C6,63.1,6,63,6,62.9z"/>
	<path class="st7" d="M80.8,58.9c0.1-0.4,0.2-0.8,0.3-1.2c0.4-1.4,0.7-2.9,0.9-4.3c0-0.3,0.1-0.5,0.2-0.8c0,0,0.1-0.1,0.1-0.1
		c0.1-0.6,0.2-1.3,0.3-1.9c0-0.4,0.1-0.7,0.2-1.1c-0.1,1-0.2,2-0.3,3.1c0,0,0,0.1-0.1,0.1c-0.2,0.9-0.4,1.8-0.5,2.7
		c-0.1,0.4-0.2,0.9-0.2,1.3c-0.1,0.3-0.2,0.7-0.3,1c0,0.1,0,0.2,0,0.3c0,0.1-0.1,0.2-0.1,0.2c0,0.1-0.1,0.2-0.1,0.2
		C81,58.6,80.9,58.8,80.8,58.9z"/>
	<path class="st8" d="M12.8,73.7c0.2,0.1,0.3,0.3,0.5,0.4c0.7,0.8,1.5,1.6,2.2,2.3c1.4,1.3,2.9,2.5,4.5,3.6c0.6,0.4,1.2,0.8,1.8,1.3
		c0,0-0.1,0-0.1,0c-0.6-0.4-1.3-0.8-1.9-1.2c-1.8-1.3-3.6-2.7-5.1-4.3c-0.6-0.6-1.2-1.2-1.7-1.8C12.8,73.8,12.8,73.7,12.8,73.7z"/>
	<path class="st9" d="M73.4,73c-0.1,0-0.2,0-0.2-0.1c0.1-0.1,0.1-0.2,0.2-0.2c0.1-0.1,0.3-0.2,0.4-0.3c0.8-1.1,1.6-2.1,2.3-3.2
		c0.5-0.7,0.9-1.4,1.4-2.1c0,0,0,0,0.1,0c-0.5,0.8-0.9,1.6-1.5,2.4C75.3,70.6,74.4,71.8,73.4,73C73.5,73,73.5,73,73.4,73z"/>
	<path class="st10" d="M81.2,58.3c0-0.1,0.1-0.2,0.1-0.2c-0.1,0.4-0.2,0.8-0.3,1.2c-0.4,1.2-0.8,2.4-1.3,3.5c0,0.1-0.1,0.1-0.1,0.2
		c0,0-0.1,0-0.1,0c0,0,0-0.1,0-0.1c0.3-0.9,0.7-1.7,1-2.6C80.8,59.5,81,58.9,81.2,58.3z"/>
	<path class="st11" d="M79.6,62.9C79.6,62.9,79.6,62.9,79.6,62.9c-0.1,0.4-0.2,0.8-0.4,1.1c-0.5,1-1,1.9-1.5,2.9
		c0,0-0.1,0.1-0.1,0.1c0,0,0,0-0.1,0c0-0.1,0-0.1,0.1-0.2c0.6-1.1,1.1-2.2,1.7-3.3c0-0.1,0.1-0.2,0.1-0.3
		C79.4,63.1,79.5,63,79.6,62.9z"/>
	<path class="st12" d="M81.6,56.7c0.1-0.4,0.2-0.9,0.2-1.3c0.2-0.9,0.4-1.8,0.5-2.7c0,0,0-0.1,0.1-0.1c-0.1,0.8-0.2,1.6-0.4,2.4
		c-0.1,0.5-0.2,1-0.3,1.4C81.7,56.6,81.6,56.7,81.6,56.7z"/>
	<path class="st13" d="M3.9,55.8c-0.1-0.1-0.1-0.2-0.2-0.3c-0.1-0.1-0.1-0.3-0.1-0.4c-0.1-0.6-0.2-1.3-0.4-1.9
		c-0.1-0.3-0.1-0.7-0.1-1c0.1,0.3,0.2,0.6,0.2,0.9c0.1,0.6,0.2,1.3,0.4,1.9C3.8,55.3,3.9,55.5,3.9,55.8z"/>
	<path class="st14" d="M82.7,49.6c-0.1,0.4-0.1,0.7-0.2,1.1c-0.1,0.6-0.2,1.3-0.3,1.9c0,0,0,0.1-0.1,0.1c0.1-0.9,0.2-1.8,0.3-2.7
		c0-0.2,0-0.4,0-0.6c0-0.2,0-0.3,0.1-0.5c0-0.1,0.1-0.1,0.1-0.1C82.7,49,82.7,49.3,82.7,49.6z"/>
	<path class="st15" d="M3.4,53.1c-0.1-0.3-0.2-0.6-0.2-0.9c-0.1-0.5-0.1-1-0.2-1.6c0-0.2,0-0.5-0.1-0.7c0-0.1,0-0.2,0-0.3
		c0,0.3,0.1,0.6,0.1,0.9c0.1,0.8,0.2,1.6,0.3,2.4C3.4,52.9,3.4,53,3.4,53.1z"/>
	<path class="st16" d="M82.8,48.7c0,0-0.1,0.1-0.1,0.1c0,0.2-0.1,0.3-0.1,0.5c0-0.7,0.1-1.5,0.1-2.2c0-0.1,0-0.2,0.1-0.3
		c0,0,0.1,0.1,0.1,0.1C82.8,47.5,82.8,48.1,82.8,48.7z"/>
	<path d="M73.6,38.4c0.6,0.5,0.6,1.4-0.1,2.1c-0.7,0.7-1.5,1.2-2.4,1.4c0,0-0.1,0-0.1,0.1c0.2,0.1,0.4,0.2,0.5,0.3
		c0.2,0.1,0.4,0.3,0.5,0.6c0,0.1,0.2,0.3,0.2,0.4c0.5,0.8,0.4,1.5-0.3,2.1c-0.5,0.4-1.1,0.5-1.6,0.4c-0.3,0-0.4,0-0.5,0.3
		c-0.1,0.2-0.2,0.5-0.4,0.7c-0.2,0.2-0.1,0.3,0,0.5c0.5,0.5,1,1,1.4,1.6c0.2,0.3,0.4,0.6,0.6,0.9c0.1,0.1,0.1,0.2,0.2,0.3
		c0.3,0.3,0.3,0.6,0.1,1c-0.1,0.1-0.1,0.3-0.1,0.4c-0.1,0.3-0.3,0.5-0.6,0.5c-0.2,0-0.4,0.1-0.5,0.3c-0.2,0.2-0.5,0.4-0.8,0.5
		c-0.2,0-0.3,0.1-0.5,0.2c-0.2,0-0.4,0.1-0.5,0.1c-0.2,0-0.4,0-0.6,0.1c-0.2,0.1-0.4,0-0.5-0.2c-0.2-0.6-0.8-1-1.2-1.5
		c-0.5-0.7-1-1.4-1.5-2.1c0-0.1-0.1-0.1-0.1-0.2c-0.2,0.3-0.3,0.6-0.5,0.8c-0.5,0.9-1.1,1.7-1.9,2.4c-0.5,0.5-1.1,0.9-1.7,1.4
		c-0.2,0.1-0.2,0.2-0.2,0.4c0.1,0.5,0.4,0.8,0.7,1.2c0.5,0.6,1,1.1,1.5,1.6c0.7,0.8,1.4,1.6,1.7,2.6c0.3,1.2,0.6,2.5,0.9,3.7
		c0.2,1.2,0.4,2.4,0.6,3.6c0.2,1.3,0.2,2.5-0.3,3.8c-0.2,0.6-0.6,1-1.1,1.2c-1.3,0.6-2.5,1.2-3.8,1.7c-2.4,0.9-5,1.4-7.5,2
		c-0.4,0.1-0.8,0.2-1.2,0.3c-0.2,0-0.4,0-0.6,0c-1.3,0.1-2.6,0.3-3.9,0.4c-1.5,0.1-3.1,0.2-4.6,0.2c-1.2,0-2.4,0.1-3.6,0
		c-1.1,0-2.3,0-3.4-0.1c-2.4-0.2-4.8-0.4-7.2-0.9c-2-0.4-4-0.8-5.9-1.5c-1-0.4-2-0.7-3-1.1c-1.4-0.6-2.7-1.3-3.9-2.2
		c-0.9-0.6-1.1-1.5-1-2.5c0.1-0.7,0.1-1.4,0.2-2.1c0.1-1.2,0.3-2.5,0.4-3.7c0.2-1.2,0.4-2.5,0.7-3.7c0.2-0.9,0.5-1.8,1.2-2.5
		c0.4-0.5,1-0.7,1.5-0.9c0.3-0.1,0.7-0.2,1-0.3c0.2,0,0.3-0.1,0.2-0.3c0-0.1,0-0.2,0-0.3c0.2-0.5,0.4-1.1,0.8-1.5
		c0.1-0.1,0.1-0.2,0-0.3c-0.8-0.9-1-2.1-1.1-3.3c-0.1-0.9-0.1-1.8-0.1-2.7c0-0.5,0-0.5-0.4-0.4c-0.9,0.1-1.7-0.3-2.4-0.8
		c-0.9-0.7-1.4-1.6-1.5-2.7c-0.2-1.1-0.1-2.3,0.2-3.4c0.3-0.8,0.7-1.5,1.4-2.1c0.1-0.1,0.1-0.1,0.1-0.2c0.1-0.5,0.4-0.8,0.8-1.1
		c0.4-0.3,0.5-0.6,0.4-1.1c-0.5-1.3,0-2.4,0.9-3.4c0.6-0.7,1.2-1.2,2-1.6c0.1-0.1,0.3-0.2,0.3-0.3c0.5-1.1,1.3-2,2.2-2.8
		c0.7-0.7,1.3-1.4,1.6-2.3c0.1-0.4,0.2-0.8,0.4-1.2c0.6-1.3,1.4-2.6,2.4-3.7c1.2-1.4,2.6-2.4,4.2-3.2c1.1-0.6,2.4-1,3.7-1
		c1,0,2.1,0,3.1,0c0.6,0,1.3-0.1,1.9-0.1c0.9,0,1.7,0,2.6,0c1.3,0,2.6,0.4,3.9,0.7c0.8,0.2,1.6,0.3,2.4,0.4c0.5,0.1,1.1,0,1.7,0
		c0.9-0.1,1.7-0.2,2.6-0.2c1.2-0.1,2.5,0.1,3.7,0.4c1.1,0.3,2.2,0.7,3,1.5c0.5,0.5,0.9,1.2,1.2,1.9c0.1,0.3,0.3,0.5,0.4,0.8
		c0,0,0.1,0.1,0.1,0.1c0.1,0.4,0.5,0.5,0.8,0.6c1,0.5,1.9,1.2,2.5,2.1c0.5,0.7,0.7,1.6,0.8,2.4c0,0.2,0,0.4,0.1,0.5
		c0,0.1,0.2,0.2,0.2,0.2c0.5,0.1,1.1,0.3,1.6,0.4c0.7,0.2,1.3,0.6,1.9,1c1,0.7,1.8,1.7,2.6,2.6c0.1,0.2,0.3,0.2,0.5,0.3
		c0.7,0.4,1.1,1,1.3,1.8c0,0.2,0,0.4-0.1,0.5c0,0.1-0.1,0.2,0,0.2c0.7,1.1,0.6,2.3,0.1,3.4C74.2,37.4,73.9,37.8,73.6,38.4z
		 M38.1,56.3L38.1,56.3c0.2,0,0.3,0.1,0.5,0.1c0.6,0,1.2-0.1,1.8-0.1c0.5-0.1,1-0.1,1.5-0.2c0.3,0,0.6-0.1,0.9-0.1
		c0.2,0,0.4,0,0.6-0.1c0.7-0.1,1.3-0.2,2-0.3c0.5,0,0.9-0.1,1.4-0.1c1.4-0.1,2.7-0.2,4.1-0.2c1.6-0.1,3.2-0.2,4.8-0.5
		c1.7-0.3,3.4-0.9,4.9-1.8c1.7-1,2.9-2.5,3.9-4.2c0.2-0.3,0-0.7-0.4-0.8c-0.8,0-1.7-0.1-2.5-0.1c-1.5-0.1-3-0.1-4.5,0.1
		c-2.1,0.3-4.2,0.6-6.3,0.9c-1.1,0.2-2.1,0.3-3.2,0.5c-0.2,0-0.4,0-0.7,0.1c-0.5,0-1.1,0.1-1.6,0.1c-1.4,0-2.8,0-4.2,0
		c-0.9,0-1.5-0.5-1.9-1.4c-0.4-0.9-0.2-2.2,0.5-2.8c-0.1-0.1-0.1-0.2-0.2-0.3c-0.2-0.3-0.2-0.6,0.1-0.8c0.2-0.2,0.5-0.3,0.7-0.4
		c0.7-0.3,1.3-0.7,2-1c0.5-0.3,1-0.6,1.5-0.8c0.6-0.1,1.2-0.1,1.9-0.2c0.3,0,0.6-0.1,1-0.1c0.1,0,0.3,0,0.4,0
		c0.6-0.1,1.1-0.3,1.7-0.4c0.9-0.3,1.9-0.4,2.9-0.5c0.8,0,1.5-0.2,2.2-0.6c0.2-0.1,0.4-0.2,0.6-0.1c0.6,0,1.1,0.1,1.7,0.2
		c0.1,0,0.2,0,0.4,0c0,0,0-0.1,0-0.1c-0.5-0.2-1-0.4-1.5-0.5c-0.8-0.3-1.6-0.5-2.3-0.8c-0.2-0.1-0.3-0.1-0.5,0.1
		c-0.9,0.9-1.9,1.7-3.1,2c-0.8,0.2-1.7,0.4-2.5,0.5c-0.3,0.1-0.5,0.1-0.8,0.2c-0.1,0-0.2,0-0.3,0c-0.1,0-0.2-0.1-0.3-0.1
		c-0.4,0-0.9,0-1.3,0c-1.4-0.1-2.8-0.3-4.1-0.6c-1.6-0.4-3.1-1-4.5-1.8c-0.1-0.1-0.2-0.1-0.2-0.2c0.1,0,0.1,0,0.2,0
		c0.4,0.2,0.7,0.4,1.1,0.5c2.2,1,4.6,1.4,7,1.6c1.8,0.1,3.5-0.1,5.2-0.5c1-0.3,1.9-0.7,2.7-1.2c0.1-0.1,0.3-0.2,0.4-0.3
		c0,0,0-0.1,0.1-0.2c-0.1,0-0.1,0-0.2,0c-0.3,0.1-0.6,0.1-0.8,0.2c-1.8,0.2-3.7,0.3-5.5,0.2C43,38.9,41,38.3,39,37.3
		c-2.2-1.1-4.1-2.5-6.2-3.8c-0.1-0.1-0.3-0.1-0.4-0.1c-0.2,0-0.3-0.1-0.2-0.2c0-0.1,0.1-0.2,0.2-0.3c0.4-0.4,1-0.7,1.6-0.9
		c1.1-0.3,2.2-0.5,3.3-0.8c1.9-0.5,3.7-0.8,5.7-0.8c1.9,0,3.9,0.2,5.8,0.6c1.7,0.4,3.4,0.7,4.9,1.7c0-0.3-0.1-0.6-0.2-0.8
		c-0.4-0.8-0.9-1.5-1.6-2.1c-1.4-1.3-3.1-2-5.1-2.2c-1.7-0.1-3.4-0.3-5-0.5c-1.8-0.2-3.5-0.1-5.3,0.2c-0.7,0.1-1.4,0.3-2.1,0.4
		c-0.1,0-0.2,0-0.3-0.1c0.1-0.1,0.1-0.2,0.2-0.2c0.4-0.1,0.7-0.3,1.1-0.4c0.1,0,0.2,0,0.3-0.1c1.5-0.3,2.9-0.4,4.4-0.4
		c0.3,0,0.7,0,1,0c0.6,0.1,1.2,0.1,1.8,0.2c1,0.1,2.1,0.2,3.1,0.2c1.3,0.1,2.5,0.2,3.7,0.8c0.2,0.1,0.3,0,0.3-0.2
		c0-0.3-0.1-0.6-0.2-0.9c-0.3-1-0.9-1.9-1.6-2.6c-0.5-0.5-1.1-0.9-1.7-1.4c0.3,0.1,0.5,0.1,0.8,0.2c0.2,0.1,0.4,0.3,0.6,0.5
		c1.3,1.2,2.3,2.7,2.4,4.6c0,0.2,0.1,0.3,0.3,0.1c0.8-0.6,1.8-0.9,2.8-0.9c1.1,0,2.3,0,3.4-0.1c1.5-0.1,3.1-0.3,4.6-0.5
		c1.4-0.2,2.7-0.4,4.1-0.3c0.2,0,0.4,0,0.7,0c0-0.2-0.1-0.4-0.1-0.6c-0.2-0.9-0.5-1.8-1.1-2.5c-0.9-1.1-2.3-1.6-3.5-2.3
		c-0.2-0.1-0.5-0.1-0.7-0.1c-0.1,0-0.2,0-0.4-0.1c-0.6-0.1-1.2-0.2-1.8-0.3c-0.1,0-0.3,0-0.4,0c-0.3,0-0.7,0.1-1,0.1
		c0,0-0.1-0.1-0.1-0.1c-0.2,0-0.3,0-0.5,0c-0.7,0.1-1.4,0.2-2.1,0.4c-0.3,0-0.6,0.1-0.9,0c-0.6-0.1-1.2-0.2-1.8,0
		c-0.3,0.1-0.6,0.2-0.9,0.4c-0.4,0.2-0.7,0.4-1.1,0.5c-0.7,0.3-1.5,0.5-2.2,0.1c-0.7-0.3-1.3-0.3-1.9,0.1c-0.1,0-0.2,0.1-0.3,0.1
		c-0.7,0.3-1.5,0.5-2.3,0.3c-0.4-0.1-0.8-0.2-1.1-0.3c-0.3-0.1-0.6-0.1-0.9,0c-0.4,0.2-0.9,0.5-1.3,0.7c-0.9,0.5-1.9,1-2.9,1.4
		c-0.4,0.2-0.9,0.2-1.3,0.3c-0.1,0-0.2,0-0.4,0c-1.5,0.2-2.9-0.1-3.9-1.4c-0.3,0.5-0.6,1-0.9,1.5c-0.1,0.2-0.3,0.5-0.3,0.8
		c-0.1,0.4-0.3,0.8-0.6,1c-0.3,0.3-0.7,0.6-1,0.9c-0.5,0.5-0.7,1.1-0.7,1.8c0,0.8,0.2,1.5,0.4,2.3c0.1,0.6,0.3,1.3,0.3,1.9
		c0,0.7-0.5,1.2-1.1,1.3c-0.1,0-0.2,0-0.3,0.1c-0.5,0.3-1,0.3-1.5,0.1c-0.8-0.3-1.4-0.1-1.9,0.5c-0.4,0.4-0.7,0.9-1,1.4
		c-0.3,0.5-0.3,1-0.4,1.5c-0.2,0.9-0.1,1.8,0.3,2.6c0.1,0.1,0.1,0.2,0,0.3c-0.1,0-0.2-0.1-0.3-0.1c-0.1-0.2-0.2-0.5-0.4-0.8
		c-0.2,0.5-0.4,0.9-0.6,1.4c-0.5,1.4-1,2.8-1.2,4.2c-0.2,1.6,0,3.1,0.3,4.6c0.1,0.6,0.4,1.2,0.9,1.6c0.9,0.7,1.9,1.2,3.1,1.4
		c0.1,0,0.1,0.1,0.2,0.1c0.6,0.1,1.2,0.2,1.8,0.4c1.6,0.4,3.1,0.8,4.7,1.2c0.5,0.1,0.9,0.2,1.4,0.2c0.3,0,0.6,0.1,0.9,0.2
		c0.3,0.1,0.7,0.1,1,0.2c0.6,0.1,1.1,0.2,1.7,0.3C36.9,56.4,37.5,56.3,38.1,56.3z M66.8,40.7c-0.4,0-0.9,0.1-1.3,0.1
		C64,41,62.5,41,61.1,40.9c-0.4,0-0.8,0-1.2-0.1c-0.3-0.1-0.6-0.1-0.9-0.2c0,0.1,0,0.1,0.1,0.1c0.1,0,0.1,0,0.2,0.1
		c1.6,0.4,3.3,0.4,4.9,0.3c1.4-0.1,2.8-0.1,4.2-0.2c0.2,0,0.5,0,0.7,0c0.3,0.1,0.8,0.1,1,0.3c0.4,0.3,0.7,0.3,1.1,0.1
		c0,0,0.1,0,0.1,0c1-0.3,1.7-0.9,2.2-1.8c0.1-0.2,0.2-0.4,0.2-0.6c0-0.2-0.1-0.3-0.3-0.3c-0.1,0-0.3,0.1-0.4,0.1
		c-0.1,0.1-0.3,0.2-0.4,0.3c-1.3,0.6-2.7,1-4.1,1.2c-0.4,0.1-0.9,0.2-1.3,0.3C67.1,40.7,66.9,40.7,66.8,40.7z M70.9,51.1
		c0.1-0.1,0.1-0.2,0.2-0.2c0.3-0.4,0.1-0.9-0.4-0.9c-0.1,0-0.2,0-0.3-0.1c-0.2,0-0.4-0.1-0.6-0.1c-0.2,0-0.4,0-0.5,0
		c-0.2,0-0.3,0-0.4,0.2c-0.2,0.2-0.4,0.5-0.6,0.7l0,0l0,0c-0.4,0.1-0.6,0.4-0.5,0.7c0,0.2,0,0.4-0.2,0.6c0,0.1,0,0.2,0,0.3
		c0.1,0.1,0.2,0.2,0.4,0.2c0.4,0,0.7-0.1,1.1-0.2c0.4-0.2,0.7-0.3,1.1-0.5c0.2-0.1,0.4-0.3,0.6-0.4C70.8,51.4,70.8,51.2,70.9,51.1z
		 M44.1,58.6c0.2,0.1,0.5,0.2,0.7,0.4c0.1,0.1,0.2,0.2,0.3,0.3c1.4,1.1,2.8,2.3,4.2,3.4c0.5,0.4,0.9,0.8,1.4,1.2
		c0-0.1,0.1-0.2,0.1-0.2c0.4-1,0.7-1.9,1.2-2.9c0.4-0.9,0.8-1.7,1.2-2.5c0.2-0.5,0.5-0.8,1.1-0.8c0.6-0.1,1-0.3,1.5-0.7
		c0.7-0.5,1.3-1.1,1.9-1.8c-0.7,0.1-1.3,0.3-1.9,0.4c-2.3,0.4-4.7,0.4-7,0.6c-1.2,0.1-2.4,0.2-3.7,0.3c-1.5,0.2-3,0.4-4.5,0.6
		c-1.2,0.1-2.4,0.1-3.6,0.2c-0.4,0-0.9,0-1.3-0.1c-0.7-0.1-1.4-0.3-2.1-0.5c-1-0.2-2-0.4-2.9-0.6c-0.2,0-0.4-0.1-0.6-0.1
		c0,0,0,0.1,0,0.1c0.1,0,0.1,0.1,0.2,0.1c0.9,0.3,1.9,0.6,2.8,0.8c2.2,0.5,4.4,1,6.6,1.5C41,58.5,42.5,58.6,44.1,58.6z M43.9,30.9
		c-0.7,0-1.4,0-2.1,0c-0.9,0.1-1.8,0.2-2.6,0.4c-0.2,0-0.4,0.1-0.6,0.1c-1.3,0.3-2.7,0.7-4,1c-0.6,0.1-1.1,0.3-1.6,0.7
		c2.5,1.6,4.9,3.5,7.8,4.5c0-0.3,0-0.6,0-0.8c0.4-1.6,1.4-2.8,3-3.3c1.2-0.4,2.5-0.4,3.8-0.1c2,0.4,3.3,1.9,3.3,4
		c0,0.4,0,0.8-0.1,1.2c0.1,0,0.2,0,0.3,0c0.6-0.1,1.2-0.2,1.6-0.8c0.5-0.9,1-1.8,1.2-2.8c0.1-0.8-0.1-1.5-0.8-2
		c-0.1-0.1-0.3-0.2-0.4-0.2c-0.8-0.5-1.7-0.7-2.6-0.9c-1-0.2-2.1-0.4-3.1-0.6C45.9,31.1,44.9,31,43.9,30.9z M67.9,33.2
		c-0.3,0-0.5,0.1-0.8,0.1c-0.6,0.1-1.3,0.2-1.9,0.3c-2.2,0.4-4.3,0.8-6.5,0.9c-1,0.1-2.1,0.1-3.1-0.1c-0.4-0.1-0.8-0.2-1.2-0.2
		c-0.1,1.2-0.5,2.4-1.2,3.4c-0.1,0.2-0.3,0.4-0.4,0.6c0.2,0.1,0.4,0.2,0.6,0.3c1.4,0.7,2.8,1.2,4.3,1.5c1.1,0.2,2.1,0.3,3.2,0.4
		c0.5,0.1,1,0,1.6,0c0-0.3-0.1-0.5,0-0.8c0.2-0.7,0.3-1.5,0.7-2.1c1.1-2.5,4.1-3.7,6.6-2.6c1.4,0.6,2.3,1.5,2.4,3.1
		c0,0.3,0,0.6,0,0.9c0.3,0,0.5-0.3,0.8-0.5c0.6-0.5,1-1.1,1.3-1.9c0.3-1,0.4-2-0.2-3c-0.1-0.1-0.2-0.2-0.3-0.2c-1-0.2-2-0.4-3.1-0.3
		C69.7,33.1,68.8,33.2,67.9,33.2z M48.2,47.4c-0.5,0.1-0.9,0.2-1.4,0.2c-1,0-2.1-0.1-3.1-0.2c0,0,0,0,0,0c-0.5,0-0.9,0-1.4,0
		c-0.2,0-0.4-0.1-0.4-0.3c0-0.2,0.2-0.3,0.4-0.2c0.9,0.2,1.8,0.3,2.8,0.3c0.7,0,1.5,0.1,2.2-0.1c1.1-0.2,2.2-0.5,3.3-0.8
		c0.7-0.2,1.5-0.4,2.2-0.6c0.3-0.1,0.6,0,0.9,0c1.4-0.1,2.7-0.3,4.1-0.2c0.7,0,1.4,0,2,0c1.3,0,2.6-0.2,3.8-0.8
		c1.1-0.5,2.2-0.4,3.3,0.1c0.1,0,0.2,0.1,0.3,0.1c0.8,0.1,1.5,0.2,2.3,0.3c0.6,0.1,1.1,0.2,1.7,0c0.5-0.2,0.7-0.6,0.6-1.1
		c-0.1-0.2-0.1-0.4-0.2-0.6c0-0.1-0.1-0.1-0.2-0.1c-0.5,0.1-1,0-1.5,0c-0.5-0.1-0.9,0-1.3,0.2c-0.5,0.3-1.1,0.3-1.6,0.1
		c-0.6-0.2-1.3-0.2-1.9,0c-0.3,0.1-0.5,0.1-0.8,0c-0.5-0.2-1-0.2-1.5-0.2c-0.6,0.1-1.1,0.1-1.7,0.1c-0.4,0-0.8-0.1-1.2,0
		c-1.1,0.2-2.2,0.2-3.3-0.3c-0.4-0.2-0.4-0.1-0.7,0.2c-0.2,0.3-0.5,0.4-0.8,0.3c-0.3-0.2-0.7-0.1-1,0c-0.3,0.1-0.6,0.1-0.9-0.1
		c-0.1-0.1-0.2-0.1-0.3-0.2c-0.2-0.1-0.2-0.1-0.3,0.1c0,0.2-0.1,0.4-0.2,0.6c-0.1,0.3-0.3,0.3-0.6,0.2c-0.2-0.1-0.3-0.1-0.5-0.2
		c-0.4,0-0.9,0.1-1.2,0.4c-0.7,0.4-1.4,0.5-2.1,0.4c-0.4-0.1-0.8-0.1-1.2,0.1c-0.4,0.1-0.6,0-0.7-0.4c0-0.1,0-0.2-0.1-0.3
		c-0.3,0.2-0.6,0.4-0.9,0.6c-0.3,0.3-0.7,0.3-1.1,0.2c-0.2-0.1-0.5,0-0.8,0c-0.4,0.1-0.7,0.3-1.1,0.4c-0.6,0.2-1.3,0.4-1.9,0.2
		c-0.1,0-0.2,0-0.2,0.1c-0.5,0.6-0.6,1.6-0.3,2.3c0.3,0.6,0.9,0.9,1.5,0.9c1,0.1,2.1,0.1,3.1,0c1.5-0.1,3-0.2,4.4-0.4
		c2.6-0.3,5.2-0.8,7.8-1.1c1.8-0.2,3.6-0.3,5.4-0.1c0.6,0,1.2,0.1,1.8,0.1c-0.4-0.7-0.8-1.3-0.9-2c-0.7,0.1-1.5,0.2-2.2,0.3
		c-0.5,0-1.1,0-1.6,0.1c-1.1,0-2.3,0-3.4,0.1c-1,0-2,0.1-3.1,0.1c-0.1,0-0.3,0.1-0.4,0.1c-0.2,0.1-0.4,0.2-0.7,0.2
		C50.5,46.8,49.4,47.1,48.2,47.4z M20.1,44c0-0.1,0.1-0.3,0.1-0.4c0.3-0.8,0.6-1.6,0.9-2.3c0.3-0.7,0.7-1.5,0.7-2.3
		c0-1.3,0.5-2.4,1.3-3.3c0.5-0.6,1.2-1.2,2.1-1c0.4,0.1,0.9,0,1.3,0.3c0,0,0.1,0,0.1,0c0.4-0.1,0.7-0.3,0.7-0.8
		c0-0.2,0.1-0.4,0.1-0.7c0.3,0.3,0.2,0.7,0.2,1c0.1-0.1,0.2-0.2,0.3-0.2c0.3-0.3,0.3-0.7,0.2-1.1c-0.1-0.5-0.3-1-0.4-1.5
		c-0.1-0.6-0.3-1.3-0.4-1.9c-0.1-0.8,0.2-1.4,0.7-2c0.3-0.3,0.7-0.6,1-0.9c0.4-0.3,0.7-0.6,0.7-1.2c0-0.4,0.2-0.7,0.4-1
		c0.4-0.5,0.7-1.1,1-1.6c0.2-0.4,0.4-0.8,0.1-1.3c-0.1-0.2-0.2-0.5-0.2-0.8c0-0.1,0-0.3,0.1-0.4c0.1,0.3,0.1,0.6,0.2,0.8
		c0.2,0.6,0.6,1.1,1.2,1.2c0.5,0.1,1,0.1,1.4,0c0.4,0,0.8-0.1,1.2-0.2c0.1,0,0.2,0.1,0.3,0.1c-0.1,0.1-0.1,0.1-0.2,0.2
		c-0.1,0.1-0.3,0.1-0.4,0.1c-1.1,0.3-2.1,0.5-3.1-0.3c-0.1,0.4,0,0.8,0.4,1c0.6,0.4,1.2,0.6,2,0.7c1.2,0.1,2.2-0.2,3.3-0.7
		c0.9-0.4,1.8-0.8,2.7-1.3c0.8-0.4,1.6-0.6,2.5-0.2c0.8,0.3,1.7,0.2,2.5-0.1c0.8-0.3,1.6-0.5,2.4-0.2c0.4,0.2,0.9,0.1,1.4,0
		c0.6-0.2,1.2-0.5,1.8-0.7c0.7-0.3,1.5-0.4,2.3-0.4c0.5,0,1,0,1.5,0c0.8-0.1,1.6-0.2,2.4-0.3c0.9-0.1,1.8,0.1,2.7-0.2
		c0.1,0,0.2,0,0.4,0c0,0,0,0.1,0,0.1c-0.1,0.1-0.3,0.2-0.5,0.3c0.8,0.2,1.4,0.3,2.1,0.2c-0.2-0.4-0.5-0.9-0.6-1.3
		c-0.5-1.2-1.5-1.9-2.7-2.3c-1.1-0.4-2.2-0.6-3.4-0.7c-1.2-0.1-2.3,0-3.5,0.1c-0.5,0.1-0.9,0.2-1.4,0.1c-1.2-0.2-2.4-0.4-3.6-0.6
		c-1.7-0.4-3.3-0.6-5-0.6c-0.8,0-1.6,0.1-2.4,0.1c-0.9,0-1.9-0.1-2.8,0c-0.6,0-1.2,0.1-1.8,0.2c-2.1,0.5-3.9,1.6-5.6,3.1
		c-1.1,1-2,2.2-2.7,3.4c-0.3,0.5-0.5,1-0.7,1.5c-0.4,1.4-1.2,2.5-2.2,3.4c-0.8,0.7-1.4,1.4-1.8,2.4c-0.1,0.2-0.3,0.4-0.5,0.5
		c-0.7,0.3-1.4,0.8-1.9,1.4c-0.8,0.9-1,1.9-0.8,3.1c0.1,0.6,0.1,1.1-0.4,1.6c-0.1,0.1-0.3,0.3-0.3,0.4c-0.1,0.5-0.4,0.8-0.8,1.1
		c-0.5,0.4-0.8,1-1,1.6c-0.3,1.1-0.3,2.3,0,3.5c0.1,0.6,0.4,1.2,0.8,1.7c0.7,0.8,1.6,1.1,2.6,1.2c0.3,0,0.4-0.1,0.4-0.3
		C19.9,44.8,20,44.4,20.1,44z M43.1,75.6c0.6,0,1.2,0,1.9,0c2.1-0.1,4.2-0.3,6.3-0.6c0.2,0,0.3-0.1,0.3-0.3c0.1-0.7,0.2-1.3,0.2-2
		c0-1.4-0.1-2.8-0.2-4.2c0-0.4-0.1-0.9-0.2-1.3c-0.2-0.8-0.4-1.5-0.7-2.3c0-0.1-0.1-0.2-0.2-0.3c-0.1-0.1-0.2-0.1-0.2-0.2
		c-1.8-1.7-3.7-3.4-5.5-5.1c-0.1-0.1-0.2-0.2-0.3,0c-0.9,1-1.9,1.9-2.8,3c-0.8,0.9-1.5,1.8-2.2,2.7c-0.3,0.4-0.7,0.5-1.2,0.4
		c-1.5-0.3-2.9-0.8-4.2-1.3c-2-0.8-3.9-2-5.6-3.3c-2.3-1.6-4.5-3.3-6.8-5c-0.3-0.3-0.7-0.6-1.1-0.6c-0.4,0-0.8,0.2-1.2,0.4
		c-1.3,0.5-2.1,1.5-2.5,2.9c-0.1,0.4-0.2,0.9-0.3,1.3c-0.3,1.9-0.7,3.8-0.9,5.8c-0.1,1.1,0,2.2,0,3.3c0,0.5,0.2,0.9,0.6,1.2
		c0.7,0.5,1.3,1,2.1,1.4c2.1,1.2,4.3,2,6.6,2.6c0.2,0.1,0.2,0,0.2-0.2c0-0.7,0.1-1.5,0.1-2.2c0-1.2,0-2.5-0.1-3.7
		c0-0.9-0.1-1.8-0.4-2.7c0-0.1,0.1-0.2,0.1-0.4c0.1,0,0.3,0.1,0.4,0.2c0.1,0.2,0.2,0.4,0.2,0.7c0.1,0.4,0.1,0.8,0.2,1.2
		c0.1-0.1,0.1-0.2,0.2-0.4c0.1-0.2,0.1-0.4,0.2-0.6c0.1-0.1,0.2-0.2,0.4-0.2c0.1,0,0.2,0.2,0.2,0.3c0,0.1,0,0.2-0.1,0.3
		c-0.2,0.5-0.3,1.1-0.5,1.6c-0.2,0.6-0.3,1.3-0.2,2c0.2,1.3,0.2,2.7,0.1,4c0,0.3,0,0.4,0.3,0.4c1.6,0.3,3.2,0.6,4.9,0.9
		c0.6,0.1,1.2,0.1,1.9,0.2c0.2,0,0.3,0.1,0.5,0.1c1.1,0.1,2.3,0.2,3.4,0.2c0.6,0,1.2,0,1.8,0c0.1,0,0.2,0,0.3,0c1.4,0,2.8,0,4.2,0
		C42.9,75.6,43,75.6,43.1,75.6z M60.6,55.2c-0.1,1.2-0.2,2.4-0.4,3.7c-0.1,1.1-0.3,2.2-0.4,3.3c0,0.4-0.1,0.7-0.2,1.1
		c0,0.1-0.2,0.3-0.3,0.3c-0.1,0-0.3-0.1-0.4-0.2c-0.3-0.3-0.5-0.7-0.8-1c-1.2-1.5-2.5-2.8-4-3.9c-0.3-0.2-0.3-0.2-0.5,0.1
		c-0.9,1.8-1.8,3.6-2.7,5.4c-0.1,0.2-0.2,0.6-0.1,0.8c0.2,0.6,0.5,1.3,0.8,1.9c0.2,0.4,0.3,0.9,0.3,1.4c0.1,1.8,0.2,3.7,0.2,5.5
		c0,0.4,0,0.8,0,1.2c1.4-0.3,2.7-0.6,4-0.9c2.1-0.5,4.2-1.1,6.2-2c0.4-0.2,0.4-0.2,0.4-0.6c-0.2-1.7-0.4-3.5-0.6-5.2
		c-0.1-0.8-0.2-1.7,0.1-2.5c0-0.1,0.1-0.2,0.2-0.3c0,0.1,0.1,0.2,0.1,0.4c0,0.5,0,1,0,1.4c0.2,1.4,0.3,2.9,0.5,4.3
		c0.1,0.7,0.3,1.4,0.4,2c0.8-0.3,1.3-0.7,1.4-1.5c0.2-1.1,0.3-2.2,0.2-3.3c-0.1-0.8-0.2-1.5-0.3-2.3c-0.1-0.5-0.1-1.1-0.3-1.6
		c-0.3-1.1-0.6-2.1-0.9-3.2c-0.2-0.7-0.6-1.3-1-1.8c-0.5-0.6-1-1.2-1.5-1.8C61,55.6,60.8,55.4,60.6,55.2z M43.6,59
		c-0.1,0-0.2,0-0.2,0c-1.1-0.1-2.2-0.1-3.2-0.2c-2.6-0.3-5.1-0.9-7.6-1.6c-2.5-0.7-5-1.6-7.5-2.5c-1.2-0.4-2.4-0.9-3.4-1.6
		c-0.2-0.2-0.3-0.1-0.4,0.1c-0.1,0.3-0.3,0.6-0.4,1c-0.1,0.2-0.1,0.3,0.1,0.4c2.2,1.6,4.4,3.3,6.6,4.9c2.2,1.6,4.4,3,6.9,4
		c1.3,0.5,2.5,1,3.9,1.3c0.3,0.1,0.5,0,0.7-0.2c0.3-0.3,0.6-0.7,0.9-1C41,62,42.3,60.5,43.6,59z M50.6,28.4c0.8,0.5,1.5,1.2,2.1,1.9
		c0.7,0.8,1.3,1.7,1.3,2.9c0,0.2,0.1,0.2,0.2,0.1c0.1-0.1,0.3-0.2,0.4-0.2c1.4-0.5,2.8-1,4.2-1.4c2-0.5,4-1,6-1.3
		c1.3-0.2,2.6-0.3,3.9-0.4c1.1-0.1,2.1-0.1,3.3,0.3c-0.1-0.1-0.1-0.2-0.2-0.3c-0.2-0.2-0.4-0.5-0.6-0.7c-1.5-1.7-3.4-2.5-5.6-2.5
		c-1.7,0-3.3,0.2-5,0.4c-1.6,0.2-3.1,0.4-4.7,0.4c-1.1,0-2.1,0-3.2,0.1C52,27.7,51.2,27.9,50.6,28.4z M71.3,42.9c0,0,0-0.1,0-0.1
		c-0.1-0.1-0.2-0.1-0.3-0.2c-0.3-0.2-0.7-0.4-1-0.7c-0.3-0.3-0.6-0.5-1.1-0.5c-1.6,0.1-3.2,0.1-4.7,0.2c-1.1,0-2.2,0-3.3,0
		c-0.4,0-0.8-0.1-1.2-0.2c-1.2-0.2-2.3-0.5-3.4-0.7c-0.8-0.2-1.6-0.3-2.4-0.1c-1,0.3-2,0.4-3,0.6c-0.6,0.1-1.3,0.2-1.9,0.4
		c-1.3,0.4-2.7,0.7-4,0.7c-0.8,0-1.6,0.2-2.2,0.7c-0.6,0.4-1.2,0.8-1.8,1.1c-0.3,0.2-0.6,0.2-0.8,0.4c-0.1,0.1-0.2,0.2-0.2,0.3
		c0,0.1,0.1,0.2,0.2,0.3c0.4,0.2,0.8,0.3,1.2,0.2c0.6-0.1,1.1-0.3,1.7-0.5c0.4-0.1,0.7-0.2,1.1-0.2c0.4,0,0.8-0.1,1.1-0.3
		c0.2-0.1,0.3-0.2,0.5-0.3c0.4-0.3,0.6-0.2,0.8,0.2c0.1,0.2,0.2,0.3,0.4,0.2c0.3,0,0.7,0,1-0.1c0.4,0,0.8,0,1.2-0.1
		c0.5-0.1,1-0.4,1.5-0.5c0.4-0.1,0.8-0.1,1.2-0.1c0.2,0,0.3,0,0.4-0.2c0.3-0.6,0.4-0.7,1-0.4c0.1,0,0.1,0.1,0.2,0.1
		c0.2,0.1,0.5,0.2,0.7,0.1c0.3-0.1,0.7-0.1,1,0c0.2,0.1,0.4,0,0.5-0.2c0.2-0.3,0.5-0.4,0.8-0.3c0.2,0,0.4,0.1,0.6,0.1
		c0.8,0.2,1.6,0.3,2.4,0.2c0.4-0.1,0.9,0,1.4,0c0.5,0,1,0,1.5-0.1c0.7-0.1,1.5-0.1,2.2,0.1c0.1,0,0.3,0,0.4,0
		c0.6-0.1,1.2-0.2,1.8-0.1c0.5,0.1,1,0.2,1.5,0c0.7-0.3,1.5-0.2,2.2-0.2C70.7,42.9,71,42.9,71.3,42.9z M54.2,33.8
		c0.8,0.3,1.6,0.5,2.4,0.5c1.6,0.1,3.2-0.1,4.8-0.4c2.5-0.4,4.9-0.8,7.4-1.2c1.5-0.2,3-0.2,4.6,0.1c0.1,0,0.2,0,0.4,0
		c0.2,0,0.3-0.1,0.2-0.3c-0.2-0.6-0.5-1.1-1-1.4c-0.9-0.6-1.9-0.9-3.1-0.8c-0.5,0-1-0.1-1.4,0c-1.3,0.1-2.7,0.2-4,0.4
		c-1.5,0.2-3,0.6-4.5,0.9c-1.8,0.4-3.6,0.9-5.2,1.8C54.7,33.6,54.5,33.7,54.2,33.8z M54.5,58c1.8,1.4,3.2,2.9,4.6,4.6
		c0-0.1,0-0.1,0-0.1c0.3-2,0.6-4.1,0.8-6.1c0.1-0.7,0-1.4,0-2.1c-0.5,0.2-0.9,0.4-1.4,0.6c-0.2,0.1-0.4,0.2-0.6,0.4
		c-0.5,0.5-1,1-1.5,1.5c-0.4,0.4-0.9,0.8-1.5,1C54.9,57.8,54.7,57.9,54.5,58z M70.5,49.3c0,0,0-0.1,0-0.1c-0.5-0.6-0.9-1.2-1.4-1.7
		c0,0-0.1-0.1-0.2-0.1c-0.6-0.1-1.3-0.1-1.8,0.3c-0.5,0.3-1,0.7-1.5,1.1c-0.2,0.1-0.2,0.3-0.1,0.5c0.4,0.5,0.8,1.1,1.2,1.6
		c0.1,0.2,0.3,0.4,0.4,0.5c0.2-0.3,0.4-0.6,0.6-0.9c0.2-0.3,0.5-0.5,0.7-0.8c0.3-0.3,0.5-0.5,1-0.4c0.1,0,0.2,0,0.3,0
		C70,49.3,70.2,49.3,70.5,49.3z M67.2,45.7c-0.1-0.1-0.2-0.2-0.4-0.3c-0.3-0.2-0.5-0.4-0.8-0.5c-0.7-0.2-1.5-0.1-2.2,0.2
		c-0.4,0.2-0.4,0.3-0.3,0.6c0.2,0.6,0.5,1.1,0.8,1.6c0,0,0,0,0.1,0C65,46.3,65.9,45.7,67.2,45.7z M65.1,48.8c0.9-1,1.9-1.8,3.2-1.9
		c-0.1-0.1-0.2-0.2-0.2-0.3c-0.5-0.5-1.1-0.6-1.7-0.4c-0.8,0.2-1.4,0.8-1.8,1.5c0,0.1,0,0.2,0,0.2C64.8,48.2,65,48.4,65.1,48.8z
		 M47.9,38.2c0.6-0.1,0.9-0.3,0.9-0.7c0-0.4-0.3-0.6-0.6-0.6c-0.4,0-0.8,0.2-0.8,0.4C47.3,38,47.5,38.2,47.9,38.2z M69.6,45.8
		C69.6,45.8,69.6,45.7,69.6,45.8c-0.6-0.2-1.2-0.2-1.8-0.3c-0.1,0-0.1,0-0.2,0c0,0.1,0,0.1,0.1,0.2c0.3,0.3,0.7,0.6,1,0.9
		c0,0,0.2,0,0.2,0C69.2,46.3,69.4,46.1,69.6,45.8z M45.6,34.8c-0.1-0.1-0.3-0.3-0.5-0.5c-0.1,0-0.3,0.1-0.4,0.3
		c-0.1,0.1-0.2,0.3-0.2,0.5c-0.1,0.3,0.2,0.6,0.5,0.6C45.3,35.6,45.6,35.3,45.6,34.8z M70.3,37.8c-0.3,0-0.6,0.2-0.6,0.5
		c0,0.3,0.3,0.5,0.6,0.5c0.3,0,0.5-0.2,0.4-0.7C70.8,37.9,70.7,37.8,70.3,37.8z M67.3,36.4c0.1-0.2,0-0.4-0.2-0.5
		c-0.3-0.1-0.4,0.1-0.5,0.3c-0.1,0.1-0.1,0.2-0.2,0.3c-0.1,0.2-0.1,0.3,0.1,0.5c0.2,0.2,0.4,0.2,0.5,0
		C67.2,36.9,67.4,36.7,67.3,36.4z M64.1,39.1c-0.4,0-0.5,0.2-0.4,0.5c0.1,0.3,0.7,0.5,0.9,0.3c0.1-0.1,0.1-0.2,0.1-0.3
		C64.7,39.4,64.4,39.1,64.1,39.1z M43,37c-0.1,0-0.1,0-0.2,0c-0.1,0.1-0.2,0.1-0.3,0.2c0,0.1,0,0.2,0.1,0.3c0.1,0.1,0.3,0.2,0.4,0.3
		c0.1,0,0.3,0,0.4-0.1c0.1-0.1,0.1-0.3,0-0.4C43.4,37.1,43.3,36.9,43,37z"/>
	<path class="st17" d="M34,86.2C34,86.1,34,86.1,34,86.2c0.1,0,0.2,0,0.3,0c0.8,0.1,1.7,0.3,2.5,0.4c0.9,0.1,1.7,0.2,2.6,0.3
		c0.9,0.1,1.9,0.2,2.8,0.2c0.9,0,1.9,0,2.8-0.1c0,0,0.1,0,0.1,0c0.8-0.1,1.6-0.1,2.3-0.2c0.7-0.1,1.4-0.2,2.1-0.3
		c0.6-0.1,1.1-0.2,1.7-0.3c1.6-0.4,3.1-0.9,4.7-1.3c0.4-0.1,0.7-0.3,1-0.4c0.1,0,0.1-0.1,0.2-0.1c0.2-0.1,0.4-0.2,0.6-0.2
		c0,0,0.1,0,0.1-0.1l0,0c0,0,0.1,0,0.1-0.1l0,0c0.1,0,0.1,0,0.2-0.1c0,0,0,0,0,0c0,0,0.1,0,0.1-0.1l0,0c0,0,0.1,0,0.1-0.1
		c0,0,0,0,0.1,0c0,0,0.1,0,0.1-0.1c0,0,0,0,0,0c0,0,0.1,0,0.1-0.1c0.8-0.4,1.6-0.8,2.5-1.2c0.1,0,0.1-0.1,0.2-0.2
		c0.6-0.3,1.2-0.6,1.8-1c0.1-0.1,0.2-0.1,0.3-0.2c0,0,0.1,0,0.1,0.1c-0.4,0.2-0.7,0.5-1.1,0.7c-0.9,0.5-1.8,1-2.7,1.4
		c-1.2,0.5-2.4,1.1-3.7,1.5c-1.3,0.5-2.7,0.9-4,1.2c-1.2,0.3-2.5,0.5-3.8,0.7c-1,0.2-2.1,0.2-3.1,0.3c-0.5,0-1,0-1.5,0.1
		c-0.4,0-0.8,0.1-1.2,0.1c-0.9,0-1.8,0-2.6-0.1C37.8,86.9,35.9,86.6,34,86.2C34,86.2,34,86.2,34,86.2z"/>
	<path class="st18" d="M49.6,86.5c-0.7,0.1-1.4,0.2-2.1,0.3c-0.8,0.1-1.6,0.2-2.3,0.2c0,0-0.1,0-0.1,0c-0.9,0-1.9,0.1-2.8,0.1
		c-0.9,0-1.9-0.1-2.8-0.2c-0.9-0.1-1.8-0.2-2.6-0.3c-0.8-0.1-1.7-0.3-2.5-0.4c-0.1,0-0.2,0-0.3,0c-0.5-0.1-1-0.3-1.5-0.4
		c-0.4-0.1-0.7-0.2-1.1-0.3c-0.1,0-0.1-0.1-0.2-0.2c0.8,0.2,1.5,0.4,2.3,0.6c1.1,0.2,2.2,0.4,3.3,0.6c0.4,0.1,0.9,0.1,1.3,0.1
		c0,0,0.1,0,0.1,0.1c0.1,0,0.2,0.1,0.2,0.1c0.3,0,0.6,0,0.9,0.1c0.8,0.1,1.6,0.2,2.4,0.2c1,0,2,0,3-0.1c0.4,0,0.8,0,1.2-0.1
		c0.7-0.1,1.4-0.1,2-0.2c0.2,0,0.4-0.1,0.6-0.2c0.3,0,0.7-0.1,1-0.1C49.6,86.4,49.6,86.4,49.6,86.5z"/>
	<path class="st10" d="M79.4,63.2c0,0.1,0,0.2-0.1,0.3c-0.6,1.1-1.1,2.2-1.7,3.3c0,0.1,0,0.1-0.1,0.2c-0.5,0.7-0.9,1.4-1.4,2.1
		c-0.8,1.1-1.6,2.2-2.3,3.2c-0.1,0.1-0.3,0.2-0.4,0.3c0.2-0.3,0.4-0.6,0.6-0.9c0.3-0.5,0.7-0.9,1.1-1.4c0.1-0.1,0.2-0.1,0.2-0.2
		c0.2-0.3,0.4-0.6,0.6-0.9c0.2-0.3,0.3-0.5,0.4-0.8c0.6-1,1.1-1.9,1.7-2.9c0.1-0.1,0.2-0.1,0.2-0.2c0.2-0.3,0.3-0.6,0.5-0.9
		c0-0.1,0-0.2,0.1-0.3c0.2-0.3,0.3-0.7,0.5-1C79.3,63.2,79.3,63.2,79.4,63.2z"/>
	<path class="st19" d="M72.8,73.3c-0.1,0.2-0.2,0.4-0.4,0.6c-0.7,0.7-1.3,1.4-2,2.1c-1.1,1-2.3,2-3.5,3c0,0-0.1,0.1-0.1,0.1
		c-0.2,0.1-0.4,0.3-0.7,0.4c0,0,0-0.1,0.1-0.1c0.6-0.5,1.2-0.9,1.7-1.4c0.3-0.3,0.6-0.6,1-0.8c0.3-0.2,0.6-0.4,0.8-0.7
		c0.8-0.8,1.5-1.5,2.3-2.3c0.1-0.1,0.1-0.2,0.2-0.3C72.4,73.7,72.6,73.5,72.8,73.3z"/>
	<path class="st20" d="M49.6,86.5c0,0,0-0.1,0-0.1c0.6-0.1,1.2-0.2,1.8-0.4c0.1,0,0.2,0,0.3-0.1c0.1,0,0.2,0,0.4,0
		c1.4-0.4,2.7-0.8,4.1-1.2c0.3-0.1,0.6-0.2,0.9-0.2c-0.3,0.1-0.7,0.3-1,0.4c-1.6,0.4-3.1,0.9-4.7,1.3C50.7,86.3,50.1,86.4,49.6,86.5
		z"/>
	<path class="st21" d="M56.9,84.4c-0.3,0.1-0.6,0.2-0.9,0.2c-1.4,0.4-2.7,0.8-4.1,1.2c-0.1,0-0.2,0-0.4,0c0.4-0.1,0.7-0.2,1.1-0.3
		c1.3-0.4,2.6-0.8,3.9-1.2c0.2-0.1,0.4-0.1,0.5-0.1C57,84.4,57,84.4,56.9,84.4z"/>
	<path class="st22" d="M72.2,73.9c-0.1,0.1-0.1,0.2-0.2,0.3c-0.8,0.8-1.5,1.5-2.3,2.3c-0.3,0.3-0.6,0.5-0.8,0.7c0,0,0-0.1,0-0.1
		c0.9-0.9,1.8-1.8,2.8-2.7C71.9,74.2,72.1,74.1,72.2,73.9z"/>
	<path class="st23" d="M20.2,80c-0.4-0.3-0.8-0.5-1.2-0.8c-0.8-0.6-1.6-1.3-2.4-2c-0.1-0.1-0.1-0.1-0.2-0.2c0,0,0,0,0.1-0.1
		c0.7,0.6,1.4,1.2,2.2,1.8c0.5,0.4,1,0.8,1.5,1.2C20.2,79.9,20.2,80,20.2,80z"/>
	<path class="st12" d="M66.3,79.4c0,0,0,0.1-0.1,0.1c-0.2,0.2-0.5,0.4-0.7,0.6c-0.5,0.4-1.1,0.7-1.7,1.1c0,0-0.1,0-0.2,0.1
		c0,0-0.1,0-0.1-0.1c0,0,0.1-0.1,0.1-0.1c0.5-0.3,1-0.6,1.4-0.9c0,0,0-0.1,0.1-0.1c0.3-0.2,0.5-0.4,0.8-0.5
		C66,79.5,66.1,79.4,66.3,79.4z"/>
	<path class="st24" d="M79.4,63.2c0,0-0.1,0-0.1-0.1c0.1-0.3,0.3-0.7,0.4-1c0-0.1,0-0.2,0.1-0.3c0.1-0.1,0.1-0.1,0.2-0.2
		c0.1-0.2,0.2-0.4,0.3-0.7c0.2-0.6,0.4-1.2,0.6-1.8c0-0.1,0-0.2,0.1-0.3c0.1-0.1,0.2-0.3,0.2-0.4c0-0.1,0.1-0.2,0.1-0.2
		c-0.2,0.6-0.4,1.3-0.6,1.9c-0.3,0.9-0.7,1.7-1,2.6c0,0,0,0.1,0,0.1C79.5,63,79.4,63.1,79.4,63.2z"/>
	<path class="st25" d="M16.4,76.9C16.4,77,16.4,77,16.4,76.9c-0.1,0-0.2,0-0.2,0c-0.9-0.8-1.7-1.7-2.6-2.5c-0.1-0.1-0.1-0.2-0.2-0.3
		c0,0,0,0,0.1-0.1C14.5,75,15.5,76,16.4,76.9z"/>
	<path class="st26" d="M66.3,79.4c-0.1,0-0.2,0.1-0.4,0.1c0.3-0.2,0.5-0.5,0.8-0.7c0.7-0.6,1.4-1.1,2.1-1.7c0,0,0.1-0.1,0.2-0.1
		c0,0,0,0.1,0,0.1c-0.3,0.3-0.6,0.6-1,0.8C67.4,78.5,66.8,78.9,66.3,79.4z"/>
	<path class="st27" d="M44.6,86.9c-1,0-2,0.1-3,0.1c-0.8,0-1.6-0.1-2.4-0.2c-0.3,0-0.6,0-0.9-0.1c-0.1,0-0.2,0-0.2-0.1
		c1,0.1,2.1,0.1,3.1,0.2c0.9,0,1.8,0,2.6,0.1C44.2,86.9,44.4,86.8,44.6,86.9C44.6,86.9,44.6,86.9,44.6,86.9z"/>
	<path class="st28" d="M7.7,66c-0.1-0.1-0.1-0.1-0.2-0.2c-0.4-0.9-0.9-1.8-1.3-2.6c-0.1-0.2-0.1-0.4-0.2-0.7
		c0.4,0.9,0.9,1.9,1.3,2.8C7.5,65.6,7.6,65.8,7.7,66z"/>
	<path class="st29" d="M30.5,85c-0.3-0.1-0.6-0.1-0.9-0.2c-0.9-0.3-1.8-0.7-2.7-1.1c-0.2-0.1-0.3-0.2-0.4-0.3
		c0.8,0.3,1.5,0.6,2.3,0.9c0.5,0.2,0.9,0.3,1.4,0.5C30.3,84.9,30.4,85,30.5,85z"/>
	<path class="st30" d="M44.6,86.9C44.6,86.9,44.6,86.9,44.6,86.9c0.1-0.1,0.3-0.1,0.4-0.1c0.9-0.1,1.8-0.2,2.7-0.2
		c0.3,0,0.6,0,0.8-0.1c-0.2,0.1-0.4,0.1-0.6,0.2c-0.7,0.1-1.4,0.1-2,0.2C45.5,86.9,45,86.9,44.6,86.9z"/>
	<path class="st31" d="M61.4,82.3c-0.1,0.1-0.1,0.1-0.2,0.2c-0.8,0.4-1.6,0.8-2.5,1.2c0,0-0.1,0-0.1,0c0.1-0.1,0.1-0.1,0.2-0.2
		c0.8-0.4,1.5-0.7,2.3-1.1C61.2,82.4,61.3,82.4,61.4,82.3z"/>
	<path class="st32" d="M25.8,83.2c-0.1,0-0.1,0-0.2,0c-0.7-0.4-1.5-0.7-2.2-1.1c-0.1,0-0.1-0.1-0.2-0.2c0.1,0,0.2,0,0.3,0.1
		c0.7,0.4,1.4,0.7,2.1,1.1C25.7,83,25.7,83.1,25.8,83.2z"/>
	<path class="st7" d="M13.5,74.1C13.5,74.1,13.5,74.1,13.5,74.1c-0.4-0.3-0.8-0.8-1.2-1.2c-0.3-0.3-0.5-0.6-0.7-0.9
		c0.2,0.1,0.3,0.3,0.5,0.4C12.5,72.9,13,73.5,13.5,74.1z"/>
	<path class="st33" d="M10.2,70.2c-0.1-0.2-0.2-0.4-0.3-0.5c0-0.1-0.1-0.2-0.1-0.3c0.4,0.5,0.8,1,1.2,1.5c0,0.1,0.1,0.1,0.1,0.2
		c-0.1-0.1-0.2-0.1-0.3-0.2C10.6,70.8,10.4,70.5,10.2,70.2z"/>
	<path class="st34" d="M80.7,59.3c-0.2,0.6-0.4,1.2-0.6,1.8c-0.1,0.2-0.2,0.4-0.3,0.7c0,0.1-0.1,0.1-0.2,0.2
		c0.3-0.9,0.6-1.7,0.9-2.6C80.7,59.3,80.7,59.3,80.7,59.3z"/>
	<path class="st35" d="M76.3,68.6c-0.1,0.3-0.3,0.5-0.4,0.8c-0.2,0.3-0.4,0.6-0.6,0.9c-0.1,0.1-0.2,0.1-0.2,0.2
		c0.3-0.4,0.6-0.9,0.8-1.3C76,68.9,76.2,68.7,76.3,68.6z"/>
	<path class="st36" d="M65.1,80.1c0,0,0,0.1-0.1,0.1c-0.5,0.3-1,0.6-1.4,0.9c0-0.1,0-0.1,0.1-0.2C64.2,80.6,64.7,80.3,65.1,80.1z"/>
	<path class="st37" d="M78.8,64.2c0,0.1,0,0.2-0.1,0.3c-0.1,0.3-0.3,0.6-0.5,0.9c-0.1,0.1-0.2,0.2-0.2,0.2
		C78.3,65.2,78.5,64.7,78.8,64.2z"/>
	<path class="st38" d="M20.2,80c0,0,0-0.1-0.1-0.1c0.5,0.3,1,0.6,1.4,0.9c0,0,0,0.1,0,0.1c-0.3-0.2-0.6-0.3-0.9-0.5
		C20.6,80.3,20.4,80.1,20.2,80z"/>
	<path class="st39" d="M58.2,83.9c-0.1,0-0.1,0-0.2,0.1C58.1,83.9,58.1,83.9,58.2,83.9z"/>
	<path class="st39" d="M58.6,83.6C58.7,83.7,58.7,83.7,58.6,83.6C58.7,83.7,58.6,83.7,58.6,83.6C58.6,83.7,58.6,83.7,58.6,83.6z"/>
	<path class="st39" d="M58.6,83.7c0,0-0.1,0-0.1,0.1C58.5,83.7,58.6,83.7,58.6,83.7z"/>
	<path class="st39" d="M58.4,83.8c0,0-0.1,0-0.1,0.1C58.3,83.8,58.4,83.8,58.4,83.8z"/>
	<path class="st39" d="M58.3,83.8c0,0-0.1,0-0.1,0.1C58.2,83.9,58.3,83.8,58.3,83.8z"/>
	<path class="st39" d="M58,83.9c0,0-0.1,0-0.1,0.1C57.9,84,58,84,58,83.9z"/>
	<path class="st39" d="M57.9,84c0,0-0.1,0-0.1,0.1C57.8,84,57.8,84,57.9,84z"/>
	<path class="st40" d="M43.8,41.9c-0.5,0.3-1,0.6-1.5,0.8c-0.7,0.4-1.3,0.7-2,1c-0.2,0.1-0.5,0.2-0.7,0.4c-0.3,0.2-0.3,0.5-0.1,0.8
		c0.1,0.1,0.1,0.2,0.2,0.3c-0.7,0.6-0.9,1.9-0.5,2.8c0.4,0.8,1,1.3,1.9,1.4c1.4,0.1,2.8,0,4.2,0c0.5,0,1.1-0.1,1.6-0.1
		c0,0-0.1,0.1-0.1,0.1c-0.6,0-1.2,0.1-1.9,0.1c-0.1,0-0.2,0-0.3,0c0,0,0,0,0,0c0.7,0,1.4-0.1,2.2-0.1c0,0.3,0,0.6-0.3,0.7
		c0.2,0.1,0.4,0.2,0.6,0.3c0,0,0,0,0,0.1c0,0.2,0.2,0.6,0.4,0.5c0.3-0.2,0.4,0.1,0.5,0.3c0.1,0.1,0.2,0.2,0.3,0
		c0.1-0.1,0.2-0.1,0.4-0.1c0,0,0,0.1,0.1,0.1c-0.1,0.1-0.3,0.1-0.3,0.1c0,0.1,0,0.1-0.1,0.1c0,0-0.1,0-0.1,0c-0.3,0-0.5,0.1-0.8,0.1
		c0,0,0,0.1,0.1,0.2c-0.2,0-0.3-0.1-0.5-0.1c0.1-0.1,0.2-0.1,0.3-0.1c-0.2-0.2-0.4-0.4-0.6-0.1c0-0.1,0-0.2,0-0.3
		c-0.1-0.1-0.3-0.2-0.4,0c0.1,0.1,0.1,0.2,0.2,0.2c-0.1,0-0.2-0.1-0.3-0.1c-0.1,0-0.2,0-0.3,0c-0.2,0.2-0.3,0.5-0.5,0.8
		c0.1-0.3-0.2-0.4-0.3-0.6c0,0.2,0,0.3,0,0.3c-0.2,0-0.4,0-0.5-0.1c0,0.1,0.1,0.2,0.1,0.4c-0.2,0-0.3-0.2-0.4-0.2
		c-0.1,0-0.4,0.3-0.4-0.1c0,0-0.1,0-0.1,0c0,0,0-0.1-0.1-0.1c-0.1,0.1-0.2,0.2-0.2,0.2c0.1,0.2,0.1,0.4,0.3,0.5
		c0.2,0.1,0.1,0.2,0.1,0.3c-0.1,0-0.2-0.1-0.2-0.1c-0.1,0-0.2-0.1-0.2-0.1c0,0,0,0,0,0c0.1,0,0.1,0.1,0.2,0.1c0,0,0,0,0,0.1
		c-0.1,0-0.1-0.1-0.2-0.1c-0.1,0-0.1,0-0.2,0.1c0.2,0.2,0.5,0,0.5,0.3c0.1-0.1,0.2-0.2,0.4-0.2c0,0,0,0.1,0.1,0.1
		c-0.1,0-0.2,0.1-0.3,0.2c0.3,0,0.2,0.2,0.2,0.3c0.1,0,0.2-0.1,0.3-0.1c0.2,0,0.3,0,0.5,0c0.2-0.1,0.3-0.2,0.4,0.1c0,0,0.1,0,0.1,0
		c0-0.1,0-0.2-0.1-0.2c0.1,0,0.2,0,0.2,0c0,0.1-0.1,0.2-0.1,0.2c0,0.2,0.2,0.4-0.1,0.7c-0.1,0.1-0.1,0.4-0.2,0.6
		c-0.1-0.1-0.1-0.3-0.2-0.3c-0.1,0-0.3,0-0.4,0.1c0,0,0-0.1-0.1-0.2c-0.1,0.2-0.2,0.3-0.3,0.4c0,0,0,0-0.1,0
		c0.1-0.1,0.1-0.2,0.2-0.4c-0.1,0.1-0.4-0.1-0.3,0.3c-0.1,0-0.1-0.1-0.2-0.1c0,0.1-0.1,0.2-0.1,0.3c0.1,0,0.2,0.1,0.3,0.1
		c-0.1,0.2-0.2,0.3-0.3,0.4c0,0.1,0,0.3,0,0.3c-0.2,0-0.4-0.1-0.5,0c-0.2,0.2-0.1-0.2-0.1-0.1c0,0,0-0.1-0.1-0.1
		c0.1-0.1,0.2-0.1,0-0.2c-0.1-0.1-0.2-0.1-0.3-0.1c-0.1,0-0.2,0-0.4,0c0.1-0.1,0.1-0.2,0.2-0.3c-0.2,0-0.3,0-0.3,0.1
		c-0.2-0.2-0.3-0.4-0.4-0.5c-0.2-0.1-0.3-0.2-0.3-0.4c0.2,0.1,0.4,0.2,0.5,0.3c0.1,0.1,0.2,0.3,0.3,0.5c0-0.2,0-0.2,0.3-0.3
		c-0.2-0.2-0.4-0.4-0.6-0.6c0,0,0.1,0,0.1-0.1c-0.3-0.2-0.3-0.2-0.2-0.4c0.1-0.1,0.1-0.3,0.2-0.4c0,0,0,0,0-0.1c0,0.1,0,0.1-0.1,0.2
		c0-0.1-0.1-0.2-0.1-0.3c-0.1,0.1-0.1,0.2-0.2,0.3c0,0,0,0.1-0.1,0.1c-0.2,0-0.1,0-0.1,0.1c0,0.1,0,0.3,0,0.4c0,0,0,0-0.1,0
		c0,0-0.1-0.1-0.1-0.1c0,0-0.1,0.1-0.1,0.1c0.1,0.3-0.1,0.1-0.2,0.2c0,0.1,0.1,0.2,0.1,0.2c0,0.1-0.1,0.1-0.2,0.1
		c-0.2,0-0.3,0-0.4,0.2c0,0.3,0,0.5,0,0.8c0,0.1,0.2,0.2,0.3,0.3c0.1,0.1-0.2,0.3,0,0.4c0,0,0,0.1,0,0.2c-0.2-0.2-0.3-0.5-0.5-0.7
		c-0.2-0.1-0.5-0.1-0.7,0c0-0.2,0.1-0.3,0.1-0.4c0,0,0,0,0,0c-0.1,0.2-0.3,0.4-0.4,0.5c-0.3,0-0.5,0-0.7,0c0,0,0-0.1,0-0.1
		c-0.1,0-0.2,0-0.3,0c0,0.2-0.1,0.1-0.2,0.1c-0.2,0-0.4,0-0.6,0c0.1,0.1,0.1,0.2,0.2,0.3c-0.4-0.2-0.4-0.2-0.5,0.2c0,0,0,0.1,0,0.1
		c0,0.1,0,0.2-0.2,0.1c-0.1-0.1-0.3,0-0.4,0c0-0.1-0.1-0.3-0.1-0.5c0.1,0.1,0.2,0.1,0.2,0.2c0,0,0,0,0.1-0.1
		c-0.1-0.1-0.2-0.2-0.3-0.2c-0.2,0-0.4,0.1-0.5,0.2c0,0,0,0.1,0,0.1c0,0,0.1,0,0.1,0c0.1,0,0.1,0,0.2,0c-0.2,0.3-0.3,0.1-0.5,0
		c-0.3-0.1-0.3-0.2,0-0.4c0,0,0.1-0.1,0.1-0.2c0-0.1-0.1-0.1-0.2-0.1c-0.1,0-0.3-0.1-0.4-0.1c0-0.3,0.5-0.1,0.4-0.4
		c-0.1,0-0.2,0-0.3,0c-0.1,0-0.2-0.2-0.3,0c-0.2-0.1-0.2,0.1-0.2,0.1c-0.1,0.1-0.2,0.1-0.3-0.1c-0.1-0.2-0.2-0.3-0.4-0.5
		c0,0.2,0,0.3,0,0.5c-0.2-0.2-0.4-0.3-0.3-0.6c0.1-0.2,0-0.4-0.2-0.4c-0.1,0-0.3,0.1-0.3,0.2c-0.1,0.2-0.1,0.4-0.1,0.5
		c-0.2-0.1-0.3-0.2-0.4-0.2c0-0.1,0.1-0.3,0.1-0.4c0-0.1,0-0.2,0-0.4c0,0,0,0-0.1,0c0,0.1,0,0.2-0.1,0.2c-0.3-0.1-0.6-0.1-0.9-0.2
		c0,0.1,0,0.2,0,0.3c0,0,0-0.1-0.1-0.1c0,0-0.1,0-0.1,0.1c0,0-0.1,0-0.1,0c-0.4-0.1-0.4-0.1-0.5,0.2c-0.1,0-0.2-0.1-0.4-0.1
		c0,0.1,0,0.1,0,0.2c-0.1,0-0.2,0-0.3,0c0.1,0.1,0.2,0.2,0.2,0.2c0,0,0,0-0.1,0.1c-0.1-0.1-0.2-0.3-0.4-0.4c0,0-0.1-0.1-0.2-0.1
		c0,0.1-0.1,0.2,0,0.2c0.1,0.1,0.3,0.3,0.4,0.4c-0.1,0.1-0.2,0.2-0.3,0.4c-0.2-0.2-0.3-0.5-0.5-0.7c0.1-0.1,0.2-0.3,0.3-0.5
		c0.1-0.1,0.3-0.2,0.4-0.3c-0.2,0-0.4-0.3-0.6,0.1c0-0.1,0-0.1-0.1-0.2c0,0.4-0.2,0-0.2,0.1c0,0,0,0-0.1,0c0-0.1,0.1-0.1,0.1-0.2
		c0-0.1,0.1-0.1,0.1-0.2c-0.1,0-0.1,0-0.2-0.1c0.1-0.2,0.2-0.3,0.3-0.5c0.1,0.1,0.3,0.2,0.1,0.4c0,0,0,0.1,0,0.2
		c0,0,0.1,0.1,0.1,0.1c0.1,0,0.2,0.1,0.3,0.1c0-0.1,0.1-0.2,0.1-0.4c0,0,0,0,0,0c0,0,0.1,0,0.1,0c-0.1-0.2-0.1-0.3-0.4-0.2
		c0,0,0,0,0,0c0.1-0.1,0.2-0.3,0.3-0.4c0,0,0,0,0-0.1c-0.2,0.1-0.4,0.2-0.6,0c0,0-0.1,0-0.1,0c-0.1,0.1-0.1,0.2-0.3,0.1
		c-0.1,0.1-0.2,0.2-0.3,0.3c0,0,0,0.1,0.1,0.1c0.1,0.1,0,0.5-0.2,0.6c-0.2,0.1-0.2,0.2-0.2,0.4c0,0,0,0.1,0,0.1
		c-0.1-0.2-0.1-0.3-0.2-0.4c-0.1,0.1-0.2,0.1-0.3,0.2c-0.1,0.1-0.2,0.1-0.2,0.2c0.2,0.2,0,0.4-0.1,0.5c0,0.1-0.2,0.1-0.2,0.1
		c0-0.1-0.1-0.1-0.1-0.2c0-0.1-0.1-0.2-0.1-0.3c-0.1,0-0.1,0.1-0.2,0.1c0,0-0.1,0,0,0c-0.1-0.2-0.1-0.3-0.2-0.4
		c-0.1-0.1-0.2-0.1-0.3-0.1c-0.1,0-0.2,0-0.4,0.1c0.1,0.1,0.2,0.1,0.3,0.2c-0.3-0.1-0.3,0.2-0.4,0.3c-0.2-0.1-0.3-0.3-0.5-0.4
		c-0.1,0-0.2,0-0.2-0.1c0,0,0.1,0,0.2-0.1c0,0,0,0,0,0c-0.5-0.5-0.9-0.2-1.3,0.1c-0.1-0.2-0.2-0.4-0.3-0.6c-0.2,0.1-0.3,0.1-0.5,0.2
		c0.1,0,0.2,0,0.4,0.1c-0.2,0.1-0.3,0.1-0.5,0.2c0.1,0,0.2,0.1,0.3,0.1c0.2,0.1,0.4,0.2,0.6,0.2c-1.2-0.2-2.2-0.7-3.1-1.4
		c-0.5-0.4-0.8-0.9-0.9-1.6c-0.3-1.5-0.5-3-0.3-4.6c0.2-1.5,0.6-2.9,1.2-4.2c0.2-0.5,0.4-0.9,0.6-1.4c0.2,0.3,0.3,0.6,0.4,0.8
		c0,0.1,0.2,0.1,0.3,0.1c0.2,0,0.1-0.2,0-0.3c-0.4-0.8-0.5-1.7-0.3-2.6c0.1-0.5,0.1-1.1,0.4-1.5c0.3-0.5,0.6-1,1-1.4
		c0.5-0.6,1.1-0.7,1.9-0.5c0.5,0.2,1,0.2,1.5-0.1c0.1-0.1,0.2-0.1,0.3-0.1c0.6-0.2,1.1-0.7,1.1-1.3c0-0.6-0.2-1.3-0.3-1.9
		c-0.1-0.8-0.3-1.5-0.4-2.3c0-0.7,0.2-1.3,0.7-1.8c0.3-0.3,0.7-0.6,1-0.9c0.3-0.3,0.5-0.6,0.6-1c0.1-0.3,0.2-0.5,0.3-0.8
		c0.3-0.5,0.6-1,0.9-1.5c1,1.3,2.4,1.5,3.9,1.4c0.1,0,0.2,0,0.4,0c-0.1,0-0.2,0.1-0.3,0.1c-0.2,0-0.3,0.1-0.2,0.3
		c0.2-0.1,0.3-0.1,0.5-0.2c0.1,0,0.2,0,0.3-0.1c0,0.1,0,0.1,0,0.2c0,0.1,0,0.1,0.1,0.2c0.1-0.1,0.3-0.2,0.4-0.3c0,0,0-0.1-0.1-0.2
		c0.1,0,0.1,0.1,0.2,0.1c0.1,0,0.2,0,0.3,0.1c0,0.1,0,0.2,0,0.2c0,0.1,0,0.2-0.2,0.1c-0.1,0-0.2,0-0.3,0c0,0-0.1,0.1-0.1,0.1
		c0,0,0,0.1,0.1,0.1c0.1,0,0.1,0,0.2-0.1c0,0,0,0,0-0.1c0.1,0.1,0.3,0,0.2,0.3c0,0.1,0,0.3,0.1,0.5c0.1,0.2,0.1,0.3,0,0.4
		c0,0.1,0,0.1-0.1,0.2c-0.1,0-0.1-0.3-0.3-0.2c-0.1,0-0.2-0.3-0.3,0c-0.1-0.1-0.2-0.4-0.3-0.4c-0.2,0-0.2-0.2-0.2-0.3
		c-0.2,0.1-0.3,0.2-0.5,0.3c0,0,0,0,0,0.1c0.1,0,0.1,0,0.2,0c0,0,0,0,0,0.1c-0.1,0-0.1,0.1-0.2,0.1c0-0.1-0.1-0.2-0.1-0.2
		c0-0.1,0-0.3,0-0.4c0-0.1,0-0.2,0-0.4c-0.1,0.1-0.1,0.1-0.1,0.2c0-0.1-0.1-0.2-0.1-0.3c0,0,0,0-0.1,0c0.1,0.2-0.1,0.4,0,0.7
		c-0.1,0-0.1,0.3-0.3,0.2c0,0.1,0,0.2,0.1,0.3c-0.1-0.1-0.2-0.1-0.3-0.2c0.1,0.2,0.1,0.3,0.1,0.4c0.1,0,0.3-0.1,0.4-0.1
		c0.2-0.1,0.2-0.1,0.2,0.1c0,0.2,0.1,0.4,0.4,0.4c0,0,0.1,0,0.1,0c0,0,0,0.1,0,0.1c0,0-0.1,0-0.1,0c-0.1-0.3-0.2,0-0.2,0
		c0,0.1,0,0.2,0.2,0.2c-0.4,0.1-0.8,0.3-1.1,0.4c-0.1,0-0.1,0.1-0.2,0.2c0.1,0,0.2,0.1,0.3,0.1c0.7-0.1,1.4-0.3,2.1-0.4
		c1.8-0.3,3.5-0.4,5.3-0.2c1.7,0.2,3.4,0.3,5,0.5c1.9,0.2,3.6,0.9,5.1,2.2c0.7,0.6,1.2,1.3,1.6,2.1c0.1,0.3,0.2,0.6,0.2,0.8
		c-1.5-1-3.2-1.3-4.9-1.7c-1.9-0.4-3.8-0.6-5.8-0.6c-1.9,0-3.8,0.3-5.7,0.8c-1.1,0.3-2.2,0.5-3.3,0.8c-0.6,0.1-1.1,0.4-1.6,0.9
		c-0.1,0.1-0.1,0.2-0.2,0.3c-0.1,0.2,0,0.2,0.2,0.2c0.1,0,0.3,0,0.4,0.1c2.1,1.3,4,2.8,6.2,3.8c2,0.9,4,1.6,6.2,1.7
		c1.8,0.1,3.7,0.1,5.5-0.2c0.3,0,0.6-0.1,0.8-0.2c0.1,0,0.1,0,0.2,0c0,0.1,0,0.1-0.1,0.2c-0.1,0.1-0.3,0.2-0.4,0.3
		c-0.8,0.6-1.7,1-2.7,1.2c-1.7,0.5-3.5,0.6-5.2,0.5c-2.4-0.2-4.8-0.6-7-1.6c-0.4-0.2-0.7-0.3-1.1-0.5c0,0-0.1,0-0.2,0
		c0.1,0.1,0.2,0.1,0.2,0.2c1.4,0.8,2.9,1.4,4.5,1.8c1.4,0.3,2.7,0.6,4.1,0.6c0.4,0,0.9,0,1.3,0c0.1,0,0.2,0,0.3,0.1
		c-0.1,0-0.1,0.1-0.2,0.1c-0.2,0-0.4,0-0.6,0C44.5,41.8,44.2,41.9,43.8,41.9z"/>
	<path class="st41" d="M32.6,75.2c-0.6-0.1-1.3-0.1-1.9-0.2c-1.6-0.3-3.2-0.6-4.9-0.9c-0.3,0-0.4-0.1-0.3-0.4c0.2-1.3,0.1-2.7-0.1-4
		c-0.1-0.7,0-1.3,0.2-2c0.2-0.5,0.3-1.1,0.5-1.6c0-0.1,0.1-0.2,0.1-0.3c0-0.1-0.1-0.3-0.2-0.3c-0.1,0-0.3,0.1-0.4,0.2
		c-0.1,0.2-0.2,0.4-0.2,0.6c0,0.1-0.1,0.2-0.2,0.4c-0.1-0.4-0.1-0.8-0.2-1.2c-0.1-0.2-0.1-0.5-0.2-0.7c-0.1-0.1-0.2-0.1-0.4-0.2
		c0,0.1-0.1,0.3-0.1,0.4c0.4,0.9,0.4,1.8,0.4,2.7c0.1,1.2,0.1,2.5,0.1,3.7c0,0.7-0.1,1.5-0.1,2.2c0,0.2,0,0.2-0.2,0.2
		c-2.3-0.7-4.5-1.4-6.6-2.6c-0.7-0.4-1.4-0.9-2.1-1.4c-0.4-0.3-0.6-0.7-0.6-1.2c0-1.1-0.1-2.2,0-3.3c0.2-1.9,0.6-3.8,0.9-5.8
		c0.1-0.4,0.2-0.9,0.3-1.3c0.3-1.4,1.1-2.4,2.5-2.9c0.4-0.2,0.8-0.4,1.2-0.4c0.4,0,0.7,0.4,1.1,0.6c2.3,1.7,4.5,3.4,6.8,5
		c1.8,1.3,3.6,2.4,5.6,3.3c1.4,0.6,2.8,1.1,4.2,1.3c0.5,0.1,0.9,0,1.2-0.4c0.7-0.9,1.4-1.9,2.2-2.7c0.9-1,1.9-2,2.8-3
		c0.1-0.1,0.2-0.1,0.3,0c1.8,1.7,3.7,3.4,5.5,5.1c0.1,0.1,0.2,0.1,0.2,0.2c0.1,0.1,0.2,0.2,0.2,0.3c0.2,0.8,0.5,1.5,0.7,2.3
		c0.1,0.4,0.2,0.9,0.2,1.3c0.1,1.4,0.2,2.8,0.2,4.2c0,0.7-0.1,1.3-0.2,2c0,0.2-0.1,0.3-0.3,0.3c-2.1,0.3-4.2,0.5-6.3,0.6
		c-0.6,0-1.2,0-1.9,0c-1.6,0-3.2,0-4.7,0c-0.6,0-1.2,0-1.8,0c-0.1,0-0.2-0.1-0.3-0.1c-0.4,0-0.8,0-1.2-0.1
		C34.3,75.3,33.5,75.3,32.6,75.2z"/>
	<path class="st42" d="M20.1,44c-0.1,0.4-0.2,0.8-0.3,1.2c0,0.3-0.1,0.4-0.4,0.3c-1-0.1-1.9-0.4-2.6-1.2c-0.5-0.5-0.7-1.1-0.8-1.7
		c-0.2-1.2-0.3-2.3,0-3.5c0.2-0.6,0.4-1.2,1-1.6c0.4-0.3,0.7-0.6,0.8-1.1c0-0.2,0.2-0.3,0.3-0.4c0.5-0.4,0.5-1,0.4-1.6
		c-0.2-1.1,0.1-2.2,0.8-3.1c0.5-0.6,1.1-1.1,1.9-1.4c0.2-0.1,0.5-0.3,0.5-0.5c0.3-1,1-1.7,1.8-2.4c1-0.9,1.8-2,2.2-3.4
		c0.1-0.5,0.4-1,0.7-1.5c0.7-1.3,1.6-2.4,2.7-3.4c1.6-1.5,3.4-2.6,5.6-3.1c0.6-0.1,1.2-0.2,1.8-0.2c0.9,0,1.9,0,2.8,0
		c0.8,0,1.6,0,2.4-0.1c1.7-0.1,3.3,0.2,5,0.6c1.2,0.3,2.4,0.5,3.6,0.6c0.4,0.1,0.9-0.1,1.4-0.1c1.2-0.1,2.3-0.2,3.5-0.1
		c1.2,0.1,2.3,0.3,3.4,0.7c1.2,0.4,2.2,1.1,2.7,2.3c0.2,0.4,0.4,0.9,0.6,1.3c-0.7,0.1-1.4,0-2.1-0.2c0.2-0.1,0.3-0.2,0.5-0.3
		c0,0,0-0.1,0-0.1c-0.1,0-0.2,0-0.4,0c-0.9,0.3-1.8,0.1-2.7,0.2c-0.8,0.1-1.6,0.2-2.4,0.3c-0.5,0-1,0-1.5,0c-0.8,0-1.6,0.1-2.3,0.4
		c-0.6,0.3-1.2,0.5-1.8,0.7c-0.4,0.2-0.9,0.2-1.4,0c-0.8-0.3-1.6-0.1-2.4,0.2c-0.8,0.3-1.7,0.4-2.5,0.1c-0.9-0.4-1.7-0.2-2.5,0.2
		c-0.9,0.5-1.8,0.9-2.7,1.3c-1,0.4-2.1,0.7-3.3,0.7c-0.7,0-1.4-0.3-2-0.7c-0.3-0.2-0.5-0.6-0.4-1c1,0.7,2,0.5,3.1,0.3
		c0.1,0,0.3-0.1,0.4-0.1c0.1,0,0.1-0.1,0.2-0.2c-0.1,0-0.2-0.1-0.3-0.1c-0.4,0-0.8,0.2-1.2,0.2c-0.5,0-1,0-1.4,0
		c-0.7-0.1-1-0.6-1.2-1.2c-0.1-0.3-0.1-0.5-0.2-0.8c0,0.1-0.1,0.3-0.1,0.4c0,0.3,0.1,0.6,0.2,0.8c0.3,0.5,0.1,0.9-0.1,1.3
		c-0.3,0.6-0.7,1.1-1,1.6c-0.2,0.3-0.4,0.6-0.4,1c0,0.5-0.3,0.8-0.7,1.2c-0.4,0.3-0.7,0.6-1,0.9c-0.5,0.6-0.8,1.3-0.7,2
		c0.1,0.6,0.2,1.3,0.4,1.9c0.1,0.5,0.3,1,0.4,1.5c0.1,0.4,0.1,0.7-0.2,1.1c-0.1,0.1-0.2,0.1-0.3,0.2c0-0.4,0.1-0.7-0.2-1
		c0,0.3-0.1,0.5-0.1,0.7c-0.1,0.4-0.4,0.6-0.7,0.8c0,0-0.1,0-0.1,0c-0.4-0.3-0.9-0.2-1.3-0.3c-0.9-0.2-1.5,0.4-2.1,1
		c-0.8,1-1.3,2.1-1.3,3.3c0,0.9-0.4,1.6-0.7,2.3c-0.3,0.8-0.6,1.6-0.9,2.3c0,0-0.1,0.1-0.1,0.1c-0.4-0.2-0.7-0.5-1-0.7
		c-0.1-0.1-0.2-0.1-0.2-0.2c0,0.1,0,0.2,0.1,0.3c0,0.1,0.1,0.1,0.2,0.2c0.3,0.2,0.6,0.3,0.9,0.5C20,43.9,20.1,44,20.1,44z
		 M17.5,39.4C17.5,39.4,17.5,39.4,17.5,39.4c-0.1,0-0.2,0.1-0.3,0.2c-0.6,1.1-0.7,2.3-0.3,3.5c0.3,0.8,0.9,1.4,1.8,1.5
		c0.1,0,0.3-0.1,0.4-0.1c-0.1-0.1-0.2-0.2-0.3-0.3c-0.3-0.2-0.8-0.4-1-0.7c-1-1.2-0.9-2.6-0.4-4C17.5,39.6,17.5,39.5,17.5,39.4z
		 M37.6,20.7c0,0-0.1,0.1-0.1,0.1c0.1,0,0.2,0,0.2,0.1c0.4,0.3,1,0.4,1.5,0.3c0.6-0.1,1.2-0.2,1.9-0.4c0.6-0.1,1.2-0.3,1.8-0.3
		c0.1,0,0.2,0,0.3-0.1c-0.1-0.1-0.2-0.2-0.2-0.2c-0.6-0.2-1.2-0.1-1.7,0.1c-0.7,0.3-1.4,0.5-2.2,0.6c-0.4,0.1-0.8,0-1.2-0.2
		C37.7,20.7,37.7,20.7,37.6,20.7z M21.9,35.5c0.2,0,0.4-0.1,0.5-0.1c1.2-0.3,2-1.1,2.6-2.2c0-0.1,0-0.2,0-0.3
		c-0.1,0-0.1,0.1-0.2,0.1c-0.7,1-1.6,1.7-2.7,2.1c-0.1,0-0.2,0.1-0.4,0.2c0,0-0.1,0.1-0.1,0.2C21.8,35.4,21.9,35.4,21.9,35.5z
		 M29.3,22.5C29.3,22.5,29.3,22.5,29.3,22.5c0.1-0.1,0.1-0.2,0.1-0.3c0-1,0.3-1.9,1-2.6c0.1-0.1,0.2-0.2,0.2-0.3
		c0-0.1,0.1-0.2,0.1-0.2c-0.1,0-0.2,0-0.3,0c-0.2,0.1-0.3,0.2-0.5,0.3C29.1,20.2,29,21.1,29,22C29.1,22.2,29.2,22.4,29.3,22.5z
		 M42.7,19.3C42.7,19.3,42.7,19.4,42.7,19.3c0,0.1,0.1,0.1,0.2,0.2c0.4,0.1,0.9,0.2,1.3,0.4c0.4,0.2,0.8,0.4,1.2,0.6
		c0.6,0.3,1.2,0.3,1.8,0c0.1,0,0.2-0.1,0.2-0.2c0,0,0-0.1,0-0.1c-0.1,0-0.3,0-0.4,0c-0.5,0.1-0.9,0.1-1.3,0
		c-0.6-0.2-1.2-0.4-1.8-0.6C43.5,19.4,43.1,19.3,42.7,19.3z M50.6,18.1c-0.2,0-0.4,0-0.5,0.1c-0.1,0-0.1,0.1-0.1,0.2
		c0.1,0,0.1,0,0.2,0c0.1,0,0.2,0,0.3,0c0.9,0.2,1.6,0.5,2.3,1c0.1,0.1,0.3,0.3,0.5,0.2c0,0-0.1-0.3-0.2-0.5
		C52.4,18.3,51.5,18.2,50.6,18.1z M18.9,38.7c0,0.2,0.1,0.5,0.1,0.7c0,0.1,0.1,0.1,0.1,0.1c0-0.1,0.1-0.1,0.1-0.2c0-0.2,0-0.4,0-0.6
		c0.1-0.9,0.5-1.5,1.2-2c0.1,0,0.1-0.1,0.1-0.1c-0.1,0-0.1,0-0.2,0C19.7,36.8,18.9,37.9,18.9,38.7z M34.7,21.3
		c0.2,0.6,0.8,0.7,1.3,0.8c0.7,0.1,1.8-0.1,2.1-0.5C36.9,21.7,35.7,22.1,34.7,21.3z M26.6,28.8C26.6,28.8,26.6,28.7,26.6,28.8
		c-0.1,0-0.2,0-0.2,0.1c-0.4,0.8-1,1.3-1.9,1.6c-0.1,0-0.2,0.1-0.3,0.2c0.4,0.2,1.1,0,1.5-0.3C26.2,29.9,26.5,29.4,26.6,28.8z
		 M20.2,35.1c0,0,0.1,0,0.2,0c0.4-0.2,0.9-0.4,1.3-0.7c0.2-0.1,0.4-0.4,0.6-0.5c0,0,0-0.2,0-0.2c-0.1,0-0.1,0-0.2,0.1
		c-0.2,0.1-0.5,0.3-0.7,0.5c-0.5,0.2-0.9,0.4-1.4,0.7c-0.1,0-0.1,0.1-0.2,0.1c0.1,0,0.1,0.1,0.2,0.1C20,35.1,20,35.1,20.2,35.1z
		 M53.2,18.2C53.2,18.3,53.2,18.3,53.2,18.2c0.5,0.4,1,0.6,1.6,0.7c0.3,0.1,0.7,0,1.1,0c0.1,0,0.1-0.1,0.2-0.2
		c-0.1,0-0.2-0.1-0.3-0.1c-0.8,0-1.5-0.2-2.2-0.4C53.5,18.3,53.3,18.3,53.2,18.2z M22.3,30.9c0.1,0,0.2,0.1,0.2,0.1
		c0.8,0,1.9-0.7,2.2-1.5c0,0,0-0.1,0-0.1c0,0-0.1,0-0.1,0.1c-0.5,0.7-1.2,1-1.9,1.3C22.6,30.8,22.4,30.8,22.3,30.9z M28.8,24.9
		c-0.5,0.9-1.3,1.4-2.1,2C27.4,27,28.9,25.6,28.8,24.9z M24.8,27.5c0.6,0,1.8-0.8,2.1-1.5c0,0,0-0.1,0-0.1c-0.1,0-0.1,0-0.2,0.1
		c-0.4,0.3-0.7,0.6-1.1,0.9c-0.2,0.2-0.6,0.3-0.8,0.4c-0.1,0-0.1,0.1-0.1,0.2C24.8,27.4,24.8,27.5,24.8,27.5z M55.8,17.8
		C55.7,17.8,55.7,17.9,55.8,17.8c0,0.1,0,0.1,0.1,0.2c0.5,0.3,1.1,0.4,1.6,0.4c0.1,0,0.2,0,0.2,0c0,0,0.1-0.1,0.1-0.1
		c0,0-0.1-0.1-0.1-0.1c-0.6-0.1-1.2-0.2-1.8-0.3C55.8,17.8,55.8,17.8,55.8,17.8z M49.6,19.4c-0.7,0.1-1.5,0.5-2.3,0.1
		C47.6,20,49.1,19.9,49.6,19.4z"/>
	<path class="st41" d="M60.6,55.2c0.2,0.2,0.4,0.5,0.6,0.7c0.5,0.6,1,1.2,1.5,1.8c0.4,0.5,0.8,1.1,1,1.8c0.3,1.1,0.6,2.1,0.9,3.2
		c0.1,0.5,0.2,1.1,0.3,1.6c0.1,0.8,0.2,1.5,0.3,2.3c0.2,1.1,0.1,2.2-0.2,3.3c-0.2,0.8-0.6,1.2-1.4,1.5c-0.1-0.7-0.3-1.4-0.4-2
		c-0.2-1.4-0.4-2.8-0.5-4.3c-0.1-0.5,0-1,0-1.4c0-0.1-0.1-0.2-0.1-0.4c-0.1,0.1-0.2,0.2-0.2,0.3c-0.2,0.8-0.2,1.6-0.1,2.5
		c0.2,1.7,0.4,3.5,0.6,5.2c0.1,0.4,0,0.4-0.4,0.6c-2,0.9-4.1,1.5-6.2,2c-1.3,0.3-2.6,0.6-4,0.9c0-0.4,0-0.8,0-1.2
		c-0.1-1.8-0.2-3.7-0.2-5.5c0-0.5-0.1-0.9-0.3-1.4c-0.3-0.6-0.6-1.3-0.8-1.9c-0.1-0.2,0-0.6,0.1-0.8c0.9-1.8,1.8-3.6,2.7-5.4
		c0.2-0.3,0.2-0.3,0.5-0.1c1.5,1.1,2.8,2.4,4,3.9c0.3,0.3,0.5,0.7,0.8,1c0.1,0.1,0.3,0.2,0.4,0.2c0.1,0,0.3-0.2,0.3-0.3
		c0.1-0.3,0.1-0.7,0.2-1.1c0.2-1.1,0.3-2.2,0.4-3.3C60.4,57.6,60.5,56.4,60.6,55.2z"/>
	<path class="st40" d="M35.3,27.1c-0.1,0-0.2,0-0.2-0.2c0,0,0.1-0.3,0.2,0c0,0,0.1,0,0.1,0c0,0,0-0.1,0-0.1c0,0-0.1,0-0.1,0
		c-0.3,0-0.4-0.2-0.4-0.4c0-0.2-0.1-0.2-0.2-0.1c-0.1,0.1-0.3,0.1-0.4,0.1c0-0.1-0.1-0.2-0.1-0.4c0.1,0.1,0.2,0.2,0.3,0.2
		c0-0.1,0-0.2-0.1-0.3c0.2,0.1,0.1-0.2,0.3-0.2c-0.1-0.2,0.1-0.4,0-0.7c0,0,0,0,0.1,0c0,0.1,0.1,0.2,0.1,0.3
		c0.1-0.1,0.1-0.1,0.1-0.2c0,0.2,0,0.3,0,0.4c0,0.1,0,0.3,0,0.4c0,0.1,0.1,0.2,0.1,0.2c0.1,0,0.1-0.1,0.2-0.1c0,0,0,0,0-0.1
		c-0.1,0-0.1,0-0.2,0c0,0,0,0,0-0.1c0.2-0.1,0.3-0.2,0.5-0.3c0.1,0.1,0,0.3,0.2,0.3c0.1,0,0.2,0.3,0.3,0.4c0.1-0.2,0.3,0.1,0.3,0
		c0.3-0.1,0.2,0.2,0.3,0.2c0-0.1,0-0.1,0.1-0.2c0.1-0.2,0.1-0.3,0-0.4c-0.1-0.1-0.2-0.3-0.1-0.5c0.1-0.2-0.1-0.2-0.2-0.3
		c0,0,0,0.1,0,0.1c-0.1,0-0.1,0.1-0.2,0.1c0,0-0.1-0.1-0.1-0.1c0,0,0.1-0.1,0.1-0.1c0.1,0,0.2,0,0.3,0c0.2,0.1,0.2,0,0.2-0.1
		c0-0.1,0-0.2,0-0.2c0-0.1-0.1-0.2-0.3-0.1c0,0-0.1,0-0.2-0.1c0,0.1,0.1,0.2,0.1,0.2c-0.1,0.1-0.2,0.2-0.4,0.3c0-0.1,0-0.1-0.1-0.2
		c0-0.1,0-0.1,0-0.2c-0.1,0-0.2,0-0.3,0.1c-0.2,0.1-0.3,0.1-0.5,0.2c-0.1-0.2-0.1-0.3,0.2-0.3c0.1,0,0.2-0.1,0.3-0.1
		c0.4-0.1,0.9-0.2,1.3-0.3c1-0.4,1.9-0.9,2.9-1.4c0.4-0.2,0.9-0.5,1.3-0.7c0.3-0.2,0.6-0.1,0.9,0c0.4,0.1,0.8,0.3,1.1,0.3
		c0.8,0.2,1.6,0,2.3-0.3c0.1,0,0.2-0.1,0.3-0.1c0.6-0.4,1.2-0.4,1.9-0.1c0.7,0.3,1.5,0.2,2.2-0.1c0.4-0.2,0.7-0.4,1.1-0.5
		c0.3-0.1,0.6-0.2,0.9-0.4c0,0.1,0,0.2,0,0.2c0,0,0-0.1,0-0.1c0.4,0,0.7-0.1,1.1-0.1c0.4,0,0.8,0.1,1.3,0.1c0.2,0,0.4-0.1,0.7-0.1
		c0,0,0,0,0-0.1c-0.1,0-0.2,0-0.3,0c0.7-0.1,1.4-0.2,2.1-0.4c0.2,0,0.3,0,0.5,0c0,0,0.1,0.1,0.1,0.1c-0.1,0.3,0.2,0.1,0.2,0.3
		c0.1-0.1,0.2-0.2,0.3-0.3c0,0.3,0,0.4,0.3,0.2c0.1-0.1,0.4-0.2,0.6,0c-0.1,0.1-0.2,0.3-0.3,0.1c0,0-0.2,0-0.2,0
		c0.3,0.2,0.6,0.3,0.8,0.5c0.1-0.2,0.2-0.3,0.5-0.1c0.1,0.1,0.3,0,0.3,0.3c0.3-0.2,0,0.2,0.2,0.1c0-0.1,0-0.2,0-0.3
		c0-0.1-0.1-0.2-0.2-0.2c0.3,0,0.1-0.2,0.1-0.4c-0.2,0.4-0.6,0.1-0.8,0.3c0-0.2,0-0.3,0-0.4c-0.1-0.1-0.2-0.1-0.3-0.2
		c0.6,0.1,1.2,0.2,1.8,0.3c0.1,0,0.2,0,0.4,0.1c0.2,0,0.5,0,0.7,0.1c1.2,0.7,2.6,1.1,3.5,2.3c0.6,0.7,0.9,1.6,1.1,2.5
		c0,0.2,0.1,0.3,0.1,0.6c-0.2,0-0.4,0-0.7,0c-1.4-0.1-2.7,0.1-4.1,0.3c-1.5,0.2-3.1,0.4-4.6,0.5c-1.1,0.1-2.3,0.1-3.4,0.1
		c-1,0-2,0.3-2.8,0.9c-0.2,0.2-0.3,0.1-0.3-0.1c-0.1-1.9-1.1-3.3-2.4-4.6c-0.2-0.2-0.4-0.4-0.6-0.5c-0.2-0.1-0.5-0.1-0.8-0.2
		c0.6,0.5,1.1,0.9,1.7,1.4c0.7,0.7,1.3,1.6,1.6,2.6c0.1,0.3,0.1,0.6,0.2,0.9c0,0.3-0.1,0.3-0.3,0.2c-1.2-0.5-2.4-0.7-3.7-0.8
		c-1-0.1-2.1-0.1-3.1-0.2c-0.6,0-1.2-0.1-1.8-0.2c-0.1,0-0.2-0.1-0.3-0.1c-1.4,0-2.8-0.1-4.2,0.2c-0.3,0.1-0.6,0.2-0.9,0.2
		C35.5,27,35.4,27.1,35.3,27.1z M37.3,25.8c0.1-0.1,0.2-0.2,0.3-0.2c0,0,0-0.1,0-0.2c-0.1-0.1-0.1-0.2-0.2-0.3c0.1,0,0.2,0,0.2-0.1
		c0,0,0-0.1,0-0.1c-0.1-0.1-0.2-0.2-0.4-0.2c-0.1,0.1-0.2,0.3,0,0.4c0.2,0.1,0.1,0.2,0,0.3C37,25.8,37,25.8,37.4,26
		C37.3,25.9,37.3,25.8,37.3,25.8z"/>
	<path class="st40" d="M45.7,52.3c-0.2-0.4,0-0.6,0.2-0.9c0,0,0.2,0,0.3,0c0.1,0,0.2,0.1,0.3,0.1c-0.1-0.1-0.1-0.2-0.2-0.2
		c0.1-0.2,0.3-0.1,0.4,0c0.1,0.1,0,0.2,0,0.3c0.2-0.2,0.4,0,0.6,0.1c-0.1,0-0.1,0.1-0.3,0.1c0.2,0.1,0.3,0.1,0.5,0.1
		c0-0.1-0.1-0.1-0.1-0.2c0.3,0,0.5-0.1,0.8-0.1c0,0,0.1,0,0.1,0c0.1,0,0.1,0,0.1-0.1c0-0.1,0.2-0.1,0.3-0.1c0,0,0-0.1-0.1-0.1
		c-0.1,0-0.3,0-0.4,0.1c-0.1,0.2-0.2,0.1-0.3,0c-0.1-0.1-0.2-0.4-0.5-0.3c-0.2,0.1-0.4-0.3-0.4-0.5c0,0,0-0.1,0-0.1
		c-0.2-0.1-0.4-0.2-0.6-0.3c0.3-0.2,0.3-0.5,0.3-0.7c0.2,0,0.3,0,0.5-0.1c0.1,0,0.2-0.1,0.2-0.2c1.1-0.2,2.1-0.3,3.2-0.5
		c2.1-0.3,4.2-0.6,6.3-0.9c1.5-0.2,3-0.2,4.5-0.1c0.8,0.1,1.7,0.1,2.5,0.1c0.4,0,0.6,0.4,0.4,0.8c-1,1.6-2.2,3.1-3.9,4.2
		c-1.5,0.9-3.1,1.5-4.9,1.8c-1.6,0.3-3.2,0.4-4.8,0.5c-1.4,0.1-2.7,0.2-4.1,0.2c-0.5,0-0.9,0.1-1.4,0.1c-0.7,0.1-1.3,0.1-2,0.2
		c-0.2,0-0.4,0.1-0.6,0.1c-0.3,0-0.6,0.1-0.9,0.1c-0.6,0-1.2,0.1-1.9,0.1c-0.6,0-1.3,0.1-1.9,0.1l0,0c-0.1,0-0.3-0.1-0.4-0.1
		c-0.7,0-1.3,0-2,0c-0.4,0-0.8-0.1-1.2-0.1c-0.3-0.1-0.7-0.1-1-0.2c-0.3-0.1-0.6-0.2-0.9-0.2c-0.5,0-1-0.1-1.4-0.2
		c-1.6-0.4-3.1-0.8-4.7-1.2c-0.6-0.1-1.2-0.3-1.8-0.4c-0.1,0-0.1,0-0.2-0.1c-0.2-0.1-0.4-0.2-0.6-0.2c-0.1,0-0.2,0-0.3-0.1
		c0.2-0.1,0.3-0.1,0.5-0.2c-0.2,0-0.3-0.1-0.4-0.1c0.2-0.1,0.4-0.2,0.5-0.2c0.1,0.2,0.2,0.4,0.3,0.6c0.4-0.3,0.8-0.6,1.3-0.1
		c0,0,0,0,0,0c-0.1,0-0.2,0-0.2,0.1c0,0.2,0.1,0.1,0.2,0.1c0.2,0.1,0.3,0.3,0.5,0.4c0.1-0.2,0.1-0.4,0.4-0.3
		c-0.1-0.1-0.2-0.1-0.3-0.2c0.1,0,0.3-0.1,0.4-0.1c0.1,0,0.2,0.1,0.3,0.1c0.1,0.1,0.1,0.2,0.2,0.4c0,0,0,0,0,0
		c0.1,0,0.1-0.1,0.2-0.1c0,0.1,0,0.2,0.1,0.3c0,0.1,0.1,0.1,0.1,0.2c0.1,0,0.2,0,0.2-0.1c0.1-0.1,0.3-0.3,0.1-0.5
		c0.1-0.1,0.2-0.1,0.2-0.2c0.1-0.1,0.2-0.1,0.3-0.2c0,0.1,0.1,0.2,0.2,0.4c0-0.1,0-0.1,0-0.1c-0.1-0.2,0-0.3,0.2-0.4
		c0.2,0,0.2-0.4,0.2-0.6c0,0-0.1-0.1-0.1-0.1c0.1-0.1,0.2-0.2,0.3-0.3c0.1,0.2,0.2,0.1,0.3-0.1c0,0,0.1,0,0.1,0
		c0.2,0.2,0.4,0.1,0.6,0c0,0,0,0,0,0.1c-0.1,0.1-0.2,0.2-0.3,0.4c0,0,0,0,0,0c0.2-0.2,0.3,0,0.4,0.2c0,0-0.1,0-0.1,0c0,0-0.1,0,0,0
		C30.1,53,30,53.1,30,53.2c-0.1,0-0.2-0.1-0.3-0.1c0,0-0.1,0-0.1-0.1c0-0.1,0-0.2,0-0.2c0.2-0.1,0-0.2-0.1-0.4
		c-0.1,0.2-0.2,0.3-0.3,0.5c0.1,0,0.1,0,0.2,0.1c-0.1,0.1-0.1,0.1-0.1,0.2c0,0.1-0.1,0.1-0.1,0.2c0,0,0.1,0,0.1,0
		c0-0.1,0.2,0.3,0.2-0.1c0,0.1,0,0.1,0.1,0.2c0.2-0.4,0.4,0,0.6-0.1c-0.1,0.1-0.3,0.2-0.4,0.3c-0.1,0.1-0.2,0.3-0.3,0.5
		c0.2,0.2,0.3,0.5,0.5,0.7c0.1-0.2,0.2-0.3,0.3-0.4c-0.2-0.1-0.3-0.3-0.4-0.4c0,0,0-0.1,0-0.2c0.1,0,0.1,0.1,0.2,0.1
		c0.1,0.1,0.2,0.3,0.4,0.4c0,0,0,0,0.1-0.1c-0.1-0.1-0.1-0.1-0.2-0.2c0.1,0,0.2,0,0.3,0c0-0.1,0-0.1,0-0.2c0.1,0,0.3,0.1,0.4,0.1
		c0.1-0.3,0.1-0.3,0.5-0.2c0,0,0.1,0,0.1,0c0,0,0.1,0,0.1-0.1c0,0,0,0.1,0.1,0.1c0-0.1,0-0.2,0-0.3c0.3,0.1,0.6,0.1,0.9,0.2
		c0,0,0-0.1,0.1-0.2c0,0,0,0,0.1,0c0,0.1,0,0.2,0,0.4c0,0.1,0,0.3-0.1,0.4c0.1,0.1,0.3,0.1,0.4,0.2c0-0.2,0.1-0.4,0.1-0.5
		c0.1-0.1,0.2-0.2,0.3-0.2c0.2,0,0.3,0.2,0.2,0.4c-0.1,0.3,0.1,0.4,0.3,0.6c0-0.1,0-0.3,0-0.5c0.1,0.2,0.3,0.3,0.4,0.5
		c0.1,0.2,0.2,0.1,0.3,0.1c0.1,0,0.1-0.2,0.2-0.1c0.1-0.2,0.2-0.1,0.3,0c0.1,0,0.2,0,0.3,0c0.1,0.3-0.4,0.1-0.4,0.4
		c0.1,0,0.3,0,0.4,0.1c0.1,0,0.1,0.1,0.2,0.1c0,0,0,0.1-0.1,0.2c-0.2,0.2-0.2,0.2,0,0.4c0.1,0.1,0.3,0.3,0.5,0c-0.1,0-0.1,0-0.2,0
		c0,0-0.1,0-0.1,0c0,0,0-0.1,0-0.1c0.2-0.1,0.4-0.2,0.5-0.2c0.1,0,0.2,0.1,0.3,0.2c0,0,0,0-0.1,0.1c-0.1,0-0.1-0.1-0.2-0.2
		c0,0.2,0.1,0.3,0.1,0.5c0.1,0,0.3-0.1,0.4,0C37,56.2,37,56.1,37,56c0,0,0-0.1,0-0.1c0.1-0.4,0.1-0.4,0.5-0.2
		c-0.1-0.1-0.1-0.1-0.2-0.3c0.2,0,0.4,0,0.6,0c0.1,0,0.2,0.1,0.2-0.1c0.1,0,0.2,0,0.3,0c0,0,0,0.1,0,0.1c0.2,0,0.5,0,0.7,0
		c0.1-0.1,0.2-0.3,0.4-0.5c0,0,0,0,0,0c0,0.1-0.1,0.3-0.1,0.4c0.1-0.2,0.5-0.2,0.7,0c0.2,0.2,0.2,0.4,0.5,0.7c0-0.1,0-0.2,0-0.2
		c-0.2-0.2,0.1-0.3,0-0.4c-0.1-0.1-0.3-0.2-0.3-0.3c0-0.3,0-0.5,0-0.8c0-0.1,0.2-0.2,0.4-0.2c0.1,0,0.2-0.1,0.2-0.1
		c0-0.1,0-0.1-0.1-0.2c0.1,0,0.3,0.1,0.2-0.2c0,0,0-0.1,0.1-0.1c0,0,0.1,0.1,0.1,0.1c0,0,0,0,0.1,0c0-0.1,0-0.3,0-0.4
		c0-0.1,0-0.1,0.1-0.1c0,0,0,0,0.1-0.1c0.1-0.1,0.1-0.2,0.2-0.3c0,0.1,0.1,0.2,0.1,0.3c0-0.1,0.1-0.1,0.1-0.2c0,0,0.1,0.1,0,0.1
		c0,0.1-0.1,0.3-0.2,0.4c-0.2,0.2-0.2,0.2,0.2,0.4c-0.1,0-0.2,0.1-0.1,0.1c0.2,0.2,0.4,0.4,0.6,0.6c-0.3,0.1-0.3,0.1-0.3,0.3
		c-0.1-0.2-0.1-0.4-0.3-0.5c-0.1-0.1-0.3-0.2-0.5-0.3c0,0.2,0.1,0.3,0.3,0.4c0.2,0.1,0.3,0.3,0.4,0.5c0,0,0.1,0,0.3-0.1
		c-0.1,0.1-0.1,0.2-0.2,0.3c0.2,0,0.3,0,0.4,0c0.1,0,0.2,0.1,0.3,0.1c0.1,0.1,0.1,0.2,0,0.2c0,0,0,0.1,0.1,0.1
		c0.1-0.1,0,0.3,0.1,0.1c0.1-0.1,0.3,0,0.5,0c0-0.1,0-0.2,0-0.3c0.1-0.1,0.2-0.2,0.3-0.4c-0.1,0-0.2-0.1-0.3-0.1c0,0,0-0.2,0.1-0.3
		c0,0,0.1,0.1,0.2,0.1c-0.1-0.4,0.3-0.1,0.3-0.3c-0.1,0.1-0.1,0.2-0.2,0.4c0,0,0,0,0.1,0c0.1-0.1,0.2-0.3,0.3-0.4
		c0,0.1,0.1,0.2,0.1,0.2c0.1,0,0.3-0.1,0.4-0.1c0.1,0,0.2,0.2,0.2,0.3c0.1-0.2,0.1-0.5,0.2-0.6c0.2-0.2,0.1-0.4,0.1-0.7
		c0-0.1,0-0.1,0.1-0.2c-0.1,0-0.1,0-0.2,0c0,0.1,0,0.1,0.1,0.2c-0.1,0-0.1,0-0.1,0c-0.1-0.3-0.2-0.2-0.4-0.1c-0.2,0-0.3,0-0.5,0
		c-0.1,0-0.2,0-0.3,0.1c0-0.1,0.2-0.3-0.2-0.3c0.1-0.1,0.2-0.1,0.3-0.2c0,0,0-0.1-0.1-0.1c-0.1,0.1-0.3,0.2-0.4,0.2
		c0.1-0.4-0.3-0.1-0.5-0.3c0.1,0,0.2-0.1,0.2-0.1c0.1,0,0.1,0.1,0.2,0.1c0,0,0,0,0-0.1c-0.1,0-0.1-0.1-0.2-0.1c0,0,0,0,0,0
		c0.1,0,0.2,0.1,0.2,0.1c0.1,0,0.2,0.1,0.2,0.1c0-0.1,0.1-0.2-0.1-0.3c-0.1-0.1-0.2-0.3-0.3-0.5c0,0,0.1-0.1,0.2-0.2
		c0,0,0,0.1,0.1,0.1c0,0,0.1,0,0.1,0c0,0.4,0.3,0.1,0.4,0.1c0.1,0,0.3,0.2,0.4,0.2c0-0.1-0.1-0.3-0.1-0.4c0.2,0,0.3,0,0.5,0.1
		c0,0,0-0.1,0-0.3C45.2,51.9,45.4,51.9,45.7,52.3c0.1,0-0.2,0-0.4-0.1c0.1,0.3-0.1,0.5-0.3,0.6c0.1,0.1,0.2,0.1,0.2,0.2
		C45.4,52.8,45.7,52.6,45.7,52.3z M46,53.7c-0.1,0-0.2,0-0.3-0.1c0,0-0.1,0-0.1,0c0,0,0-0.1,0-0.1c0-0.1,0.1-0.1,0.2-0.2
		c-0.2-0.2-0.3-0.1-0.4,0.1c-0.2,0.2,0.2,0.5-0.1,0.7c0,0,0.1,0.1,0.1,0.1c0.1,0,0.1,0.1,0.2,0.1c-0.1,0.1-0.3,0.2,0,0.3
		c0.1,0,0.1,0.2,0.2,0.3c-0.3-0.2-0.3-0.1-0.5,0.1c0,0.1-0.2,0.2-0.3,0.2c-0.2-0.1-0.3,0.2-0.5,0.1c-0.1,0-0.2,0-0.2,0
		c0-0.1,0-0.1,0-0.2c0-0.1-0.1-0.2-0.1-0.2C44,54.9,43.9,55,43.9,55c0,0,0,0.1-0.1,0.1c-0.1,0.1-0.3,0.1-0.4,0.2c0,0-0.1,0.1,0,0.2
		c0,0,0.1,0.1,0.1,0.1c0,0,0.1,0,0.1,0c0.1-0.1,0.1-0.2,0.2-0.3c0,0,0,0,0.1,0c0,0,0,0.1,0,0.1c0.1,0,0.2,0,0.3,0.1c0,0,0,0,0-0.1
		c0.2,0.1,0.3-0.2,0.5,0c0,0,0.1,0,0.1,0c0.3,0.1,0.5-0.1,0.4-0.4c0,0,0,0,0,0c0.1,0.1,0.1,0.1,0.2,0.3c0-0.1,0-0.2,0-0.2
		c0,0,0-0.1,0-0.1c0.1,0,0.2,0.1,0.4,0.1c0,0,0.1,0,0.1,0.1c0.1,0.2,0.1,0.2,0.3,0.1c0,0-0.1,0-0.1,0c0.2-0.3,0.2-0.3,0-0.4
		c0.1-0.1,0.2-0.1,0.2-0.2c0.1,0.2,0.1,0.3,0.1,0.5c0.2-0.2,0.2,0.2,0.4,0.1c0-0.1,0-0.1-0.1-0.2c0,0,0,0,0.1,0c0,0,0.1,0.1,0.1,0.1
		c0.2-0.1,0-0.4,0.2-0.6c-0.3,0.3-0.4-0.3-0.7-0.1c0.1-0.1,0.2-0.2,0.2-0.3c0.1,0.1,0.2,0.2,0.3,0.3c0.1-0.1,0.2-0.2,0.2-0.3
		c-0.1,0-0.2,0-0.2,0c0.1-0.1,0.2-0.2,0.2-0.3c-0.1-0.3-0.6-0.4-0.8-0.2c-0.1,0.1-0.2,0.1-0.3,0.1c0-0.1,0-0.2,0-0.2
		c0-0.1-0.1-0.2-0.2-0.3c0,0-0.1,0-0.2,0c0,0.1,0,0.2,0.1,0.3C45.9,53.6,45.9,53.6,46,53.7z M47.4,53.1c0.1,0,0.1,0.1,0.2,0.1
		c0.1,0,0.2,0,0.3,0c0-0.1,0-0.1-0.1-0.1c-0.4-0.2-0.4-0.2-0.2-0.6c0,0,0-0.1,0-0.1c0-0.1,0-0.1-0.1-0.2c0,0,0.1,0,0.1,0
		c-0.1,0-0.2,0-0.3,0c0,0.1,0.1,0.2,0.1,0.3c-0.1-0.1-0.2-0.1-0.2-0.1c-0.1,0.2-0.1,0-0.1,0c-0.1-0.1-0.2-0.1-0.2-0.2
		c0-0.2-0.2-0.1-0.2-0.1c0,0.3-0.2,0.1-0.4,0.2c0,0-0.1,0.1-0.1,0.1c0,0.2,0.1,0.3,0.2,0.5c0.1-0.1,0.2-0.2,0.3-0.2
		c0.3,0.2,0.5,0.4,0.9,0.1C47.5,53,47.4,53.1,47.4,53.1z M28.3,54.3c0.6,0.5,0.7,0.6,0.9,0.4c-0.1-0.1-0.2-0.2-0.4-0.3
		c0.1,0,0.2,0,0.3-0.1c-0.1-0.1-0.1-0.1-0.2-0.2c0-0.1,0.1-0.1,0.1-0.2c-0.1,0-0.2-0.1-0.3-0.1c-0.1,0-0.3,0.1-0.4,0.2
		c0-0.1,0-0.2,0-0.3C28.3,53.9,27.9,54,28.3,54.3c-0.2,0.1-0.2,0.1-0.3,0.2c0.1,0,0.2,0.1,0.3,0.2C28.3,54.5,28.3,54.4,28.3,54.3z
		 M41.7,55.1c-0.1,0.1-0.1,0.4-0.4,0.2c0,0-0.1,0-0.1,0c0,0,0,0.1,0,0.1c0,0.1,0.2,0.2,0.2,0.3c-0.1,0.1,0,0.2,0.1,0.2
		c0.1,0,0.3,0,0.3-0.2C41.8,55.5,41.7,55.3,41.7,55.1z M30.5,54.7c0,0.1,0.1,0.2,0.1,0.3c0.1,0,0.2-0.1,0.3-0.1
		c0.1,0,0.2-0.1,0.2-0.2c-0.3-0.3-0.3,0.1-0.5,0.2c0.1-0.3,0.1-0.5-0.2-0.6c0.2,0.3-0.2,0.4-0.3,0.6c0,0,0,0,0.1,0.1
		C30.3,54.9,30.4,54.8,30.5,54.7z"/>
	<path class="st41" d="M43.6,59c-1.3,1.5-2.6,3-3.8,4.6c-0.3,0.3-0.5,0.7-0.9,1c-0.2,0.2-0.4,0.2-0.7,0.2c-1.3-0.3-2.6-0.8-3.9-1.3
		c-2.5-1-4.7-2.5-6.9-4c-2.2-1.6-4.4-3.2-6.6-4.9c-0.2-0.1-0.2-0.2-0.1-0.4c0.2-0.3,0.3-0.6,0.4-1c0.1-0.2,0.2-0.3,0.4-0.1
		c1,0.7,2.2,1.2,3.4,1.6c2.5,0.9,4.9,1.8,7.5,2.5c2.5,0.7,5.1,1.3,7.6,1.6c1.1,0.1,2.2,0.1,3.2,0.2C43.5,59,43.5,59,43.6,59z"/>
	<path class="st43" d="M60.8,45.9c0.7-0.1,1.5-0.2,2.2-0.3c0.1,0.7,0.5,1.3,0.9,2c-0.6,0-1.2-0.1-1.8-0.1c-1.8-0.2-3.6-0.1-5.4,0.1
		c-2.6,0.4-5.2,0.8-7.8,1.1c-1.5,0.2-3,0.3-4.4,0.4c-1,0.1-2.1,0-3.1,0c-0.7,0-1.2-0.3-1.5-0.9c-0.4-0.7-0.3-1.7,0.3-2.3
		c0,0,0.1-0.1,0.2-0.1c0.7,0.2,1.3,0.1,1.9-0.2c0.4-0.1,0.7-0.3,1.1-0.4c0.2-0.1,0.5-0.1,0.8,0c0.4,0.1,0.7,0.1,1.1-0.2
		c0.3-0.2,0.5-0.4,0.9-0.6c0,0.1,0.1,0.2,0.1,0.3c0.1,0.4,0.4,0.5,0.7,0.4c0.4-0.1,0.8-0.1,1.2-0.1c0.7,0.1,1.4,0.1,2.1-0.4
		c0.4-0.2,0.8-0.4,1.2-0.4c0.2,0,0.4,0.1,0.5,0.2c0.3,0.2,0.5,0.1,0.6-0.2c0.1-0.2,0.1-0.4,0.2-0.6c0-0.2,0.1-0.2,0.3-0.1
		c0.1,0.1,0.2,0.2,0.3,0.2c0.3,0.2,0.6,0.2,0.9,0.1c0.3-0.1,0.7-0.2,1,0c0.2,0.1,0.5,0,0.8-0.3c0.3-0.4,0.3-0.4,0.7-0.2
		c1.1,0.4,2.1,0.5,3.3,0.3c0.4-0.1,0.8,0,1.2,0c0.6,0,1.1,0,1.7-0.1c0.5-0.1,1,0,1.5,0.2c0.3,0.1,0.5,0.1,0.8,0
		c0.6-0.2,1.3-0.2,1.9,0c0.6,0.2,1.1,0.2,1.6-0.1c0.4-0.2,0.8-0.2,1.3-0.2c0.5,0.1,1,0.2,1.5,0c0.1,0,0.2,0.1,0.2,0.1
		c0.1,0.2,0.2,0.4,0.2,0.6c0.2,0.5-0.1,1-0.6,1.1c-0.6,0.2-1.1,0.1-1.7,0c-0.8-0.1-1.5-0.2-2.3-0.3c-0.1,0-0.2,0-0.3-0.1
		c-1.1-0.4-2.2-0.6-3.3-0.1c-1.2,0.6-2.5,0.7-3.8,0.8c-0.7,0-1.4,0-2,0c-1.4,0-2.7,0.1-4.1,0.2c-0.3,0-0.6,0-0.9,0
		c-0.7,0.2-1.5,0.4-2.2,0.6c-1.1,0.3-2.2,0.6-3.3,0.8c-0.7,0.1-1.5,0.1-2.2,0.1c-0.9,0-1.8-0.1-2.8-0.3c-0.3-0.1-0.4,0-0.4,0.2
		c0,0.2,0.2,0.3,0.4,0.3c0.5,0,0.9,0,1.4,0c0,0,0,0,0,0c0,0.1,0,0.2,0.2,0.2c0.6,0,1.1,0.1,1.7,0.1c0.1,0,0.1,0,0.2,0
		c0.3,0.1,0.3,0.1,0.5,0c0,0,0.1,0,0.1,0c0.1,0,0.2,0,0.3,0c0.1,0.1,0.1,0.2,0.2,0.3c0-0.1,0.1-0.3,0.1-0.4c0,0,0,0,0.1,0
		c0,0.1,0,0.1,0.1,0.2c0,0,0.1-0.1,0.1-0.1c0.3-0.1,0.6-0.1,0.9-0.2c0.1,0,0.1,0,0.2-0.1c-0.1,0-0.1,0-0.2-0.1
		c1.1-0.3,2.3-0.6,3.4-0.9c0.2-0.1,0.4-0.2,0.7-0.2c0.8-0.1,1.5,0,2.3-0.1c0.8-0.1,1.7-0.1,2.5-0.1c0.9,0,1.9,0,2.8,0
		C60.2,46,60.5,45.9,60.8,45.9z"/>
	<path class="st44" d="M67.9,33.2c0.9-0.1,1.8-0.2,2.7-0.2c1-0.1,2.1,0.1,3.1,0.3c0.1,0,0.2,0.1,0.3,0.2c0.6,1,0.5,1.9,0.2,3
		c-0.3,0.7-0.7,1.3-1.3,1.9c-0.2,0.2-0.4,0.5-0.8,0.5c0-0.3,0-0.6,0-0.9c-0.2-1.6-1.1-2.5-2.4-3.1c-2.5-1-5.5,0.2-6.6,2.6
		c-0.3,0.7-0.5,1.4-0.7,2.1c-0.1,0.2,0,0.5,0,0.8c-0.5,0-1,0-1.6,0c-1.1-0.1-2.2-0.2-3.2-0.4c-1.5-0.3-2.9-0.8-4.3-1.5
		c-0.2-0.1-0.4-0.2-0.6-0.3c0.1-0.2,0.3-0.4,0.4-0.6c0.7-1,1.1-2.2,1.2-3.4c0.4,0.1,0.8,0.2,1.2,0.2c1,0.2,2.1,0.1,3.1,0.1
		c2.2-0.1,4.4-0.5,6.5-0.9c0.6-0.1,1.3-0.2,1.9-0.3c0.2,0,0.3,0.1,0.5,0c0.7-0.1,1.4-0.2,2-0.2c0.8,0,1.6,0,2.4,0
		c-0.7-0.1-1.4-0.1-2.1-0.1c-0.2,0-0.5,0-0.7,0C68.8,33.2,68.3,33.2,67.9,33.2z"/>
	<path class="st40" d="M50.6,28.4c0.6-0.5,1.3-0.7,2.1-0.8c1.1-0.1,2.1-0.1,3.2-0.1c1.6,0,3.1-0.2,4.7-0.4c1.6-0.2,3.3-0.5,5-0.4
		c2.2,0.1,4.1,0.9,5.6,2.5c0.2,0.2,0.4,0.5,0.6,0.7c0.1,0.1,0.1,0.2,0.2,0.3c-1.1-0.4-2.2-0.4-3.3-0.3c-1.3,0.1-2.6,0.2-3.9,0.4
		c-2,0.4-4,0.8-6,1.3c-1.4,0.4-2.8,0.9-4.2,1.4c-0.1,0.1-0.3,0.1-0.4,0.2c-0.2,0.1-0.3,0-0.2-0.1c0-1.2-0.6-2-1.3-2.9
		C52.1,29.6,51.4,29,50.6,28.4z"/>
	<path class="st44" d="M41.8,30.9c0.7,0,1.4,0,2.1,0c0.1,0,0.3,0.1,0.4,0.1c0.2,0,0.5,0,0.7,0c0.6,0,1.3,0.1,1.9,0.2
		c1,0.2,2.1,0.4,3.1,0.6c0.9,0.2,1.8,0.5,2.6,0.9c0.1,0.1,0.3,0.2,0.4,0.2c0.7,0.5,0.9,1.2,0.8,2c-0.2,1-0.6,1.9-1.2,2.8
		c-0.4,0.6-1,0.8-1.6,0.8c-0.1,0-0.2,0-0.3,0c0-0.4,0.1-0.8,0.1-1.2c-0.1-2-1.3-3.6-3.3-4c-1.3-0.3-2.5-0.3-3.8,0.1
		c-1.6,0.5-2.6,1.6-3,3.3c-0.1,0.2,0,0.5,0,0.8c-2.9-1-5.2-2.9-7.8-4.5c0.5-0.4,1-0.6,1.6-0.7c1.3-0.3,2.7-0.7,4-1
		c0.2-0.1,0.4-0.1,0.6-0.1c0.8-0.1,1.5-0.1,2.3-0.2C41.6,31,41.7,31,41.8,30.9z"/>
	<path class="st40" d="M39.4,58.2c-2.2-0.5-4.4-1-6.6-1.5c-0.9-0.2-1.9-0.5-2.8-0.8c-0.1,0-0.1,0-0.2-0.1c0,0,0-0.1,0-0.1
		c0.2,0,0.4,0.1,0.6,0.1c1,0.2,2,0.4,2.9,0.6c0.7,0.1,1.4,0.4,2.1,0.5c0.4,0.1,0.9,0.1,1.3,0.1c1.2,0,2.4,0,3.6-0.2
		c1.5-0.1,3-0.4,4.5-0.6c1.2-0.1,2.4-0.2,3.7-0.3c2.3-0.1,4.7-0.1,7-0.6c0.6-0.1,1.2-0.3,1.9-0.4c-0.6,0.7-1.2,1.3-1.9,1.8
		c-0.5,0.3-0.9,0.6-1.5,0.7c-0.5,0.1-0.9,0.4-1.1,0.8c-0.4,0.8-0.8,1.7-1.2,2.5c-0.4,0.9-0.8,1.9-1.2,2.9c0,0.1-0.1,0.1-0.1,0.2
		c-0.5-0.4-0.9-0.8-1.4-1.2c-1.4-1.1-2.8-2.3-4.2-3.4c-0.1-0.1-0.2-0.2-0.3-0.3c-0.2-0.1-0.5-0.2-0.7-0.4c-0.1-0.1-0.1-0.1-0.2-0.1
		c-0.6,0-1.1-0.1-1.7-0.1c-0.7-0.1-1.4-0.2-2-0.2C39.9,58.2,39.7,58,39.4,58.2z"/>
	<path class="st42" d="M71.3,42.9c-0.3,0-0.6,0-0.9,0c-0.7,0-1.5-0.1-2.2,0.2c-0.5,0.2-1,0.1-1.5,0c-0.6-0.1-1.2,0-1.8,0.1
		c-0.1,0-0.3,0.1-0.4,0c-0.7-0.3-1.4-0.2-2.2-0.1c-0.5,0-1,0-1.5,0.1c-0.5,0-0.9,0-1.4,0c-0.8,0.1-1.6-0.1-2.4-0.2
		c-0.2,0-0.4-0.1-0.6-0.1c-0.3,0-0.6,0-0.8,0.3c-0.1,0.2-0.3,0.3-0.5,0.2c-0.3-0.1-0.7-0.1-1,0c-0.3,0.1-0.5,0.1-0.7-0.1
		c-0.1,0-0.1-0.1-0.2-0.1c-0.6-0.3-0.7-0.3-1,0.4c-0.1,0.2-0.2,0.3-0.4,0.2c-0.4,0-0.8,0-1.2,0.1c-0.5,0.1-1,0.4-1.5,0.5
		c-0.4,0.1-0.8,0-1.2,0.1c-0.3,0-0.7,0-1,0.1c-0.2,0-0.3-0.1-0.4-0.2c-0.2-0.5-0.3-0.5-0.8-0.2c-0.2,0.1-0.3,0.2-0.5,0.3
		c-0.3,0.2-0.7,0.3-1.1,0.3c-0.3,0-0.7,0.1-1.1,0.2c-0.6,0.2-1.1,0.4-1.7,0.5c-0.4,0.1-0.8,0-1.2-0.2c-0.1-0.1-0.2-0.2-0.2-0.3
		c0-0.1,0.1-0.3,0.2-0.3c0.3-0.2,0.6-0.2,0.8-0.4c0.6-0.4,1.3-0.7,1.8-1.1c0.7-0.5,1.4-0.7,2.2-0.7c1.4,0,2.7-0.3,4-0.7
		c0.6-0.2,1.3-0.3,1.9-0.4c1-0.2,2-0.3,3-0.6c0.8-0.3,1.6-0.1,2.4,0.1c1.1,0.2,2.3,0.5,3.4,0.7c0.4,0.1,0.8,0.1,1.2,0.2
		c1.1,0,2.2,0,3.3,0c1.6,0,3.2-0.1,4.7-0.2c0.4,0,0.8,0.1,1.1,0.5c0.3,0.3,0.6,0.5,1,0.7c0.1,0.1,0.2,0.1,0.3,0.2
		C71.3,42.8,71.3,42.8,71.3,42.9z"/>
	<path class="st40" d="M54.2,33.8c0.2-0.1,0.4-0.2,0.6-0.3c1.6-0.9,3.4-1.4,5.2-1.8c1.5-0.3,3-0.7,4.5-0.9c1.3-0.2,2.6-0.3,4-0.4
		c0.5,0,1,0.1,1.4,0c1.1-0.1,2.1,0.2,3.1,0.8c0.5,0.3,0.8,0.8,1,1.4c0.1,0.2,0,0.3-0.2,0.3c-0.1,0-0.2,0-0.4,0
		c-1.5-0.3-3-0.3-4.6-0.1c-2.5,0.4-4.9,0.8-7.4,1.2c-1.6,0.3-3.2,0.5-4.8,0.4C55.8,34.3,55.1,34.1,54.2,33.8z"/>
	<path class="st41" d="M54.5,58c0.2-0.1,0.3-0.2,0.5-0.2c0.6-0.3,1.1-0.6,1.5-1c0.5-0.5,1-1,1.5-1.5c0.2-0.2,0.4-0.3,0.6-0.4
		c0.4-0.2,0.9-0.4,1.4-0.6c0,0.7,0.1,1.4,0,2.1c-0.2,2-0.5,4.1-0.8,6.1c0,0,0,0.1,0,0.1C57.8,60.9,56.3,59.3,54.5,58z"/>
	<path class="st45" d="M70.5,49.3c-0.3,0-0.6,0-0.8,0c-0.1,0-0.2,0-0.3,0c-0.4-0.1-0.7,0.1-1,0.4c-0.2,0.3-0.5,0.5-0.7,0.8
		c-0.2,0.3-0.4,0.5-0.6,0.9c-0.1-0.2-0.3-0.3-0.4-0.5c-0.4-0.5-0.8-1.1-1.2-1.6c-0.1-0.2-0.1-0.3,0.1-0.5c0.5-0.4,1-0.8,1.5-1.1
		c0.5-0.3,1.2-0.4,1.8-0.3c0.1,0,0.1,0,0.2,0.1c0.5,0.6,1,1.1,1.4,1.7C70.5,49.3,70.5,49.3,70.5,49.3z"/>
	<path class="st40" d="M67.2,40.7c0.4-0.1,0.9-0.2,1.3-0.3c1.4-0.3,2.8-0.7,4.1-1.2c0.2-0.1,0.3-0.2,0.4-0.3
		c0.1-0.1,0.3-0.1,0.4-0.1c0.2,0,0.3,0.1,0.3,0.3c0,0.2-0.1,0.4-0.2,0.6c-0.5,0.9-1.2,1.5-2.2,1.8c0,0-0.1,0-0.1,0
		c-0.4,0.2-0.7,0.2-1.1-0.1c-0.2-0.2-0.7-0.2-1-0.3c0-0.1,0-0.2-0.2-0.2c-0.5,0-1,0-1.4,0C67.3,40.8,67.3,40.7,67.2,40.7z"/>
	<path class="st40" d="M45.9,41.6c0.3-0.1,0.5-0.1,0.8-0.2c0.8-0.2,1.7-0.3,2.5-0.5c1.3-0.3,2.2-1.1,3.1-2c0.2-0.2,0.2-0.2,0.5-0.1
		c0.8,0.3,1.5,0.6,2.3,0.8c0.5,0.2,1,0.4,1.5,0.5c0,0,0,0.1,0,0.1c-0.1,0-0.2,0-0.4,0c-0.6-0.1-1.1-0.1-1.7-0.2
		c-0.2,0-0.4,0.1-0.6,0.1c-0.7,0.4-1.5,0.5-2.2,0.6c-1,0-1.9,0.2-2.9,0.5c-0.6,0.2-1.1,0.3-1.7,0.4c-0.1,0-0.3,0-0.4,0
		C46.4,41.7,46.2,41.6,45.9,41.6z"/>
	<path class="st46" d="M67.2,45.7c-1.3,0-2.2,0.6-2.8,1.7c0,0-0.1,0-0.1,0c-0.3-0.5-0.6-1.1-0.8-1.6c-0.2-0.4-0.1-0.5,0.3-0.6
		c0.7-0.3,1.5-0.4,2.2-0.2c0.3,0.1,0.5,0.3,0.8,0.5C66.9,45.4,67,45.5,67.2,45.7z"/>
	<path class="st47" d="M65.1,48.8c-0.2-0.3-0.4-0.6-0.5-0.9c0-0.1,0-0.2,0-0.2c0.4-0.7,1-1.3,1.8-1.5c0.6-0.2,1.2,0,1.7,0.4
		c0.1,0.1,0.1,0.2,0.2,0.3C67,46.9,66,47.7,65.1,48.8z"/>
	<path class="st48" d="M68.3,50.6c0.2-0.2,0.4-0.5,0.6-0.7c0.1-0.1,0.2-0.2,0.4-0.2c0.2,0,0.4,0,0.5,0c0.2,0,0.4,0.1,0.6,0.1
		c0,0-0.1,0.1-0.1,0.1c0.1,0.2,0.2,0.4,0.3,0.6c-0.2-0.1-0.4-0.1-0.6,0.1c-0.1,0.1-0.3,0-0.4,0.1c-0.1,0-0.2,0-0.2,0.1
		c0,0,0,0.2,0.1,0.2c0.1,0.1,0.2,0.1,0.3,0.2c-0.5,0.2-0.8,0.6-0.7,1.1c-0.4,0.1-0.7,0.1-1.1,0.2c-0.1,0-0.3-0.1-0.4-0.2
		c-0.1-0.1-0.1-0.2,0-0.3c0.1-0.2,0.2-0.4,0.2-0.6C67.7,51,67.9,50.7,68.3,50.6c0,0.4,0.3,0.4,0.6,0.2c0.1-0.1,0.1-0.2,0.2-0.3
		c-0.1,0-0.2-0.1-0.3-0.1C68.6,50.6,68.4,50.6,68.3,50.6z M68.5,51.9c0.3,0,0.5-0.2,0.5-0.4c0-0.1-0.1-0.2-0.2-0.2
		c-0.2,0-0.5,0.2-0.4,0.4C68.4,51.8,68.5,51.8,68.5,51.9z M69,50.5c0.2-0.1,0.4-0.2,0.6-0.3c-0.1-0.1-0.2-0.2-0.4-0.2
		c-0.2,0-0.3,0.1-0.3,0.3C68.9,50.3,69,50.4,69,50.5z"/>
	<path class="st49" d="M69,52.3c-0.1-0.6,0.2-0.9,0.7-1.1c-0.1-0.1-0.2-0.1-0.3-0.2c0-0.1-0.1-0.2-0.1-0.2c0-0.1,0.1-0.1,0.2-0.1
		c0.1,0,0.3,0,0.4-0.1c0.2-0.1,0.4-0.1,0.6-0.1c0,0.1,0,0.2,0.1,0.3c0,0.1,0.1,0.2,0.2,0.3c-0.1,0.1-0.2,0.2-0.2,0.3
		c-0.2,0.1-0.4,0.3-0.6,0.4C69.7,52,69.4,52.2,69,52.3z"/>
	<path class="st50" d="M67.2,40.7c0.1,0,0.1,0.1,0.2,0.1c0.5,0,1,0,1.4,0c0.2,0,0.2,0.1,0.2,0.2c-0.2,0-0.5,0-0.7,0
		c-1.4,0-2.8,0.1-4.2,0.2c-1.7,0.1-3.3,0.1-4.9-0.3c-0.1,0-0.1,0-0.2-0.1c0,0,0,0-0.1-0.1c0.3,0.1,0.6,0.1,0.9,0.2
		c0.5,0.1,1.1,0.2,1.6,0.2c1.5,0,3-0.1,4.5-0.1c0.3,0,0.6-0.1,0.8-0.2C66.9,40.7,67.1,40.7,67.2,40.7z"/>
	<path class="st51" d="M47.9,38.2c-0.4,0-0.5-0.3-0.5-0.9c0-0.2,0.4-0.4,0.8-0.4c0.4,0,0.6,0.3,0.6,0.6C48.7,38,48.4,38.2,47.9,38.2
		z"/>
	<path class="st52" d="M69.6,45.8c-0.2,0.3-0.5,0.5-0.7,0.8c0,0-0.1,0-0.2,0c-0.4-0.3-0.7-0.6-1-0.9c0,0,0-0.1-0.1-0.2
		c0.1,0,0.1,0,0.2,0C68.4,45.6,69,45.6,69.6,45.8C69.6,45.7,69.6,45.8,69.6,45.8z"/>
	<path class="st51" d="M45.6,34.8c0,0.4-0.3,0.8-0.6,0.8c-0.3,0-0.5-0.3-0.5-0.6c0-0.2,0.1-0.4,0.2-0.5c0.1-0.1,0.4-0.3,0.4-0.3
		C45.4,34.5,45.5,34.7,45.6,34.8z"/>
	<path class="st40" d="M58.6,20.6c0.1,0.1,0.3,0.1,0.3,0.2c0.1,0.1,0,0.2,0,0.4c0.2-0.2,0.6,0.1,0.8-0.3c0,0.2,0.1,0.4-0.1,0.4
		c0.1,0.1,0.2,0.2,0.2,0.2c0,0.1,0,0.2,0,0.3c-0.2,0,0-0.3-0.2-0.1c0-0.2-0.2-0.2-0.3-0.3c-0.3-0.2-0.4-0.1-0.5,0.1
		c-0.3-0.2-0.5-0.3-0.8-0.5c0.1,0,0.2-0.1,0.2,0c0.2,0.2,0.2,0,0.3-0.1c-0.2-0.2-0.5-0.1-0.6,0c-0.3,0.2-0.3,0.1-0.3-0.2
		c-0.1,0.1-0.2,0.2-0.3,0.3c0-0.1-0.3,0-0.2-0.3c0.3-0.1,0.6-0.1,1-0.1C58.3,20.6,58.5,20.6,58.6,20.6z"/>
	<path class="st51" d="M70.3,37.8c0.4,0,0.4,0,0.4,0.3c0,0.5-0.1,0.7-0.4,0.7c-0.3,0-0.6-0.3-0.6-0.5C69.7,38.1,70,37.8,70.3,37.8z"
		/>
	<path class="st53" d="M67.3,36.4c0.1,0.3-0.1,0.5-0.3,0.6c-0.2,0.1-0.4,0.1-0.5,0c-0.2-0.2-0.2-0.3-0.1-0.5
		c0.1-0.1,0.1-0.2,0.2-0.3c0.1-0.2,0.3-0.4,0.5-0.3C67.3,36,67.3,36.2,67.3,36.4z"/>
	<path class="st43" d="M48.2,47.4c0.1,0,0.1,0,0.2,0.1c-0.1,0-0.1,0.1-0.2,0.1c-0.3,0.1-0.6,0.1-0.9,0.2c0,0-0.1,0.1-0.1,0.1
		c0,0,0-0.1-0.1-0.2c0,0,0,0-0.1,0c0,0.1,0,0.2-0.1,0.4c-0.1-0.1-0.1-0.2-0.2-0.3c-0.1,0-0.2,0-0.3,0c0,0-0.1,0-0.1,0
		c-0.2,0.1-0.2,0.1-0.5,0c0,0-0.1,0-0.2,0c-0.6,0-1.1-0.1-1.7-0.1c-0.2,0-0.2-0.1-0.2-0.2c1,0.1,2.1,0.2,3.1,0.2
		C47.3,47.5,47.8,47.4,48.2,47.4z"/>
	<path class="st54" d="M64.1,39.1c0.3,0,0.6,0.3,0.6,0.5c0,0.1-0.1,0.2-0.1,0.3c-0.2,0.2-0.8,0-0.9-0.3
		C63.6,39.3,63.7,39.1,64.1,39.1z"/>
	<path class="st54" d="M43,37c0.2-0.1,0.4,0.1,0.5,0.3c0,0.1,0.1,0.3,0,0.4c-0.1,0.1-0.3,0.2-0.4,0.1c-0.2,0-0.3-0.2-0.4-0.3
		c-0.1-0.1-0.1-0.2-0.1-0.3c0-0.1,0.2-0.2,0.3-0.2C42.9,37,43,37,43,37z"/>
	<path class="st55" d="M60.8,45.9c-0.3,0-0.6,0.1-0.9,0.1c-0.9,0-1.9,0-2.8,0c-0.8,0-1.7,0-2.5,0.1c-0.8,0.1-1.5,0-2.3,0.1
		c0.1,0,0.3-0.1,0.4-0.1c1-0.1,2-0.1,3.1-0.1c1.1,0,2.3,0,3.4-0.1C59.7,45.9,60.3,45.9,60.8,45.9z"/>
	<path class="st56" d="M70.9,51.1c-0.1-0.1-0.1-0.2-0.2-0.3c0-0.1,0-0.2-0.1-0.3c-0.1-0.2-0.2-0.4-0.3-0.6c0,0,0-0.1,0.1-0.1
		c0.1,0,0.2,0,0.3,0.1c0.5,0.1,0.7,0.5,0.4,0.9C71.1,51,71,51.1,70.9,51.1z"/>
	<path class="st57" d="M39.4,58.2c0.3-0.2,0.5,0,0.8,0c0.7,0.1,1.4,0.2,2,0.2c0.6,0,1.1,0.1,1.7,0.1c0.1,0,0.1,0.1,0.2,0.1
		C42.5,58.6,41,58.5,39.4,58.2z"/>
	<path class="st58" d="M66.8,40.7c-0.3,0.1-0.5,0.2-0.8,0.2c-1.5,0.1-3,0.1-4.5,0.1c-0.5,0-1.1-0.1-1.6-0.2c0.4,0,0.8,0,1.2,0.1
		c1.5,0.1,2.9,0.1,4.4-0.1C65.9,40.8,66.4,40.8,66.8,40.7z"/>
	<path class="st59" d="M54.5,21c0.1,0,0.2,0,0.3,0c0,0,0,0,0,0.1c-0.2,0-0.4,0.1-0.7,0.1c-0.4,0-0.8-0.1-1.3-0.1
		c-0.4,0-0.7,0.1-1.1,0.1c0,0,0,0.1,0,0.1c0-0.1,0-0.2,0-0.2c0.6-0.2,1.2-0.1,1.8,0C53.9,21.1,54.2,21,54.5,21z"/>
	<path class="st60" d="M20.1,44c0-0.1,0-0.1-0.1-0.2c-0.3-0.2-0.6-0.3-0.9-0.5c-0.1,0-0.2-0.1-0.2-0.2c0-0.1-0.1-0.2-0.1-0.3
		c0.1,0.1,0.2,0.1,0.2,0.2c0.3,0.2,0.7,0.5,1,0.7c0,0,0.1-0.1,0.1-0.1C20.2,43.7,20.1,43.9,20.1,44z"/>
	<path class="st40" d="M35.6,27c0.3-0.1,0.6-0.2,0.9-0.2c1.4-0.2,2.8-0.2,4.2-0.2c0.1,0,0.2,0,0.3,0.1c-0.3,0-0.7,0-1,0
		C38.5,26.6,37.1,26.7,35.6,27z"/>
	<path class="st61" d="M32.6,75.2c0.8,0.1,1.6,0.1,2.4,0.2c0.4,0,0.8,0,1.2,0.1c0.1,0,0.2,0.1,0.3,0.1c-1.1-0.1-2.3-0.2-3.4-0.2
		C33,75.3,32.8,75.2,32.6,75.2z"/>
	<path class="st62" d="M67.9,33.2c0.4,0,0.8-0.1,1.3-0.1c0.2,0,0.5,0,0.7,0c0.7,0,1.4,0,2.1,0.1c-0.8,0-1.6,0-2.4,0
		c-0.7,0-1.4,0.1-2,0.2c-0.1,0-0.3,0-0.5,0C67.4,33.3,67.6,33.3,67.9,33.2z"/>
	<path class="st40" d="M38.1,56.3c0.6,0,1.3-0.1,1.9-0.1c0.6,0,1.2-0.1,1.9-0.1c-0.5,0.1-1,0.2-1.5,0.2c-0.6,0.1-1.2,0.1-1.8,0.1
		C38.4,56.4,38.3,56.3,38.1,56.3z"/>
	<path class="st61" d="M38.3,75.6c1.6,0,3.2,0,4.7,0c-0.1,0-0.2,0-0.3,0c-1.4,0-2.8,0-4.2,0C38.5,75.6,38.4,75.6,38.3,75.6z"/>
	<path class="st40" d="M34.6,56.1c0.4,0,0.8,0.1,1.2,0.1c0.7,0,1.3,0,2,0c0.1,0,0.3,0,0.4,0.1c-0.6,0-1.2,0.1-1.8,0
		C35.7,56.3,35.1,56.1,34.6,56.1z"/>
	<path class="st63" d="M45.9,41.6c0.2,0,0.5,0.1,0.7,0.1c-0.3,0-0.6,0.1-1,0.1c-0.6,0.1-1.2,0.1-1.9,0.2c0.4-0.1,0.7-0.1,1.1-0.2
		c0.2,0,0.4,0,0.6,0c0.1,0,0.1-0.1,0.2-0.1C45.8,41.6,45.8,41.6,45.9,41.6z"/>
	<path class="st64" d="M47.5,49.4c-0.1,0.1-0.2,0.1-0.2,0.2c-0.2,0-0.3,0.1-0.5,0.1c-0.7,0-1.4,0.1-2.2,0.1c0,0,0,0,0,0
		c0.1,0,0.2,0,0.3,0c0.6,0,1.2-0.1,1.9-0.1c0,0,0.1,0,0.1-0.1C47,49.4,47.2,49.4,47.5,49.4z"/>
	<path class="st44" d="M41.8,30.9c-0.1,0.1-0.2,0.1-0.3,0.2c-0.8,0.1-1.5,0.1-2.3,0.2C40.1,31.1,40.9,31,41.8,30.9z"/>
	<path class="st44" d="M46.9,31.2c-0.6-0.1-1.3-0.1-1.9-0.2c-0.2,0-0.5,0-0.7,0c-0.1,0-0.3-0.1-0.4-0.1C44.9,31,45.9,31.1,46.9,31.2
		z"/>
	<path class="st40" d="M42.7,55.9c0.2,0,0.4-0.1,0.6-0.1c0.7-0.1,1.3-0.1,2-0.2c-0.7,0.1-1.3,0.2-2,0.3
		C43.1,55.9,42.9,55.9,42.7,55.9z"/>
	<path class="st65" d="M17.5,39.4c0,0.1,0,0.1-0.1,0.2c-0.5,1.4-0.6,2.7,0.4,4c0.2,0.3,0.7,0.5,1,0.7c0.1,0.1,0.2,0.2,0.3,0.3
		c-0.1,0-0.3,0.1-0.4,0.1c-0.9-0.1-1.5-0.6-1.8-1.5c-0.4-1.2-0.3-2.4,0.3-3.5C17.3,39.6,17.4,39.5,17.5,39.4
		C17.5,39.4,17.5,39.4,17.5,39.4z"/>
	<path class="st66" d="M37.6,20.7c0.1,0,0.1,0,0.2,0.1C38.2,21,38.6,21,39,21c0.8-0.1,1.5-0.3,2.2-0.6c0.6-0.2,1.1-0.2,1.7-0.1
		c0.1,0,0.2,0.1,0.2,0.2c-0.1,0-0.2,0.1-0.3,0.1c-0.6-0.1-1.2,0.1-1.8,0.3c-0.6,0.1-1.2,0.3-1.9,0.4c-0.5,0.1-1,0-1.5-0.3
		c-0.1,0-0.1-0.1-0.2-0.1C37.5,20.8,37.6,20.8,37.6,20.7z"/>
	<path class="st66" d="M21.9,35.5c0,0-0.1-0.1-0.2-0.1c0-0.1,0.1-0.1,0.1-0.2c0.1-0.1,0.2-0.1,0.4-0.2c1.1-0.4,2-1.1,2.7-2.1
		c0-0.1,0.1-0.1,0.2-0.1c0,0.1,0,0.2,0,0.3c-0.6,1.1-1.4,1.9-2.6,2.2C22.3,35.4,22.1,35.4,21.9,35.5z"/>
	<path class="st66" d="M29.3,22.5c-0.1-0.2-0.2-0.3-0.2-0.5c-0.1-1,0.1-1.9,0.8-2.6c0.1-0.1,0.3-0.2,0.5-0.3c0.1,0,0.2,0,0.3,0
		c0,0.1,0,0.2-0.1,0.2c-0.1,0.1-0.2,0.2-0.2,0.3c-0.7,0.7-1,1.6-1,2.6C29.3,22.3,29.3,22.4,29.3,22.5C29.3,22.5,29.3,22.5,29.3,22.5
		z"/>
	<path class="st66" d="M42.7,19.3c0.4,0,0.8,0.1,1.2,0.2c0.6,0.2,1.2,0.4,1.8,0.6c0.4,0.2,0.9,0.1,1.3,0c0.1,0,0.3,0,0.4,0
		c0,0,0,0.1,0,0.1c-0.1,0.1-0.2,0.1-0.2,0.2c-0.6,0.3-1.2,0.3-1.8,0c-0.4-0.2-0.8-0.4-1.2-0.6c-0.4-0.2-0.9-0.3-1.3-0.4
		C42.8,19.4,42.7,19.4,42.7,19.3C42.7,19.4,42.7,19.3,42.7,19.3z"/>
	<path class="st66" d="M50.6,18.1c0.9,0.1,1.8,0.3,2.4,1c0.1,0.1,0.3,0.4,0.2,0.5c-0.2,0.2-0.3-0.1-0.5-0.2c-0.7-0.5-1.5-0.9-2.3-1
		c-0.1,0-0.2,0-0.3,0c-0.1,0-0.1,0-0.2,0c0-0.1,0.1-0.2,0.1-0.2C50.3,18.1,50.4,18.1,50.6,18.1z"/>
	<path class="st66" d="M18.9,38.7c-0.1-0.9,0.8-1.9,1.5-2.1c0.1,0,0.1,0,0.2,0c0,0-0.1,0.1-0.1,0.1c-0.8,0.4-1.1,1.1-1.2,2
		c0,0.2,0,0.4,0,0.6c0,0.1-0.1,0.1-0.1,0.2c0,0-0.1-0.1-0.1-0.1C19,39.2,19,39,18.9,38.7z"/>
	<path class="st67" d="M34.7,21.3c1,0.8,2.2,0.4,3.3,0.3c-0.3,0.4-1.4,0.6-2.1,0.5C35.4,22,34.9,21.9,34.7,21.3z"/>
	<path class="st66" d="M26.6,28.8c-0.1,0.6-0.5,1.1-1,1.5c-0.4,0.3-1.1,0.5-1.5,0.3c0.1-0.1,0.2-0.1,0.3-0.2
		c0.9-0.2,1.5-0.8,1.9-1.6C26.4,28.8,26.5,28.8,26.6,28.8C26.6,28.7,26.6,28.8,26.6,28.8z"/>
	<path class="st66" d="M20.2,35.1c-0.1,0-0.2,0-0.2,0c-0.1,0-0.1-0.1-0.2-0.1c0,0,0.1-0.1,0.2-0.1c0.5-0.2,0.9-0.4,1.4-0.7
		c0.2-0.1,0.5-0.3,0.7-0.5c0.1,0,0.1-0.1,0.2-0.1c0,0.1,0,0.2,0,0.2c-0.2,0.2-0.4,0.4-0.6,0.5c-0.4,0.2-0.8,0.5-1.3,0.7
		C20.3,35.1,20.2,35.1,20.2,35.1z"/>
	<path class="st67" d="M53.2,18.2c0.1,0,0.3,0,0.4,0.1c0.7,0.3,1.4,0.4,2.2,0.4c0.1,0,0.2,0.1,0.3,0.1C56,18.9,55.9,19,55.8,19
		c-0.4,0-0.7,0-1.1,0C54.2,18.9,53.7,18.6,53.2,18.2C53.2,18.3,53.2,18.3,53.2,18.2z"/>
	<path class="st67" d="M22.3,30.9c0.2-0.1,0.3-0.2,0.4-0.2c0.7-0.3,1.4-0.6,1.9-1.3c0,0,0.1,0,0.1-0.1c0,0,0,0.1,0,0.1
		c-0.4,0.8-1.4,1.5-2.2,1.5C22.4,31,22.4,31,22.3,30.9z"/>
	<path class="st67" d="M28.8,24.9c0.2,0.7-1.4,2.2-2.1,2C27.5,26.3,28.3,25.8,28.8,24.9z"/>
	<path class="st67" d="M24.8,27.5c0,0-0.1,0-0.1-0.1c0-0.1,0.1-0.1,0.1-0.2c0.3-0.1,0.6-0.2,0.8-0.4c0.4-0.3,0.7-0.6,1.1-0.9
		c0,0,0.1,0,0.2-0.1c0,0,0,0.1,0,0.1C26.6,26.6,25.5,27.5,24.8,27.5z"/>
	<path class="st67" d="M55.8,17.8c0,0,0.1,0,0.1,0c0.6,0.1,1.2,0.2,1.8,0.3c0,0,0.1,0.1,0.1,0.1c0,0-0.1,0.1-0.1,0.1
		c-0.1,0-0.2,0-0.2,0c-0.6,0-1.1-0.1-1.6-0.4C55.8,17.9,55.7,17.9,55.8,17.8C55.7,17.9,55.7,17.8,55.8,17.8z"/>
	<path class="st67" d="M49.6,19.4c-0.5,0.5-1.9,0.6-2.3,0.1C48.1,19.8,48.8,19.4,49.6,19.4z"/>
	<path class="st40" d="M37.3,25.8c0,0,0,0.1,0.1,0.2c-0.3-0.1-0.4-0.1-0.2-0.5c0.1-0.1,0.2-0.2,0-0.3c-0.2-0.1-0.1-0.3,0-0.4
		c0.1,0.1,0.2,0.2,0.4,0.2c0,0,0,0.1,0,0.1c0,0-0.1,0-0.2,0.1c0.1,0.1,0.2,0.2,0.2,0.3c0,0,0.1,0.1,0,0.2
		C37.5,25.6,37.4,25.7,37.3,25.8z"/>
	<path class="st40" d="M46,53.7c0-0.1-0.1-0.1-0.1-0.2c0-0.1,0-0.2-0.1-0.3c0.1,0,0.1,0,0.2,0c0.1,0.1,0.1,0.2,0.2,0.3
		c0,0.1,0,0.2,0,0.2c0.1,0,0.2-0.1,0.3-0.1c0.2-0.2,0.7-0.1,0.8,0.2c0,0.1-0.1,0.2-0.2,0.3c0.1,0,0.1,0,0.2,0
		c-0.1,0.1-0.1,0.2-0.2,0.3c-0.1-0.1-0.2-0.2-0.3-0.3c-0.1,0.1-0.1,0.1-0.2,0.3c0.3-0.2,0.4,0.4,0.7,0.1c-0.2,0.2,0,0.4-0.2,0.6
		c0,0-0.1-0.1-0.1-0.1c0,0,0,0-0.1,0c0,0.1,0,0.1,0.1,0.2c-0.2,0.1-0.2-0.3-0.4-0.1c0-0.2-0.1-0.3-0.1-0.5c-0.1,0-0.1,0.1-0.2,0.2
		c0.3,0.1,0.3,0.1,0,0.4c0,0,0.1,0,0.1,0c-0.2,0.1-0.2,0.1-0.3-0.1c0,0-0.1-0.1-0.1-0.1c-0.1,0-0.2-0.1-0.4-0.1c0,0,0,0.1,0,0.1
		c0,0,0,0.1,0,0.2c-0.1-0.1-0.2-0.2-0.2-0.3c0,0,0,0,0,0c0.1,0.4-0.1,0.5-0.4,0.4c0,0-0.1,0-0.1,0c-0.1-0.3-0.3,0-0.5,0
		c0,0.1,0,0.1,0,0.1c-0.1,0-0.2,0-0.3-0.1c0,0,0,0,0-0.1c0,0,0,0-0.1,0c-0.1,0.1-0.1,0.2-0.2,0.3c0,0-0.1,0-0.1,0
		c0,0-0.1-0.1-0.1-0.1c0-0.1,0-0.2,0-0.2c0.1-0.1,0.2-0.1,0.4-0.2c0,0,0-0.1,0.1-0.1c0-0.1,0.1-0.1,0.2-0.2c0,0.1,0.1,0.1,0.1,0.2
		c0,0.1,0,0.1,0,0.2c0.1,0,0.2-0.1,0.2,0c0.2,0.1,0.3-0.2,0.5-0.1c0.1,0,0.2-0.1,0.3-0.2c0.1-0.3,0.2-0.3,0.5-0.1
		c-0.1-0.1-0.1-0.2-0.2-0.3c-0.3-0.1-0.1-0.2,0-0.3c-0.1,0-0.1-0.1-0.2-0.1c0,0-0.1-0.1-0.1-0.1c0.3-0.2-0.1-0.5,0.1-0.7
		c0.1-0.2,0.2-0.2,0.4-0.1c-0.1,0.1-0.1,0.1-0.2,0.2c0,0,0,0.1,0,0.1c0,0,0.1,0,0.1,0C45.8,53.6,45.9,53.7,46,53.7z"/>
	<path class="st40" d="M47.4,53.1c0,0,0.1-0.1,0.1-0.2c-0.4,0.3-0.6,0.1-0.9-0.1c-0.1,0.1-0.2,0.1-0.3,0.2c-0.1-0.2-0.1-0.3-0.2-0.5
		c0,0,0.1-0.1,0.1-0.1c0.1-0.1,0.3,0.1,0.4-0.2c0,0,0.2-0.2,0.2,0.1c0,0.1,0.1,0.1,0.2,0.2c0,0.1,0.1,0.2,0.1,0
		c0.1,0,0.1,0.1,0.2,0.1c0-0.1-0.1-0.2-0.1-0.3c0.1,0,0.2,0,0.3,0c0,0-0.1,0-0.1,0c0,0.1,0,0.1,0.1,0.2c0,0,0,0.1,0,0.1
		c-0.2,0.4-0.2,0.4,0.2,0.6c0,0,0,0,0.1,0.1c-0.1,0-0.2,0-0.3,0C47.6,53.3,47.5,53.2,47.4,53.1z"/>
	<path class="st40" d="M28.3,54.3c0,0.1,0,0.2-0.1,0.3c-0.1-0.1-0.2-0.1-0.3-0.2C28.1,54.4,28.2,54.3,28.3,54.3
		c-0.4-0.3,0-0.4,0.1-0.5c0,0.1,0,0.2,0,0.3c0.1-0.1,0.3-0.2,0.4-0.2c0.1,0,0.2,0.1,0.3,0.1c0,0.1-0.1,0.1-0.1,0.2
		c0,0,0.1,0.1,0.2,0.2c-0.1,0-0.2,0-0.3,0.1c0.2,0.1,0.3,0.2,0.4,0.3C29,54.9,28.9,54.8,28.3,54.3z"/>
	<path class="st40" d="M46,52.4c-0.3,0.2-0.5,0.4-0.8,0.6c0,0-0.1-0.1-0.2-0.2c0.2-0.2,0.4-0.4,0.3-0.6C45.5,52.3,45.8,52.4,46,52.4
		z"/>
	<path class="st40" d="M41.7,55.1c0,0.2,0.1,0.4,0.1,0.6c0,0.2-0.2,0.2-0.3,0.2c-0.2,0-0.2-0.1-0.1-0.2c0-0.1-0.1-0.2-0.2-0.3
		c0,0,0-0.1,0-0.1c0,0,0.1,0,0.1,0C41.5,55.5,41.5,55.2,41.7,55.1z"/>
	<path class="st40" d="M30.5,54.7c-0.1,0.1-0.2,0.1-0.3,0.2c0,0,0,0-0.1-0.1c0.1-0.2,0.5-0.2,0.3-0.6c0.2,0.1,0.3,0.2,0.2,0.6
		c0.2,0,0.2-0.4,0.5-0.2c-0.1,0-0.2,0.1-0.2,0.2c-0.1,0-0.2,0.1-0.3,0.1C30.6,54.9,30.5,54.8,30.5,54.7z"/>
	<path class="st68" d="M68.5,51.9c0,0-0.1-0.1-0.1-0.1c0-0.2,0.2-0.4,0.4-0.4c0.1,0,0.2,0.1,0.2,0.2C69,51.7,68.8,51.9,68.5,51.9z"
		/>
	<path class="st69" d="M69,50.5c-0.1-0.1-0.1-0.2-0.1-0.2c0-0.2,0.2-0.3,0.3-0.3c0.1,0,0.2,0.2,0.4,0.2C69.4,50.3,69.2,50.4,69,50.5
		z"/>
	<path class="st70" d="M68.3,50.6c0.1,0,0.3-0.1,0.4-0.1c0.1,0,0.2,0,0.3,0.1c-0.1,0.1-0.1,0.2-0.2,0.3
		C68.6,51.1,68.3,51.1,68.3,50.6L68.3,50.6L68.3,50.6z"/>
</g>
</svg>
