<?xml version="1.0" encoding="utf-8"?>
<!-- Generator: Adobe Illustrator 27.0.0, SVG Export Plug-In . SVG Version: 6.00 Build 0)  -->
<svg version="1.1" id="Layer_1" xmlns="http://www.w3.org/2000/svg" xmlns:xlink="http://www.w3.org/1999/xlink" x="0px" y="0px"
	 viewBox="0 0 253.5 160.7" style="enable-background:new 0 0 253.5 160.7;" xml:space="preserve">
<style type="text/css">
	.st0{fill:none;stroke:#FFFFFF;stroke-width:3.0004;stroke-linecap:round;stroke-linejoin:round;stroke-miterlimit:4.0005;}
	.st1{fill:#FFFFFF;}
</style>
<g id="Group_87" transform="matrix(0.966, -0.259, 0.259, 0.966, -12.296, 56.333)">
	<path id="Path_10382" class="st0" d="M-197.6-107c1.2,12.2,5.1,21,9.7,21c5.6,0,10.1-13.2,10.1-29.5S-182.4-145-188-145
		c-4.6,0-8.4,8.9-9.7,21"/>
	<path id="Path_10383" class="st0" d="M-166.9-86c5.6,0,10.1-13.2,10.1-29.5s-4.5-29.5-10.1-29.5"/>
	<line id="Line_233" class="st0" x1="-166.9" y1="-86" x2="-188" y2="-86"/>
	<line id="Line_234" class="st0" x1="-166.9" y1="-145" x2="-188" y2="-145"/>
	<path id="Path_10384" class="st0" d="M-213.4-115.5c-5.3,0-9.6-4.3-9.6-9.6c0-5.3,4.3-9.6,9.6-9.6c5.3,0,9.6,4.3,9.6,9.6
		c0,0.4,0,0.7-0.1,1.1h15.9c1.6,0,2.9,3.8,2.9,8.5s-1.3,8.5-2.9,8.5h-15.9c0,0.4,0.1,0.7,0.1,1.1c0,5.3-4.3,9.6-9.6,9.6
		c-5.3,0-9.6-4.3-9.6-9.6C-223-111.2-218.7-115.5-213.4-115.5"/>
	<path id="Rectangle_73" class="st0" d="M-95.3-67.3L-95.3-67.3c0-7,5.7-12.8,12.8-12.8H-48c7,0,12.8,5.7,12.8,12.8l0,0
		c0,7-5.7,12.8-12.8,12.8h-34.5C-89.6-54.6-95.3-60.3-95.3-67.3z"/>
	<path id="Path_10385" class="st0" d="M-65.8-106.9h-16c-7.4,0-13.4,6-13.4,13.4l0,0c0,7.4,6,13.4,13.4,13.4h42.4
		c7.4,0,13.4-6,13.4-13.4l0,0c0-7.4-6-13.4-13.4-13.4h-1"/>
	<path id="Path_10386" class="st0" d="M-90.2-132.1c-5.8,2.3-5.1,9.2-5.1,11.2l0,0c0,7.8,6.3,14.1,14.1,14.1c0,0,0,0,0,0h15.4"/>
	<path id="Path_10387" class="st0" d="M-40.5-106.9h10.8c7.8,0,14.1-6.3,14.1-14.1l0,0l0,0c0-7.8-6.3-14.1-14.1-14.1c0,0,0,0,0,0
		h-10.9"/>
	<path id="Path_10388" class="st0" d="M-40.6-135h61.7c8.1,0,14.7-6.6,14.7-14.7l0,0c0-8.1-6.6-14.7-14.7-14.7h-96.7"/>
	<path id="Path_10389" class="st0" d="M-160.7-66.5h18.1c7.6,0,11.3,2.1,17.8,6l0,0c6.5,3.9,13.9,6,21.5,6h46.6"/>
	<path id="Path_10390" class="st0" d="M-160.7-164.4"/>
	<path id="Path_10391" class="st0" d="M-160.7-164.4h19.4c3.2,0,6.3-0.9,9-2.7l0,0c16.6-11.1,38.4-10.6,54.5,1.1l33.3,24.1
		c2.6,1.9,4.1,4.8,4.1,8v30.5c0,2.9-2.4,5.3-5.3,5.3c0,0,0,0,0,0l0,0c-15.3,0-27.6-12.4-27.6-27.6v-4"/>
	<path id="Path_10392" class="st0" d="M-174-86c3,11.8,7.8,19.4,13.2,19.4c9.1,0,16.6-21.9,16.6-48.9s-7.4-48.9-16.6-48.9
		c-5.4,0-10.2,7.6-13.2,19.4"/>
	<path id="Path_10393" class="st0" d="M-73.4-129.9h-6.3c-13.9,0-25.2-11.3-25.2-25.2c0,0,0,0,0,0l0,0"/>
</g>
<path class="st1" d="M204.5,5.5c-0.5-1.9-1.8-3.2-3.8-3.6c-0.9-0.2-1.9-0.3-2.9-0.3c-0.7,0-1.3,0.1-2,0.1c-0.4,0-0.7,0.1-1.1,0.1
	c-2.3,0.2-4.6,0.6-7,1.3c-4.9,1.4-9.9,3.6-15.8,6.8c-3.6,1.9-7,4.2-10.4,6.3c-4.8,3.1-8.9,5.4-13,7.1c-6.7,2.8-13.6,6.2-20.9,10.3
	c-0.1,0-0.2,0.1-0.3,0.1l-0.2,0.1c-0.2,0.1-0.5,0.2-0.7,0.3c-0.5,0.3-1.1,0.5-1.6,0.9c-1.1,0.7-2.1,1.5-3.1,2.3l-0.2,0.1
	c-0.3,0.2-0.5,0.5-0.7,0.7l-0.2,0.2c-0.1,0.2-0.3,0.3-0.4,0.5l-0.1,0.1l-0.7-0.1c-0.6-0.1-1.2-0.1-1.8-0.2c-1.1-0.1-2.3-0.3-3.4-0.4
	c-1-0.1-2-0.2-3-0.4c-0.7-0.1-1.4-0.2-2.2-0.3c-1.8-0.2-3.7-0.5-5.6-0.6c-3.3-0.2-6.5,0.2-9.4,1.2c-2.6,0.9-5.2,1.9-7.8,2.9
	c-4.1,1.6-7.5,3.6-10.5,6.1c-1.2,1-2.4,1.9-3.7,2.9c-0.5,0.4-0.9,0.7-1.4,1.1c-0.1,0.1-0.3,0.2-0.4,0.3c-0.3,0.2-0.5,0.3-0.7,0.6
	c-0.3,0.3-0.5,0.4-0.9,0.6c-1.8,0.6-3.5,1.6-5,2.9c-0.2,0.2-0.5,0.4-0.7,0.7c-0.4,0.4-0.9,0.8-1.4,1.2c-2.4,2-4.6,4.3-6.8,7.5
	c-0.5,0.7-0.9,1.4-1,2.3c-0.1,0.6-0.3,1.2-0.8,1.8c-0.8,1.2-1.1,2.5-1,3.8c0.2,1.7,0.4,3.4,0.9,5.1c0.4,1.4,0.7,3,0.9,4.7
	c0.3,3.3,1.1,6.7,2.6,10.7c0.6,1.5,1.3,2.9,2.2,4.3c-0.1,0.1-0.3,0.2-0.4,0.2c-0.4,0.2-0.9,0.5-1.3,0.7c-1.1,0.6-2.3,1.2-3.4,1.8
	c-1.7,0.8-3,1.9-3.9,3.3l-0.1,0.1c-0.1,0.2-0.2,0.3-0.3,0.4c-0.8,0.7-1,1.6-1.2,2.5c-0.4,1.7-0.2,3.5,0.6,5.5
	c0.2,0.4,0.3,0.9,0.5,1.3c0.3,0.6,0.5,1.3,0.7,1.9c0.4,1.1,0.7,2.2,1,3.3c0.1,0.4,0.2,0.8,0.4,1.2c-1.7,1.1-3.5,1.8-5.5,2.1
	c-0.9,0.2-1.9,0-2.8-0.3c-0.2-0.1-0.3-0.1-0.5-0.2c-0.3-0.1-0.6-0.3-0.9-0.4c-0.2-0.1-0.4-0.1-0.6-0.2c-0.7-0.2-1.3-0.5-2-0.6
	c-2-0.4-4.1-0.3-6.1-0.2l-0.7,0c-1.4,0.1-2.6,0.7-3.5,1.8c-0.3,0.4-0.6,0.8-0.8,1.2c-1.5,2.6-2,5.3-1.8,8.2c0.3,3.8,2.1,6.9,5.4,9
	c1.3,0.9,2.7,1.4,4.2,1.4c0.6,0,1.3,0,1.9,0l0.3,0c-0.1,0.1-0.1,0.2-0.2,0.3c-0.3,0.6-0.6,1.3-0.9,2c-1.3,3.3-1.2,6.2,0.3,8.9
	c1.6,3,3.7,4.8,6.5,5.6c1.1,0.3,2.2,0.5,3.4,0.8c0.4,0.1,0.8,0.1,1.1,0.1c1,0,1.9-0.3,2.7-0.8c1.2-0.9,2.2-1.8,3-2.8
	c0.5-0.7,0.8-1.5,0.9-2.4l0-0.4c0-0.6,0.1-1.2,0.1-1.8c0.1-0.6,0.2-1,0.3-1.4c0.3-0.7,0.5-1.4,0.8-2.1c0.2-0.6,0.5-1.2,0.7-1.8
	c0.2-0.6,0.6-1,1.2-1.3c1.1-0.6,2.3-1.3,3.4-2c0.5-0.3,0.9-0.5,1.4-0.8l0.3-0.2c0.1,0.1,0.2,0.3,0.4,0.4c0.4,0.5,0.8,0.9,1.1,1.4
	c0.9,1.2,2,2.2,3.3,3c2.3,1.5,4.9,2.5,7.7,3.2c0.9,0.2,2,0.4,3-0.2c0.7,0.2,0.9,0.2,1.8-0.2c2.5-1.1,4.9-2.4,7.3-4
	c0.6-0.4,1.1-0.7,1.7-1.1l0.5-0.3c0.1,0.2,0.3,0.4,0.4,0.6c0.4,0.6,0.9,1.2,1.3,1.8c1.2,1.9,2.6,3.3,4.1,4.5c2.8,2.1,6,3.9,9.5,5.6
	c1.7,0.8,3.5,1.3,5.6,1.5c2.3,0.2,4.6,0.1,6.8,0.1l0.9,0c2.1-0.1,3.8,0,5.4,0.2c2.3,0.3,4.5,0.4,6.7,0.2c3.4-0.2,6.3-1,8.9-2.6
	l0.5-0.3c2.2-1.4,4.5-2.8,6.9-3.9c0.5-0.3,1.1-0.6,1.5-0.9c1.9-1.3,3.8-2.6,5.7-3.9c1.8-1.2,3.2-2,4.6-2.6c0.7-0.3,1.5-0.6,2.1-0.9
	l1.1-0.5c2.2-1.1,4.5-2.2,6.8-3.3c1.7-0.8,3.4-1.7,5-2.7c4.7-3,8.8-6.9,13-10.8c1.7-1.6,3-3.6,3.9-5.9c1.4-3.7,3-7.2,5-11.3
	c0.7-1.5,1.6-2.9,2.7-4.3c0.7-0.8,1.2-1.5,1.6-2.2c1.1-1.6,1.7-3.1,2-4.6c0.2-1.3,0.3-2.8,0.2-4.6c-0.1-1.6-0.4-2.9-1-4.1
	c-1-2-2.4-3.8-4.1-5.3l-0.5-0.4c0.1-0.2,0.1-0.3,0.2-0.5c0.1-0.3,0.2-0.5,0.3-0.8c0.3-0.7,0.5-1.3,0.7-2c0.5-1.6,0.6-3,0.3-4.3
	c0-0.2-0.1-0.3-0.1-0.5c-0.1-0.3-0.2-0.6-0.2-0.9l-0.1-0.4c-0.3-1.7-0.6-3.4-0.9-5.1c-0.2-1.3-0.8-2.3-1.7-3.2
	c-1.9-1.9-3.9-3.2-6.1-4c-0.1,0-0.2-0.1-0.3-0.1l0.5-1.1c0.5-1.1,1.1-2.1,1.6-3.2c0.4-0.8,0.6-1.7,0.7-2.7c0.2-2.3-0.4-4.5-1.8-6.4
	c-1.6-2.3-3.7-4.2-6.5-6c-2-1.3-3.9-2-5.9-2.2c0,0-0.1,0-0.1,0c0.3-0.2,0.5-0.4,0.8-0.6c0.2-0.1,0.4-0.3,0.5-0.4
	c0.4-0.3,0.9-0.7,1.3-1.1c1.1-1,2.2-1.9,3.4-2.6c0.8-0.5,1.6-1.1,2.6-1.8c0.6-0.5,1.2-0.9,1.8-1.4c0.8-0.7,1.7-1.3,2.5-1.9
	c2.3-1.7,4-3.2,5.4-4.9c1.6-1.9,3.4-3.6,5.5-5.2c0.7-0.6,1.5-1.2,2.2-2c1.5-1.6,2.2-3.2,2.3-5C205.6,10.6,205.3,8.4,204.5,5.5z
	 M191.8,110.3c-1.4,1.6-2.8,2.8-4.2,3.7c-1.2,0.8-2.5,1.2-4,1.4c-1.6,0.2-3,0.2-4.3,0c-1-0.1-1.9-0.4-2.7-0.9
	c-0.2-0.1-0.4-0.3-0.6-0.4c-0.7-0.9-1.5-2-1.9-3.3c-0.2-0.7-0.4-1.3-0.7-2c-0.4-0.9-0.4-1.2,0-2.2c3-0.7,5.4-2.6,7.5-4.3
	c0.8-0.6,1.6-1.3,2.3-1.9l0.5-0.5c1.5-1.3,3.4-3,4.8-5.3c1.5-2.6,3.4-4.9,4.8-6.7c0.5-0.6,1-1.3,1.5-2c0.2-0.2,0.4-0.5,0.5-0.8
	c0.1,0.1,0.2,0.1,0.3,0.2c1.5,1.4,2.7,2.8,3.5,4.5c0.4,0.8,0.7,1.8,0.7,2.7c0.1,1.4,0.2,3-0.1,4.6c-0.2,1.2-0.7,2.4-1.5,3.5
	c-0.3,0.5-0.7,1-1.1,1.5c-0.3,0.4-0.6,0.8-0.8,1.1c-0.5,0.7-0.9,1.3-1.4,2c-0.3,0.4-0.6,0.9-0.9,1.3c-0.2,0.3-0.4,0.5-0.5,0.7
	c-0.4,0.4-0.7,0.8-1.1,1.1C192.2,109,191.7,109.5,191.8,110.3z M38.8,144.9c0.1-0.2,0.1-0.3,0.2-0.5c0.8-2.2,2.4-3.7,5.1-5
	c0,0,0.1,0,0.1,0c0.1,0,0.1,0,0.2-0.1c0.8-0.4,0.8-0.7,0.6-1.6l0-0.1l-0.1-0.1c-0.3-0.2-0.6-0.3-0.9-0.3c-0.3,0-0.6,0.1-0.8,0.2
	c-0.5,0.2-0.9,0.5-1.3,0.7c-1.6,1-3,1.6-4.5,1.8c-1.6,0.2-3.1-0.1-4.3-0.8c-2.8-1.6-4.4-4-4.9-7.2c-0.4-2.5,0.1-5,1.5-7.6
	c0.7-1.3,1.7-1.9,3.1-1.9c0,0,0,0,0,0c0.4,0,0.9,0,1.3,0c1,0,2.1,0,3.1,0c1.1,0,2.3,0.3,3.6,0.9c0.3,0.1,0.5,0.2,0.8,0.4
	c1.5,0.7,3.1,0.9,5,0.5c2.2-0.4,4.3-1.3,6.2-2.7c0.4-0.3,0.8-0.5,1.2-0.8l0.3-0.2c0,0.1,0.1,0.1,0.1,0.2c2,3.9,4.1,7.4,6.4,10.4
	c0.8,1.1,1.6,2.2,2.4,3.2l1.2,1.6c0.4,0.5,0.7,0.9,0.5,1.6c-0.2,0.1-0.4,0.3-0.5,0.5c-0.5,0.4-1,0.9-1.6,1.3
	c-1.3,0.8-2.6,1.7-3.9,2.5c-0.5,0.3-1,0.6-1.5,0.9c-0.1,0-0.2,0.1-0.2,0.1c-1.4,0.2-2,1.2-2.3,2c-0.2,0.5-0.4,0.9-0.6,1.4
	c-0.4,1.1-0.9,2.2-1.3,3.3c-0.2,0.7-0.3,1.4-0.4,2c0,0.2-0.1,0.5-0.1,0.7c0,0.3-0.1,0.7-0.1,1l0,0.4c0,0.6-0.3,1-0.7,1.4
	c-0.7,0.7-1.4,1.4-2.1,1.9c-0.6,0.5-1.4,0.7-2.2,0.6l-0.8-0.2c-1.1-0.2-2.3-0.5-3.4-0.8c-1.8-0.6-3.2-1.9-4.5-4
	c-1.2-2.1-1.4-4.4-0.5-7.1C38.7,145.3,38.7,145.1,38.8,144.9z M65,140.3l0.3-0.3c0.3-0.3,0.6-0.5,0.9-0.8c1-1,1.3-2.2,0.7-3.4
	c-0.3-0.5-0.6-1-0.9-1.3c-2.5-3.2-4.7-6.2-6.5-9.2c-0.9-1.4-1.6-2.8-2.4-4.2c-0.2-0.5-0.5-0.9-0.7-1.4c-0.7-1.4-1.5-1.6-2.9-1
	c-0.2,0.1-0.3,0.2-0.5,0.2c-0.1-0.1-0.1-0.3-0.2-0.4l-0.2-0.7c-0.6-2.1-1.3-4.2-2.2-6.3c-0.5-1.1-0.6-2.3-0.5-3.6
	c0-0.3,0.1-0.6,0.2-0.8c1.4,0.6,2.8,1.4,4,2.3c1.4,1,2.6,2.3,3.5,3.7c1.3,2,2.8,4.1,4.4,6.1c1.4,1.7,2.5,3.6,3.5,5.5l0.6,1
	c0.7,1.1,1.3,2.2,2,3.4c0.7,1.3,1.5,2.6,2.2,3.9c0.4,0.7,0.8,1.3,1.4,2c1.7,2.3,3.2,4.9,4.5,8.4l0.2,0.5c0.3,0.8,0.6,1.6,0.9,2.4
	c0.1,0.4,0.2,0.8,0.2,1.2c0,0.3-0.1,0.5-0.5,0.5c-0.3,0-0.5,0-0.7,0c-3.1-0.7-5.7-1.9-8.1-3.5c-0.9-0.6-1.7-1.4-2.3-2.3
	c-0.2-0.3-0.5-0.6-0.8-0.9c-0.1-0.1-0.2-0.2-0.3-0.3L65,140.3z M69.2,126.8l-0.4-0.7c-1.7-2.9-3.4-6-5.5-8.7
	c-0.9-1.1-1.7-2.3-2.5-3.4c-0.4-0.6-0.8-1.1-1.2-1.7l-0.2-0.3c-0.3-0.5-0.7-1-1.1-1.4c-1.5-1.9-3.6-3.5-6.5-5
	c-0.1,0-0.1-0.1-0.2-0.1c-0.2-0.1-0.3-0.1-0.3-0.2c0.8-1.1,1.6-1.9,2.7-2.4c3.4-1.7,6.6-3.6,9.7-5.4c0.6-0.4,1.3-0.7,2-1
	c1.4-0.6,2.8-0.4,4.1,0.5c1.9,1.3,3.4,2.9,4.6,4.2l0.6,0.6c1.1,1.2,2.2,2.4,3.4,3.6c2.4,2.4,4.6,5.1,6.5,7.9
	c1.4,2.2,2.9,4.4,4.3,6.6c0.7,1.1,1.4,2.3,2.2,3.4c1.4,2.3,2.5,4.8,3.2,7.8l0.1,0.5c0.3,1.4,0.7,2.8,0.7,4.3c0,0.9,0,1.8-0.3,2.7
	l-0.1,0.1c-0.2,0.1-0.4,0.2-0.6,0.3c-1.6,0.7-3.1,1.7-4.3,2.5c-2.8,2-6.2,4.3-9.9,5.9c-0.1,0-0.2,0.1-0.3,0.1
	c-0.1-1.3-0.6-2.6-1.1-3.8l-0.4-1c-0.8-2-1.7-4.1-2.8-6.1c-0.5-0.8-0.9-1.4-1.3-1.9C72.3,132.2,70.7,129.5,69.2,126.8z M94.3,141.2
	l0.1-0.1c0.3-0.1,0.6-0.3,0.9-0.4c1.1-0.4,1.7-1.3,1.9-2.5c0.3-2.1,0.1-4.2-0.4-6.4c-0.3-1.1-0.6-2.3-1-3.7c-0.5-1.6-1.1-3.2-2-4.6
	l-1.1-1.9c-2.7-4.4-5.4-8.9-8.6-13c-1-1.2-2-2.4-3-3.4c-1.9-1.9-3.9-4-5.8-6.2c-1.2-1.3-2.5-2.6-4.1-3.7c-1.9-1.4-4-1.7-6.3-0.8
	c-0.8,0.3-1.5,0.7-2.2,1.1c-0.3,0.1-0.5,0.3-0.8,0.4c-0.3,0.2-0.6,0.3-0.9,0.5l-0.2,0.1c-0.3-0.2-0.5-0.5-0.7-0.8
	c-0.8-1.2-1.4-2.6-1.9-4c-1-2.8-1.6-5.3-2-7.9c-0.1-0.5-0.1-0.9-0.1-1.4c0-0.6-0.1-1.1-0.2-1.7c-0.2-1-0.4-2-0.7-3
	c-0.1-0.5-0.2-1-0.4-1.5c-0.3-1.5-0.5-2.8-0.6-4c0-1.1,0.6-2,1.2-2.9l0.1-0.1c0,0,0.1-0.1,0.3-0.1c2.5-0.6,4.4-0.4,6.1,0.6
	c2.8,1.6,5.9,3.4,8.4,5.8c2,1.9,3.9,4,5.7,5.9c3.4,3.7,6.6,7.6,9.3,10.9l1.2,1.5c2.5,3.1,5.1,6.4,7.4,9.8c2.5,3.8,5.1,8.1,8,13.4
	l0.8,1.5c1.9,3.5,3.9,7.2,5.5,10.9c1.1,2.5,2.1,5.1,3.1,7.6c0.4,0.9,0.8,1.9,1.1,2.8c1.2,2.8,2.3,5.7,3.4,8.5l0.1,0.2
	c0.3,0.6,0.5,1.2,0.5,1.9c0,0.3,0.1,0.5,0.2,0.7c0.1,0.1,0.1,0.2,0.1,0.3c0.1,0.4,0.1,0.7,0.1,1.1c0,0.2,0,0.4,0.1,0.5
	c0,0.1,0,0.1,0,0.2c0,0.2,0,0.4,0.1,0.6c0.3,0.5,0.3,1.1,0.2,1.7c0,0.1,0,0.1,0,0.2c-0.6,0-1.1,0-1.7,0c-2.1,0.1-4.1,0.1-6.1-0.3
	c-0.9-0.2-2.2-0.5-3.5-1.1c-3-1.3-5.9-3-8.8-5c-1.7-1.1-3-2.6-4.1-4.3c-0.3-0.4-0.6-0.8-0.8-1.2c-0.2-0.3-0.4-0.5-0.6-0.8
	c-0.1-0.1-0.2-0.3-0.2-0.5c0,0,0,0,0,0C92.3,142.3,93.2,141.7,94.3,141.2z M110.7,129.9c-1.5-3.7-3.4-7.3-5.1-10.4
	c-2.5-4.6-5.4-10.1-8.8-15.4c-2-3-4.3-6.2-7.3-9.9l-1.9-2.4c-2.1-2.6-4.2-5.2-6.4-7.8c-2.7-3.2-5.3-6-7.9-8.6c-2-2-4.4-3.9-7.8-5.9
	c-0.9-0.6-1.8-1.1-2.8-1.6c-1.6-0.9-3.4-1.1-5.5-0.9c-0.3,0-0.5,0.1-0.9,0.1c0.2-0.3,0.3-0.6,0.5-0.8c1.7-2.3,3.5-4.8,5.9-6.7
	c0.6-0.5,1.1-0.9,1.6-1.4c0.5-0.4,1-0.8,1.4-1.3c1.1-0.9,2.4-1.6,3.8-2.1c0.5-0.2,0.9-0.4,1.3-0.6c0.1-0.1,0.3-0.2,0.4-0.2
	c0.1-0.1,0.4-0.2,0.5-0.4c0.2-0.4,0.6-0.7,1.1-1c0.2-0.1,0.3-0.2,0.5-0.3c0.5-0.4,0.9-0.7,1.4-1.1c0.8-0.6,1.6-1.2,2.4-1.9
	c2.3-1.9,4.9-3.5,7.7-4.9c3.9-1.8,7.8-3.3,11.6-4.4c1.8-0.5,3.7-0.8,6.2-0.7c2.2,0,4.4,0.3,6.5,0.6c0.6,0.1,1.3,0.2,1.9,0.2
	c1.9,0.2,3.8,0.5,5.7,0.7l2.4,0.3c0,0,0.1,0,0.1,0c0.2,0,0.4,0.1,0.6,0.1c0.5,0.1,1,0.3,1.6,0.1c0.4-0.1,0.9,0,1.4,0.1
	c0.2,0,0.5,0.1,0.7,0.1c0.4,0,0.8,0.1,1.2,0.1c0.3,0,0.6,0.1,1,0.1c0.7,0.1,1.5,0.1,2.2,0.2l2,0.2c1.6,0.2,3.2,0.3,4.8,0.5
	c2.8,0.2,5,1.4,6.8,3.7l1.3,1.6c0.6,0.8,1.2,1.5,1.9,2.3c1.7,2.1,3.3,4.4,4.6,6.8c0.8,1.4,2,2.7,3.4,4c1.2,1,2.3,2,3.4,3
	c0.8,0.8,1.4,1.7,1.9,2.6c0.5,0.9,0.6,1.7,0.4,2.5c-0.3,1.3-0.6,2.4-0.9,3.5c-0.3,1-0.9,1.9-1.9,2.6c-0.6,0.4-1.2,0.8-1.8,1.2
	c-2.8,1.9-6,2.3-9.4,1.2c-1.3-0.4-2.5-0.9-3.7-1.5c-4-2.1-7.4-4-10.6-6.1c-0.3-0.2-0.5-0.4-0.8-0.5l-0.2-0.1l-0.4-1l-1.2-0.1
	l-0.4-0.3c-0.4-0.3-0.8-0.6-1.2-0.9c-0.3-0.2-0.6-0.4-0.9-0.6c-0.8-0.3-1.4,0-1.8,0.8l0,0.1l0,0.1c0.1,0.5,0.4,0.9,1,1c0,0,0,0,0,0
	c-0.2,0-0.5,0.1-0.7,0.1l-1.8,0.1c-2.1,0.1-4.3,0.1-6.5,0.2c-2,0-4.6,0-7.2-0.2c-1.2-0.1-2.5-0.3-3.7-0.6c-0.5-0.1-1.1-0.2-1.6-0.3
	l-0.1,0c-0.5-0.1-1-0.2-1.5,0l-0.1,0.1l-0.1,0.1c-0.2,0.4-0.3,0.8-0.1,1.2c0.2,0.4,0.6,0.5,0.9,0.6c0.4,0.1,0.8,0.2,1.2,0.3
	c1.3,0.3,2.7,0.6,4.1,0.7c3.1,0.2,6.4,0.3,10.1,0.4c1.6,0,3.2-0.1,4.8-0.2c0.6,0,1.3-0.1,1.9-0.1c0.9,0,1.9-0.1,2.8-0.2
	c0.3,0,0.6,0.1,0.9,0.4c2.6,1.8,4.8,3.2,7,4.3c1.4,0.8,2.8,1.6,4.3,2.4l1.7,1c-0.1,0.5,0.1,1,0.3,1.4c0.1,0.2,0.1,0.3,0.2,0.5
	c0.9,3,2.7,5.5,5.3,7.8c1.5,1.3,3.3,1.9,5.1,2.6c1.1,0.4,2.4,0.8,3.7,1.2c0.5,0.2,1.1,0.3,1.8,0.3c0.4,0,0.8,0,1.3,0
	c0,0,0.1,0,0.1,0c0,0.1-0.1,0.1-0.1,0.2c-0.5,1-0.6,2.1-0.3,3.3c0.2,0.8,0.4,1.5,0.6,2.2c0.3,1.5,1.1,2.8,2.4,4
	c1.4,1.4,2.8,2.4,4.2,3.2c0.3,0.1,0.5,0.3,0.8,0.4c0.3,0.1,0.5,0.3,0.8,0.4c1.3,0.7,2.8,1.4,4.7,1.2c-0.2,1.2,0.2,2.1,0.6,3
	c0.1,0.3,0.3,0.6,0.3,1c0.3,1.5,1.1,2.9,2.5,4.5c0.6,0.7,1.5,1.2,2.7,1.5c0.9,0.2,1.8,0.4,2.8,0.5c1.6,0.1,3.3,0,5-0.3
	c2-0.4,3.8-1.4,5.7-3.1c-0.1,0.2-0.2,0.4-0.3,0.6c-0.3,0.8-0.7,1.7-1,2.5c-0.3,0.8-0.7,1.6-1,2.4c-0.7,1.7-1.6,3.1-2.7,4.2
	c-4.7,4.6-8.5,7.9-12.4,10.6c-1.9,1.3-3.9,2.3-6,3.3c-1.2,0.6-2.3,1.1-3.5,1.7c-1.2,0.6-2.4,1.2-3.6,1.8c-0.9,0.4-1.6,0.7-2.3,1
	c-1.5,0.6-2.9,1.3-4.2,2.1c-1.2,0.7-2.2,1.3-3.1,1.9c-0.2,0.1-0.4,0.3-0.6,0.5c-0.1,0.1-0.1,0.1-0.2,0.2c-0.1,0.1-0.1,0.1-0.2,0.2
	c-0.1,0.1-0.1,0.2-0.2,0.2l-0.2,0.1c-1.3,0.9-2.7,1.9-4.2,2.6c-2,1-3.9,2.2-5.8,3.3c-2.4,1.5-4.5,2.3-6.7,2.6
	c-2.5,0.3-4.9,0.4-7.3,0.1c-1.4-0.2-2.8-0.3-4.4-0.3c-0.2,0-0.5,0-0.8,0c-0.2,0-0.4,0-0.7,0l-0.1-0.4c-0.1-2-0.4-4.4-1.1-6.7
	c-0.4-1.2-0.9-2.5-1.4-3.8l-0.8-1.9C114.4,138.9,112.6,134.4,110.7,129.9z M195.8,78.9c-0.7,2.8-2,5.4-3.8,7.6
	c-2.2,2.7-3.8,5-5.2,7.2c-0.5,0.9-1.2,1.7-1.8,2.4c-0.7,0.7-1.5,1.4-2.2,2.1l-0.5,0.4c-0.6,0.5-1.3,1.1-1.9,1.5l-0.9,0.7
	c-1,0.8-2,1.6-3,2.3c-1.4,1-3.1,1.6-5.4,1.8c-0.8,0.1-1.5,0-2.2-0.3c-3.1-1.4-5.3-2.8-7-4.6c-0.8-0.8-1.2-1.6-1.4-2.4
	c-0.2-0.6-0.3-1.2-0.5-1.9l-0.2-0.8c-0.1-0.5-0.1-1,0.1-1.4c0.7-1.4,1.5-2.9,2.8-4c2-1.7,3.6-3.4,4.9-5.2c0.5-0.7,1.1-1.4,1.7-2
	c2.3-2.4,4.3-4.3,6.2-5.9c2.6-2.3,5.6-5,8-8.5c0.6-0.9,1.2-1.7,1.9-2.5c0.3-0.3,0.5-0.7,0.8-1c0.1,0,0.3-0.1,0.4-0.1
	c0.4-0.1,0.7-0.2,1.1-0.3c0.6-0.2,1.2-0.2,2,0.2c1.6,0.8,3.1,2,4.4,3.5c0.4,0.4,0.5,0.9,0.6,1.5c0.2,0.8,0.3,1.6,0.4,2.4
	c0.1,0.8,0.3,1.5,0.4,2.3c0.1,0.6,0.2,1.3,0.4,1.9C196.1,76.8,196.1,77.8,195.8,78.9z M189.3,54.4c-0.1,0.9-0.4,1.7-0.9,2.8
	c-0.2,0.4-0.4,0.8-0.6,1.2c-0.2,0.4-0.4,0.8-0.6,1.3c-0.2,0.3-0.3,0.7-0.6,0.9c-0.8,0.9-1.6,1.8-2.4,2.7c-0.5,0.5-0.9,1.1-1.4,1.6
	l-0.2,0.2c-0.5,0.5-0.9,1-1.1,1.8c0,0-0.1,0.1-0.1,0.2c-0.3,0.3-0.5,0.7-0.8,1c-0.6,0.8-1.2,1.5-1.9,2.2c-1.8,1.9-3.7,3.7-6,5.6
	c-3.2,2.8-5.8,5.5-7.8,8.2c-1.6,2.1-3.7,3.8-5.5,5.3c-1,0.8-2.2,1-3.6,0.6c-1.8-0.5-3.7-1.2-5.3-1.8c-3.3-1.2-5.7-3.6-7.4-7.4
	c-0.3-0.8-0.4-1-0.4-1.3l0.1,0c0.3,0.1,0.6,0.2,1,0.3c2.6,0.7,5.2,0.7,7.6,0.1c0.8-0.2,1.4-0.5,2-0.8c1.4-0.9,2.8-1.8,3.8-2.5
	c0.7-0.5,1.2-1.1,1.6-1.9c1-2,1.5-4.1,1.6-6.2c0-0.8-0.1-1.6-0.5-2.4c-0.5-1-1.1-2-1.9-2.9l-0.4-0.5c1.5-1.7,5.3-4.3,6.8-4.6l0.2,0
	l0.1-0.2c0,0,0-0.1,0.1-0.1c0.1-0.1,0.2-0.3,0.2-0.5c0.1-0.3,0-0.7-0.2-0.9c-0.2-0.2-0.5-0.3-0.8-0.3c-0.4,0-0.8,0.1-1.2,0.3
	c-0.4,0.2-0.8,0.4-1.1,0.6c1-2.2,2.4-4.8,4.3-7.2c0.5-0.6,1-1.1,1.5-1.5c1.4-0.9,2.7-2,3.8-3c0.7-0.6,1.4-1.2,2-1.9l1-0.9
	c0.2-0.2,0.4-0.3,0.5-0.5l0.1-0.1c2.3,0,4.1,0.5,5.8,1.3c2.9,1.6,5.2,3.6,7,6C189,50.8,189.5,52.5,189.3,54.4z M172.7,41
	c-0.6,0.6-1.2,1.2-1.8,1.7c-0.3,0.3-0.6,0.5-0.9,0.8c-1.3,1.2-2.7,2.3-4.2,3.3c-1,0.7-2,1.4-3,2.1c-0.4,0.3-0.8,0.6-1.2,0.8
	c-0.1,0.1-0.3,0.2-0.5,0.4c-0.2,0.3-0.2,0.7-0.1,1c0.1,0.3,0.4,0.5,0.8,0.6c0,0,0,0,0,0c-0.6,1-1.1,2-1.6,3.1
	c-0.2,0.3-0.3,0.7-0.5,1c-0.1,0.3-0.3,0.6-0.5,0.9c-0.2,0.2-0.3,0.4-0.4,0.7c-0.3,0.5-0.5,0.9-0.8,1.4l-0.2,0.5
	c0,0.1-0.1,0.1-0.1,0.2c0,0,0,0.1,0,0.1c-0.5,0.5-0.9,0.9-1.4,1.4l-0.2,0.2c-0.3-0.2-0.6-0.5-0.9-0.7c-0.9-0.7-1.7-1.4-2.5-2.2
	c-0.5-0.5-1-1.1-1.5-1.9c-2.1-3.5-4.4-6.7-6.8-9.5c-0.3-0.4-0.6-0.8-0.9-1.1c-0.2-0.2-0.4-0.5-0.6-0.7c-2-2.5-4.7-3.9-7.8-4.3
	c-1.6-0.2-3.2-0.3-4.7-0.5c-1.5-0.1-3-0.3-4.5-0.4c-0.8-0.1-1.6-0.2-2.4-0.3l-0.6-0.1c0.2-0.2,0.3-0.3,0.5-0.4l0.1-0.1
	c2-1.5,4.2-2.7,6.5-4c6.6-3.7,13.2-6.9,19.7-9.7c4-1.7,8-3.9,12.7-6.9l0.6-0.4c3.5-2.3,7.1-4.6,10.8-6.5c4.1-2.1,9.6-4.8,15.6-6.4
	c2-0.5,4.1-0.9,7-1.1c1.2-0.1,2.2-0.1,3.1,0c1.8,0.2,2.6,0.9,3,2.6c0.4,2,0.7,3.7,0.8,5.3c0.1,1.6-0.4,3-1.5,4.3
	c-0.8,1-1.7,1.7-2.9,2.6c-1.6,1.3-3.2,2.8-4.9,4.7c-1.5,1.7-3,3.1-4.6,4.3c-1.1,0.8-2.2,1.6-3.2,2.5c-1.1,0.8-2.1,1.6-3.2,2.5
	c-0.4,0.3-0.9,0.6-1.4,0.9c-0.8,0.5-1.5,1-2.2,1.7c-0.9,0.8-1.8,1.6-2.8,2.3c-0.8,0.6-1.6,1.2-2.3,1.9
	C173.9,39.9,173.3,40.4,172.7,41z"/>
</svg>
